<?xml version="1.0" encoding="utf-8"?>
<!-- Generator: Adobe Illustrator 19.0.0, SVG Export Plug-In . SVG Version: 6.00 Build 0)  -->
<svg version="1.1" id="Layer_1" xmlns="http://www.w3.org/2000/svg" xmlns:xlink="http://www.w3.org/1999/xlink" x="0px" y="0px"
	 viewBox="-442 243 75 75" style="enable-background:new -442 243 75 75;" xml:space="preserve">
<style type="text/css">
	.st0{fill:#FFFFFF;}
</style>
<path class="st0" d="M-384,274.3l-19.9-15.6c-0.4-0.3-0.9-0.3-1.3,0l-19.9,15.6c-0.5,0.4-0.6,1.1-0.2,1.6c0.4,0.5,1,0.6,1.5,0.3
	l19.3-15.1l19.2,15.1c0.2,0.2,0.4,0.2,0.6,0.2c0.3,0,0.7-0.2,0.9-0.5C-383.4,275.4-383.5,274.7-384,274.3z M-389.2,276.4
	c-0.6,0-1.1,0.5-1.1,1.2v18.6h-8.7V286c0-3.2-2.5-5.8-5.5-5.8s-5.5,2.6-5.5,5.8v10.1h-8.7v-18.6c0-0.6-0.5-1.2-1.1-1.2
	s-1.1,0.5-1.1,1.2v19.7c0,0.6,0.5,1.2,1.1,1.2h10.9c0.6,0,1-0.5,1.1-1.1c0,0,0-0.1,0-0.1V286c0-1.9,1.5-3.5,3.3-3.5s3.3,1.6,3.3,3.5
	v11.3c0,0,0,0.1,0,0.1c0,0.6,0.5,1.1,1.1,1.1h10.9c0.6,0,1.1-0.5,1.1-1.2v-19.7C-388.1,277-388.6,276.4-389.2,276.4z"/>
</svg>
