<?xml version="1.0" encoding="utf-8"?>
<!-- Generator: Adobe Illustrator 19.0.0, SVG Export Plug-In . SVG Version: 6.00 Build 0)  -->
<svg version="1.1" id="Capa_1" xmlns="http://www.w3.org/2000/svg" xmlns:xlink="http://www.w3.org/1999/xlink" x="0px" y="0px"
	 viewBox="-436 239 85 81.7" style="enable-background:new -436 239 85 81.7;" xml:space="preserve">
<style type="text/css">
	.st0{fill:#61544C;}
</style>
<g id="Capa_1_1_">
	<g>
		<path class="st0" d="M-354.3,320.6h-14.9v-6c0-0.9-0.8-1.7-1.7-1.7c-0.9,0-1.7,0.8-1.7,1.7v6h-41.9v-6c0-0.9-0.8-1.7-1.7-1.7
			c-0.9,0-1.7,0.8-1.7,1.7v6h-14.9v-11.1c0-8,5.3-11.6,13.9-14.7c1.4-0.5,3.1-1.1,5-1.7c4.5,6.4,11.8,10.5,20.2,10.5
			s15.7-4.2,20.2-10.5c1.9,0.6,3.6,1.2,5,1.7c8.6,3.1,13.9,6.6,13.9,14.6V320.6z M-404.1,242.3h21.2c5.9,0,10.7,4.8,10.7,10.7v6.9
			c-8.5-0.4-13.2-4.6-13.3-4.6c-0.5-0.4-1.2-0.6-1.8-0.3c-0.6,0.3-1,0.9-1,1.5c0,0,0,1.6,0,3.3c-8-0.4-10.9-4.3-11-4.4
			c-0.4-0.6-1.2-0.9-1.9-0.6s-1.2,0.9-1.2,1.6c0,0,0,1.8,0,3.4c-7-0.7-11.1-6.6-12.3-8.5C-413.8,246.2-409.4,242.3-404.1,242.3
			 M-414.8,256.5c2.8,3,7.4,6.6,13.9,6.6c0.1,0,0.2,0,0.2,0c0.9,0,1.6-0.8,1.6-1.7c0-0.4,0-1,0-1.5c2.4,1.6,6.4,3.2,12.4,3.1
			c0.9,0,1.6-0.8,1.6-1.7c0-0.5,0-1.2,0-1.8c2.6,1.5,6.9,3.3,12.7,3.5V279c0,11.7-9.6,21.3-21.3,21.3c-11.7,0-21.3-9.6-21.3-21.3
			C-414.8,279-414.8,256.5-414.8,256.5z M-367.1,291.7c-1.3-0.5-2.7-1-4.4-1.5c1.7-3.4,2.7-7.1,2.7-11.2v-26c0-7.8-6.3-14.1-14-14.1
			h-21.2c-7.8,0-14,6.3-14,14.1v26c0,4,1,7.8,2.7,11.2c-1.7,0.6-3.1,1.1-4.4,1.5c-8.4,3-16.1,7.3-16.1,17.8v11.1l0,0h85l0,0v-11.1
			C-351,299-358.7,294.7-367.1,291.7"/>
		<path class="st0" d="M-402.8,274.8c1.4,0,2.5-1.1,2.5-2.5c0-1.4-1.1-2.5-2.5-2.5c-1.4,0-2.5,1.1-2.5,2.5
			C-405.3,273.7-404.2,274.8-402.8,274.8"/>
		<path class="st0" d="M-384.2,274.8c1.4,0,2.5-1.1,2.5-2.5c0-1.4-1.1-2.5-2.5-2.5c-1.4,0-2.5,1.1-2.5,2.5
			C-386.7,273.7-385.6,274.8-384.2,274.8"/>
		<path class="st0" d="M-401.9,288.5c-0.5,0.8-0.3,1.8,0.4,2.3c2.4,1.6,5.1,2.5,8,2.5s5.6-0.9,8-2.5c0.8-0.5,1-1.6,0.4-2.3
			c-0.5-0.8-1.6-1-2.3-0.5c-1.8,1.2-4,1.9-6.1,1.9c-2.2,0-4.3-0.6-6.1-1.9C-400.4,287.6-401.4,287.8-401.9,288.5"/>
	</g>
</g>
</svg>
