<?xml version="1.0" encoding="utf-8"?>
<!-- Generator: Adobe Illustrator 23.0.5, SVG Export Plug-In . SVG Version: 6.00 Build 0)  -->
<svg version="1.1" xmlns="http://www.w3.org/2000/svg" xmlns:xlink="http://www.w3.org/1999/xlink" x="0px" y="0px"
	 viewBox="0 0 102.11 86.37" style="enable-background:new 0 0 102.11 86.37;" xml:space="preserve">
<style type="text/css">
	.st0{clip-path:url(#SVGID_2_);fill:#EA660A;}
	.st1{clip-path:url(#SVGID_2_);fill:#FFFFFF;}
	.st2{clip-path:url(#SVGID_2_);fill:#75B52D;}
	.st3{clip-path:url(#SVGID_2_);}
	.st4{clip-path:url(#SVGID_6_);fill:#EA660A;}
	.st5{clip-path:url(#SVGID_6_);fill:#FFFFFF;}
	.st6{clip-path:url(#SVGID_6_);fill:#75B52D;}
	.st7{clip-path:url(#SVGID_6_);}
	.st8{clip-path:url(#SVGID_10_);fill:#EA660A;}
	.st9{clip-path:url(#SVGID_10_);fill:#FFFFFF;}
	.st10{clip-path:url(#SVGID_10_);fill:#75B52D;}
	.st11{clip-path:url(#SVGID_10_);}
	.st12{clip-path:url(#SVGID_14_);fill:#EA660A;}
	.st13{clip-path:url(#SVGID_14_);}
	.st14{clip-path:url(#SVGID_14_);fill:#FFFFFF;}
	.st15{clip-path:url(#SVGID_14_);fill:#75B52D;}
	.st16{clip-path:url(#SVGID_18_);fill:#EA660A;}
	.st17{clip-path:url(#SVGID_18_);}
	.st18{clip-path:url(#SVGID_18_);fill:#FFFFFF;}
	.st19{clip-path:url(#SVGID_18_);fill:#75B52D;}
	.st20{clip-path:url(#SVGID_26_);}
	.st21{fill:#FFFFFF;}
	.st22{fill:url(#);}
	.st23{fill:#61544C;}
	.st24{fill:none;stroke:#61544C;stroke-width:5.3208;stroke-miterlimit:10;}
	.st25{fill:#199AD7;}
	.st26{fill:#D8A400;}
	.st27{fill:#A29D96;}
	.st28{fill:none;stroke:#FFFFFF;stroke-width:14.6911;}
	.st29{clip-path:url(#SVGID_32_);}
	.st30{clip-path:url(#SVGID_34_);}
	.st31{fill:#BC9D56;}
	.st32{fill-rule:evenodd;clip-rule:evenodd;fill:#61544C;}
	.st33{clip-path:url(#SVGID_42_);}
	.st34{fill:none;stroke:#75B52D;stroke-width:2.9115;stroke-miterlimit:10;}
	.st35{fill:#75B52D;}
	.st36{clip-path:url(#SVGID_46_);}
	.st37{clip-path:url(#SVGID_50_);}
	.st38{clip-path:url(#SVGID_52_);}
	.st39{clip-path:url(#SVGID_56_);}
	.st40{clip-path:url(#SVGID_60_);fill:#75B52F;}
	.st41{clip-path:url(#SVGID_62_);}
	.st42{clip-path:url(#SVGID_66_);fill:#F9B711;}
	.st43{clip-path:url(#SVGID_68_);}
	.st44{clip-path:url(#SVGID_72_);fill:#E96610;}
	.st45{clip-path:url(#SVGID_74_);}
	.st46{clip-path:url(#SVGID_80_);}
	.st47{clip-path:url(#SVGID_82_);}
	.st48{clip-path:url(#SVGID_86_);}
	.st49{clip-path:url(#SVGID_90_);fill:#FFFFFF;}
	.st50{clip-path:url(#SVGID_92_);fill:#199AD7;}
	.st51{clip-path:url(#SVGID_92_);fill:#61544C;}
	.st52{clip-path:url(#SVGID_92_);}
	.st53{fill:none;}
	.st54{opacity:0.85;}
	.st55{clip-path:url(#SVGID_102_);}
	.st56{clip-path:url(#SVGID_106_);}
	.st57{clip-path:url(#SVGID_110_);}
	.st58{clip-path:url(#SVGID_112_);}
	.st59{clip-path:url(#SVGID_116_);}
	.st60{clip-path:url(#SVGID_118_);}
	.st61{clip-path:url(#SVGID_122_);}
	.st62{clip-path:url(#SVGID_126_);}
	.st63{clip-path:url(#SVGID_130_);}
	.st64{clip-path:url(#SVGID_134_);fill:#75B52F;}
	.st65{clip-path:url(#SVGID_136_);}
	.st66{clip-path:url(#SVGID_140_);fill:#F9B711;}
	.st67{clip-path:url(#SVGID_142_);}
	.st68{clip-path:url(#SVGID_146_);fill:#E96610;}
	.st69{clip-path:url(#SVGID_148_);}
	.st70{clip-path:url(#SVGID_154_);fill:#FFFFFF;}
	.st71{clip-path:url(#SVGID_156_);fill:#199AD7;}
	.st72{clip-path:url(#SVGID_156_);fill:#61544C;}
	.st73{clip-path:url(#SVGID_156_);}
	.st74{clip-path:url(#SVGID_158_);fill:#75B52F;}
	.st75{clip-path:url(#SVGID_160_);}
	.st76{clip-path:url(#SVGID_164_);fill:#F9B711;}
	.st77{clip-path:url(#SVGID_166_);}
	.st78{clip-path:url(#SVGID_170_);fill:#E96610;}
	.st79{clip-path:url(#SVGID_172_);}
	.st80{clip-path:url(#SVGID_178_);fill:#FFFFFF;}
	.st81{clip-path:url(#SVGID_180_);fill:#199AD7;}
	.st82{clip-path:url(#SVGID_180_);fill:#61544C;}
	.st83{clip-path:url(#SVGID_180_);}
	.st84{clip-path:url(#SVGID_182_);}
	.st85{clip-path:url(#SVGID_184_);}
	.st86{clip-path:url(#SVGID_188_);}
	.st87{fill:none;stroke:#BC9D56;stroke-width:3.1487;}
	.st88{fill:#EA660A;}
	.st89{clip-path:url(#SVGID_196_);}
	.st90{clip-path:url(#SVGID_198_);}
	.st91{clip-path:url(#SVGID_206_);}
	.st92{clip-path:url(#SVGID_210_);}
	.st93{clip-path:url(#SVGID_214_);}
	.st94{clip-path:url(#SVGID_216_);}
	.st95{clip-path:url(#SVGID_220_);}
	.st96{clip-path:url(#SVGID_224_);fill:#75B52F;}
	.st97{clip-path:url(#SVGID_226_);}
	.st98{clip-path:url(#SVGID_230_);fill:#F9B711;}
	.st99{clip-path:url(#SVGID_232_);}
	.st100{clip-path:url(#SVGID_236_);fill:#E96610;}
	.st101{clip-path:url(#SVGID_238_);}
	.st102{clip-path:url(#SVGID_244_);}
	.st103{clip-path:url(#SVGID_246_);}
	.st104{clip-path:url(#SVGID_250_);}
	.st105{clip-path:url(#SVGID_254_);fill:#FFFFFF;}
	.st106{clip-path:url(#SVGID_256_);fill:#199AD7;}
	.st107{clip-path:url(#SVGID_256_);fill:#61544C;}
	.st108{clip-path:url(#SVGID_256_);}
	.st109{opacity:0.7;fill:#D8A400;}
	.st110{clip-path:url(#SVGID_264_);}
	.st111{clip-path:url(#SVGID_268_);}
	.st112{clip-path:url(#SVGID_272_);}
	.st113{clip-path:url(#SVGID_274_);}
	.st114{clip-path:url(#SVGID_278_);}
	.st115{clip-path:url(#SVGID_280_);}
	.st116{clip-path:url(#SVGID_284_);}
	.st117{clip-path:url(#SVGID_288_);}
	.st118{clip-path:url(#SVGID_292_);}
	.st119{clip-path:url(#SVGID_296_);fill:#75B52F;}
	.st120{clip-path:url(#SVGID_298_);}
	.st121{clip-path:url(#SVGID_302_);fill:#F9B711;}
	.st122{clip-path:url(#SVGID_304_);}
	.st123{clip-path:url(#SVGID_308_);fill:#E96610;}
	.st124{clip-path:url(#SVGID_310_);}
	.st125{clip-path:url(#SVGID_316_);fill:#FFFFFF;}
	.st126{clip-path:url(#SVGID_318_);fill:#199AD7;}
	.st127{clip-path:url(#SVGID_318_);fill:#61544C;}
	.st128{clip-path:url(#SVGID_318_);}
	.st129{clip-path:url(#SVGID_320_);}
	.st130{clip-path:url(#SVGID_322_);}
	.st131{clip-path:url(#SVGID_326_);}
	.st132{clip-path:url(#SVGID_338_);}
	.st133{clip-path:url(#SVGID_344_);}
	.st134{clip-path:url(#SVGID_348_);}
</style>
<g id="FONDO">
	<g>
		<defs>
			<rect id="SVGID_17_" x="2237.47" y="-146.16" width="575" height="11276"/>
		</defs>
		<clipPath id="SVGID_2_">
			<use xlink:href="#SVGID_17_"  style="overflow:visible;"/>
		</clipPath>
		<g class="st3">
			<defs>
				<circle id="SVGID_19_" cx="2524.47" cy="-2167.11" r="2825.14"/>
			</defs>
			<clipPath id="SVGID_4_">
				<use xlink:href="#SVGID_19_"  style="overflow:visible;"/>
			</clipPath>
		</g>
	</g>
</g>
<g id="Capa_1">
	<g>
		<path class="st23" d="M74.13,82.96c-9.42,0-17.09-7.66-17.09-17.09s7.67-17.09,17.09-17.09s17.09,7.67,17.09,17.09
			S83.55,82.96,74.13,82.96 M100.4,32.7H89.47V21.53c0-0.94-0.76-1.7-1.7-1.7H75.5c-0.94,0-1.7,0.76-1.7,1.7
			c0,0.94,0.76,1.7,1.7,1.7h10.57v9.46H73.34c-0.94,0-1.7,0.76-1.7,1.7s0.76,1.7,1.7,1.7H98.7v28.07h-4.16
			c-0.87-10.5-9.69-18.79-20.42-18.79c-10.73,0-19.55,8.28-20.41,18.79h-5.9c-0.94,0-1.7,0.76-1.7,1.7s0.76,1.7,1.7,1.7h5.9
			c0.87,10.5,9.69,18.79,20.41,18.79c10.73,0,19.55-8.29,20.42-18.79h5.86c0.94,0,1.7-0.76,1.7-1.7V34.4
			C102.11,33.46,101.34,32.7,100.4,32.7"/>
		<path class="st23" d="M45.09,45.32L4.1,25.13l5.55-9.43H52.4c0.49,0,0.96-0.21,1.28-0.58L63.93,3.4h22.14v5.3H68.58
			c-0.7,0-1.33,0.43-1.59,1.09L55.56,39.46c-1.32,3.42-3.08,5.55-5.24,6.33c-2.62,0.95-5.12-0.41-5.13-0.42
			C45.16,45.35,45.12,45.33,45.09,45.32 M51.43,49.01c3.16-1.12,5.62-3.92,7.31-8.33l11.01-28.57h18.02c0.94,0,1.7-0.76,1.7-1.7V1.7
			c0-0.94-0.76-1.7-1.7-1.7H63.15c-0.49,0-0.96,0.21-1.28,0.58L51.63,12.3H8.67c-0.6,0-1.16,0.32-1.47,0.84L0.23,24.99
			c-0.24,0.41-0.3,0.9-0.16,1.35c0.13,0.45,0.45,0.83,0.88,1.04l42.6,20.98c0.38,0.2,2.3,1.18,4.81,1.18
			C49.32,49.53,50.36,49.39,51.43,49.01"/>
		<path class="st23" d="M74.13,70.77c-2.7,0-4.9-2.2-4.9-4.9c0-2.7,2.2-4.9,4.9-4.9c2.7,0,4.9,2.2,4.9,4.9
			C79.03,68.58,76.83,70.77,74.13,70.77 M74.13,57.58c-4.58,0-8.3,3.72-8.3,8.3c0,4.58,3.72,8.3,8.3,8.3c4.58,0,8.3-3.72,8.3-8.3
			C82.43,61.3,78.71,57.58,74.13,57.58"/>
		<path class="st23" d="M49.18,23.71c0-0.94-0.76-1.7-1.7-1.7H23.97c-0.94,0-1.7,0.76-1.7,1.7c0,0.94,0.76,1.7,1.7,1.7h23.51
			C48.42,25.41,49.18,24.65,49.18,23.71"/>
		<path class="st23" d="M20.49,82.72c-9.42,0-17.09-7.66-17.09-17.09s7.66-17.09,17.09-17.09c9.42,0,17.09,7.66,17.09,17.09
			S29.91,82.72,20.49,82.72 M20.49,45.14C9.19,45.14,0,54.33,0,65.63s9.19,20.49,20.49,20.49c11.3,0,20.49-9.19,20.49-20.49
			S31.79,45.14,20.49,45.14"/>
		<path class="st23" d="M20.49,70.53c-2.7,0-4.9-2.2-4.9-4.9c0-2.7,2.2-4.9,4.9-4.9c2.7,0,4.9,2.2,4.9,4.9
			C25.39,68.33,23.19,70.53,20.49,70.53 M20.49,57.33c-4.58,0-8.3,3.72-8.3,8.3c0,4.58,3.72,8.3,8.3,8.3c4.58,0,8.3-3.72,8.3-8.3
			C28.79,61.06,25.07,57.33,20.49,57.33"/>
	</g>
</g>
</svg>
