<?xml version="1.0" encoding="utf-8"?>
<!-- Generator: Adobe Illustrator 16.0.0, SVG Export Plug-In . SVG Version: 6.00 Build 0)  -->
<!DOCTYPE svg PUBLIC "-//W3C//DTD SVG 1.1//EN" "http://www.w3.org/Graphics/SVG/1.1/DTD/svg11.dtd">
<svg version="1.1" xmlns="http://www.w3.org/2000/svg" xmlns:xlink="http://www.w3.org/1999/xlink" x="0px" y="0px" width="295px"
	 height="295px" viewBox="0 0 295 295" enable-background="new 0 0 295 295" xml:space="preserve">
<g id="Capa_1">
	<g>
		<g>
			<path opacity="0.7" fill="#FFFFFF" d="M0,147.504C0,228.962,66.038,295,147.5,295S295,228.962,295,147.504
				C295,66.039,228.962,0.001,147.5,0.001S0,66.039,0,147.504z"/>
			<path fill="#FFFFFF" d="M24.514,147.504c0,67.92,55.062,122.982,122.986,122.982s122.986-55.062,122.986-122.982
				c0-67.927-55.062-122.99-122.986-122.99S24.514,79.578,24.514,147.504z"/>
		</g>
		<g>
			<path fill-rule="evenodd" clip-rule="evenodd" fill="#DD0071" d="M182.933,120.443c0.282,0.584,0.017,1.659,0.553,1.659
				c0.989,0,1.271-0.367,2.397-0.367l1.583-0.082l0.632-0.658c-0.351-1.499-1.119-1.709-1.111-3.5
				c0.004-2.036-0.253-2.908-0.365-4.245c-0.826-0.299-0.142-0.551-0.926-0.551l-0.363-0.002l-1.479,0.051
				c-0.667-0.051-1.093,1.896-2.572,1.981c-1.63,0.1-2.521,0.265-2.959,1.471h-0.921c-0.208-0.782-0.372-0.322-0.372-0.923
				c0-3.493,4.515-0.858,4.798-4.241l1.944-0.907l0.082,0.169c0.286-0.593,0.74-1.053,0.74-1.658v-1.106h0.551l0.184-1.29
				c-0.815,0.938-0.429,1.29-2.397,1.287l-1.843,0.003c-1.265,0-2.558-1.208-2.978-2.187c-0.7-1.622-0.53-2.195-0.53-4.452
				l-0.528,0.395l-2.782-0.418l-0.691,2.204c-2.007,1.464-1.898-0.738-1.898,2.981l-0.405,0.333l-1.438,0.036
				c-0.351,0.523-0.433,1.292-1.108,1.292h-0.184c-0.667,0-0.723-1-0.736-1.659l2.213-1.108l-0.003-2.03
				c1.198-1.788,0.482-0.867,2.217-2.029l0.277-2.384l0.459-0.013v-0.368h-0.922l-0.534-0.395c-1.878,0.024-4.745-0.062-6.849-0.154
				c-1.901-0.082-1.362-0.835-1.817,1.307c-0.2,0.954-1.129,1.806-1.128,2.192c-0.001,0.488,5.346,0.438,5.348,2.029
				c-0.001,0.197-3.476,3.106-3.976,3.398c-1.159,0.681-3.584,2.23-3.583,3.792l-0.001,1.108c-0.002,0.971,2.528,3.137,3.054,3.955
				c0.963,1.505,1.347,3.133,2.612,4.395c1.562,1.56,2.858,1.416,4.659,2.349c1.261,0.655,3.396,2.946,4.062,2.946h0.367
				c1.067,0,3.283-2.35,4.104-3.085c1.115-1.006,2.339-2.851,2.717-4.478C182.068,117.574,182.736,119.599,182.933,120.443"/>
			<path fill-rule="evenodd" clip-rule="evenodd" fill="#7D9C2B" d="M129.454,168.759c-1.066,0.378-0.069,2.49-2.475,2.96
				l-0.664,0.359c0.03,0.041,4.128,3.335,4.421,3.509c0.803,0.466,4.078,3.683,4.433,3.683c0.415,0,3.376-4.056,5.904-4.056
				l0.367-0.001c1.528,0.001,2.857,1.258,3.538,2.174c1.268,1.69,1.029,2.471,1.809,4.094c1.193-0.098,8.752-3.601,9.223-4.24
				l-1.758-1.739c0.095-0.985,0.378-2.132-0.458-2.132c-0.317,0-3.687,2.545-3.687,0.922c-0.001-1.176,2.583-5.111,2.583-7.006
				v-0.187c0-1.298-2.89-1.438-3.941-1.963c-1.252-0.618-2.432-1.475-3.906-1.806c-1.65-0.378-3.803,0.088-5.433,0.082
				c-3.068-0.012-2.783,0.149-4.979,0.736v2.581l0.429,4.791c-0.015,0.418-0.394,0.742-0.799,0.74
				C133.674,172.263,129.816,169.301,129.454,168.759"/>
			<path fill-rule="evenodd" clip-rule="evenodd" fill="#1C3F8B" d="M115.257,106.795l-1.293,0.206l1.071,3.625l-0.179,0.067
				l0.422,0.507l0.205,3.337c0.32,4.686-1.969,9.69-4.063,12.035c-0.776,0.875-0.871,1.243-1.84,2.216
				c-0.574,0.57-1.497,1.416-2.147,1.912c-1.104,0.838-1.476,0.583-2.463,1.59c-0.84,0.856-1.105,1.119-2.442,1.432l0.002,0.554
				c0.375,0.708,2.087,2.581,2.945,2.581c0.5,0,0.513-0.088,0.927-0.186l1.291-0.737c1.898,0,5.002-0.751,6.431-1.316
				c2.551-1.001,2.554-2.007,3.526-4.402c1.456-3.581,5.717-4.922,5.717-9.956l0.103-0.94l-0.656-3.671
				c-0.217-1.258,0.553-3.166,0.553-3.873v-2.95c0-0.796-2.01-3.694-2.395-4.426c-0.497-0.117-0.352-0.186-0.738-0.186
				C119.442,104.211,116.33,106.704,115.257,106.795"/>
			<path fill-rule="evenodd" clip-rule="evenodd" fill="#612678" d="M188.465,154.745c1.654-0.877,8.564-6.119,9.406-7.376
				c-0.227-0.841-1.722-1.025-2.763-1.112c-1.252-0.102-1.809-0.647-2.74-1.128c-1.992-1.034-2.584-2.221-3.753-3.997
				c-1.346-2.042-2.446-2.352-3.794-3.951c-0.666-0.785-1.703-4.432-1.703-5.857l-0.921-0.553c-2.6,0-2.462,0.69-3.734,2.167
				c-0.599,0.694-1.985,2.613-1.985,3.733v4.243c0,1.657,2.191,3.898,2.796,5.873c0.534,1.752,0.033,1.77,2.106,2.133
				c0.97,0.172,3.215,0.077,3.215,1.028c0,0.99-0.375,1.271-0.372,2.398c0,0.666,0.467,0.553,1.109,0.553l2.612,1.802
				L188.465,154.745z"/>
			<path fill-rule="evenodd" clip-rule="evenodd" fill="#239AD7" d="M105.295,150.688c0.267-0.404,0.532-1.108,1.105-1.108h2.028
				c0.677,0,0.892,0.287,1.293,0.554c2.751,0.002,2.928,1.109,4.793,1.107c1.24,0.828,2.295,0.521,3.479,1.866
				c0.799,0.906,1.317,2.548,1.317,4.219c0,2.711-1.291,2.418-1.291,5.348c0,0.415,0.146,0.403,0.368,0.739h2.396l3.689-0.202
				c0.835-0.039,3.472,0.542,3.811-0.045c0.002-0.007,0.429-3.695,0.429-3.812c0-1.854-0.458-4.785-1.288-5.902
				c-0.528-0.711-1.091-1.175-1.713-1.973c-0.804-1.036-0.279-1.623-1.236-2.266c-0.002-2.121-1.537-3.024-2.844-3.983
				c-0.527-0.39-2.276-3.497-2.508-4.13h-1.288c-0.503,1.877-3.081,2.601-3.902,4.029c-0.38,0.653-1.315,1.309-1.89,2.164
				c-0.667,0.991-0.462,1.755-1.771,2.104v-3.689c0-0.854,0.343-0.553,0.37-1.66h-1.106c-1.474,0-1.455-0.792-2.581-0.553v0.553
				c0,0.247-2.214,5.353-2.214,5.902C104.741,150.442,105.005,150.496,105.295,150.688"/>
			<path fill-rule="evenodd" clip-rule="evenodd" fill="#E4730B" d="M131.114,100.157v0.737c0.22,0.334,0.369,0.325,0.369,0.737
				v0.555c1.213,0.323,0.626,2.436,1.291,3.688l1.657,0.925c1.006,0.233,2.389,0.736,3.504,0.736l2.028-0.002
				c1.982,0,3.857-2.255,6.095-2.944c2.812-0.867,5.708,0.113,5.708-3.511c0.002-1.591-1.106-4.14-1.106-5.53
				c0-0.357,0.329-0.74,0.555-0.739c0.458,0,2.205,1.062,2.54,1.334c0.807,0.674,0.83,1.585,2.255,1.617
				c0.218-1.994,2.649-2.325,3.317-3.32c-0.847-0.975-1.534-0.668-2.337-2.088c-0.617-1.083-0.969-1.906-2.196-2.413
				c-2.055-0.85-3.241-3.914-4.871-4.351c0.51,2.194-0.601,4.902-1.567,6.365c-1.104,1.661-2.401,2.987-4.036,4.08
				c-1.641,1.087-0.925,1.013-1.993,2.062c-0.525,0.514-1.851,1.031-2.638,1.421c-2.123,1.059-4.567,0.643-6.733,0.643h-0.739
				c-0.431,0-0.474,0.056-0.734,0.186L131.114,100.157z"/>
			<path fill-rule="evenodd" clip-rule="evenodd" fill="#F7CCBD" d="M160.985,114.91c0.001,1.15-2.396,3.612-2.394,4.978
				l0.012,1.035c0.351,1.457,0.946,1.883,2.077,1.836c1.485-0.065,2.209-0.998,3.205-1.996l0.541-0.513l-0.422-0.374l-1.003-1.806
				l-0.884-1.811L160.985,114.91z M167.009,126.029L167.009,126.029c-0.753,0.242-2.823,0.704-3.402,0.551
				c-1.099-0.29-1.657-1.288-0.834-2.991c0.435-0.903,1.18-1.595,1.835-2.343l0.441-0.44l0.042,0.038l1.45,0.764l2.012,0.847
				l1.568,0.804l0.589,0.827C169.71,124.562,168.382,125.465,167.009,126.029 M161.854,100.379l0.776-1.513
				c-0.14-1.401,0.483-1.966-0.966-2.165c-0.471-0.448-0.661-0.764-1.242-1.065c-1.125-0.575-0.907-0.707-2.283,0.095
				c-0.949,0.549-1.789,0.947-1.937,2.301l0.275,0.6c1.284,1.803,1.766,2.315,3.346,2.708
				C161.059,101.17,161.193,101.348,161.854,100.379"/>
			<path fill-rule="evenodd" clip-rule="evenodd" fill="#5C4892" d="M178.508,164.332c-0.983,0.86-4.869,2.917-6.312,3.834
				c-2.065,1.312-4.242,2.595-4.94,5.204l-5.349-0.553c-1.231-0.104-1.69-1.065-1.66,0.917c0.023,1.49-0.14,1.702-0.735,2.585
				l0.184,0.555c0.291,0.138,12.84,2.58,13.462,2.58c0.422,0,0.214-0.06,0.767-0.185c-0.086-0.982-0.582-2.325-0.582-3.135v-1.29
				c-0.001-0.448,0.762-2.443,1.217-2.841c0.587-0.511,1.885-1.401,2.84-1.399l1.843-0.002c0.943,0.002,3.228,1.29,3.688,1.29
				c1.158,0,2.021-4.154,2.037-5.523c0.014-1.434-0.165-2.463,0.236-3.637c0.08-0.239,0.674-3.059,0.674-3.195l-0.526-0.394
				c-2.456,0.026-2.168-0.896-3.345-0.894C180.92,158.25,180.102,163.906,178.508,164.332"/>
			<path fill-rule="evenodd" clip-rule="evenodd" fill="#E4730B" d="M125.396,94.255l-1.106,3.504l-0.554,2.213
				c0.686,0.329,1.615,0.402,2.216,0.733c1.21,0.673,0.497,1.385,1.655,1.48c0.262-0.976,1.585-3.79,2.556-3.865l0.21,0.361
				c0.098-1.158,3.262-1.158,4.219-1.5c1.753-0.63,2.438-0.95,3.794-2.106c0.908-0.774,2.449-2.004,2.831-3.073
				c0.483-1.347,1.175-2.96,1.883-4.02c0-1.417,0.37-1.458,0.369-2.211v-0.553c0-0.813-0.369-0.66-0.369-2.026l-2.022,2.951
				c-1.042,0.02-1.072,0.918-3.329,0.918c-1.749,0-4.288-2.026-4.975-2.026l-0.185,0c-0.187,0-2.619,1.348-2.76,1.484
				c-0.362,0.346-1.398,1.834-1.602,2.45C127.425,91.377,126.858,92.569,125.396,94.255"/>
			<path fill-rule="evenodd" clip-rule="evenodd" fill="#8DBE22" d="M106.769,107.902l1.615,0.029l1.31,2.186l0.21,2.949
				l0.045,1.296l-0.228,2.209c-0.574,0.854-0.688,2.598-1.505,4.025c-0.987,1.723-1.083,1.918-2.263,3.456
				c-0.88,1.137-5.013,4.899-6.932,3.953c0.325,1.375,1.334,1.967,1.848,2.947c0.498,0.931,0.691,2.613,1.66,3.324l-0.002-0.554
				c1.337-0.313,1.603-0.576,2.442-1.432c0.987-1.006,1.359-0.752,2.463-1.59c0.65-0.496,1.573-1.342,2.147-1.914
				c0.969-0.972,1.063-1.339,1.84-2.215c2.094-2.344,4.383-7.349,4.063-12.034l-0.205-3.337l-0.243-0.574l-1.071-3.625l1.293-0.206
				L106.769,107.902z"/>
			<path fill-rule="evenodd" clip-rule="evenodd" fill="#DB951D" d="M135.17,109.192l0.186,1.294c0.594,0.313,2.47,2.402,2.77,3.125
				c0.735,1.751,0.146,3.1,1.47,4.618c0.964,0.707,0.907,1.323,2.629,0.971c0.895-0.18,2.165-0.851,2.165-1.708
				c0-1.181-0.367-2.534-0.367-3.503v-1.107l0.552,0c0.009,0.082,0.646,2.986,0.7,3.17c0.285,0.868,0.796,1.81,1.882,1.81
				l1.292-0.001c2.333,0.002,2.211-7.856,2.211-10.325v-0.739l0.286-2.2l-1.036,0.327c-2.643,0.03-3.992,0.12-5.467,1.372
				c-1.005,0.852-2.755,2.158-4.481,2.158h-1.289c-0.454,0.002-2.891-0.434-3.132-0.551l-0.335,0.405L135.17,109.192z"/>
			<path fill-rule="evenodd" clip-rule="evenodd" fill="#1C3F8B" d="M99.021,128.004c1.918,0.948,6.052-2.816,6.932-3.953
				c1.178-1.538,1.275-1.732,2.261-3.456c0.819-1.428,0.932-3.172,1.507-4.025l0.229-2.209l-0.046-1.295l-0.21-2.949l-1.312-2.186
				l-1.612-0.029c-1.244,0.601-4.521,1.07-5.162,2.031c0.815,1.54,2.212,3.756,2.21,6.084c0,1.897-0.988,2.068-2.061,2.917
				c-0.893,0.708-1.633,1.693-3.287,1.693l-1.106,0c-0.203,0.76-0.368,0.986-0.368,1.845
				C96.996,122.888,98.841,127.709,99.021,128.004"/>
			<path fill-rule="evenodd" clip-rule="evenodd" fill="#612678" d="M185.883,127.265c-0.597,0.382-1.106-0.077-1.106,0.74v0.184
				c0,1.399,0.738,2.139,0.74,4.424l0.395,0.533c-0.028,4.35,2.841,3.671,4.733,7.068c0.66,1.199,5.371,5.38,7.227,4.204
				c-1.228-1.067-3.135-2.744-3.135-4.981v-0.184c0-3.224,4.057-5.062,4.057-5.902c0-1.126-8.769-7.614-10.222-7.603l-2.134,1.517
				H185.883z"/>
			<path fill-rule="evenodd" clip-rule="evenodd" fill="#7C5E2E" d="M144.02,82.821l-0.92,0v0.372c0,1.366,0.369,1.214,0.369,2.026
				v0.553c0.001,0.754-0.369,0.794-0.369,2.213c-0.708,1.058-1.399,2.67-1.883,4.018c-0.382,1.07-1.922,2.298-2.831,3.073
				c-1.356,1.157-2.042,1.476-3.794,2.108c-0.956,0.341-4.121,0.339-4.219,1.498l0.743,1.475l0.366,0.187
				c0.261-0.132,0.304-0.187,0.735-0.187h0.739c2.167,0,4.61,0.416,6.733-0.641c0.788-0.392,2.115-0.909,2.638-1.422
				c1.068-1.049,0.352-0.974,1.993-2.062c1.636-1.092,2.933-2.418,4.036-4.08c0.967-1.463,2.076-4.172,1.567-6.363
				c-0.503-0.337-1.844-0.936-1.844-1.476c0-0.416,0.922-1.409,0.922-2.031c0-0.509-1.324-1.287-1.847-1.287
				c-0.637,0-1.369,2.396-2.211,2.398C144.345,83.19,144.804,83.029,144.02,82.821"/>
			<path fill-rule="evenodd" clip-rule="evenodd" fill="#DD0071" d="M202.664,144.969c0.109,0.404,0.691,1.292,1.106,1.292
				c1.075-0.001,2.746-1.842,5.164-1.842c2.267-1.52,6.641-1.216,6.641-4.981c-0.975-0.713-0.591-1.282-2.151-2.088
				c-0.784-0.403-1.823-1.138-2.604-1.64c-0.534-0.343-5.187-3.281-5.205-3.28c-1.196-0.001-1.948,1.456-2.495,2.303
				c-1.548,2.409-1.376,5.3-1.376,8.026C201.743,143.767,202.447,144.146,202.664,144.969"/>
			<path fill-rule="evenodd" clip-rule="evenodd" fill="#5C4892" d="M165.781,171.159c0.438-0.16,1.34-2.033,2.216-2.77
				c1.037-0.873,1.769-1.241,3.012-1.962c1.173-0.682,1.367-1.344,2.996-1.983c0.496-0.191,2.957-1.685,3.21-1.955
				c-0.893-1.333-1.175-0.849-2.024-2.767c-0.338-0.758-1.235-2.58-2.215-2.58c-0.539,0-6.028,2.809-6.534,3.244
				c-1.15,1.001-4.718,3.026-4.718,5.053v1.106L165.781,171.159z"/>
			<path fill-rule="evenodd" clip-rule="evenodd" fill="#B87E38" d="M92.753,106.428c0.624,0.541,1.476,1.208,1.476,2.396v1.476
				c0,3.927-2.231,6.02-4.797,7.375l-1.105-0.184l0.741,0.554c0,2.086,0.262,5.347,2.211,5.347l0.737,0.002
				c1.695-0.002,2.687-2.308,3.321-3.506c0.928-0.881,2.086-2.983,2.659-4.344c0.478-1.143,0.483-1.59,0.818-2.688
				c0.321-1.04,0.042-2.373,0.395-3.111c0-0.938,0.087-2.435-0.011-3.312c-0.049-0.429-0.16-0.725-0.305-0.954
				c-0.489-0.791-0.831-1.266-1.716-1.268c-1.866,0-2.354,1.631-3.504,2.407L92.753,106.428z"/>
			<path fill-rule="evenodd" clip-rule="evenodd" fill="#DD0071" d="M102.897,168.759c1.11,0.966,2.729,2.102,3.639,3.182
				c0.983,1.162,1.555,3.457,3.552,3.457h0.925c1.096-0.001,3.076-1.577,3.528-2.12l1.262-0.461l1.606,0.092l1.349-2.122
				l0.023-1.108c-1.382,0.003-2.616-0.695-3.829-1.172c-1.271-0.505-2.411-0.731-3.637-1.156c-1.297-0.45-2.839-0.525-3.875-1.106
				c-1.204-0.676-1.18-1.694-2.33-2.464c-0.484,1.01,0.101,2.397-1.475,2.397h-0.187c-0.574,0-1.104-0.481-1.104,0.368v0.185
				C102.344,167.751,102.709,167.965,102.897,168.759"/>
			<path fill-rule="evenodd" clip-rule="evenodd" fill="#239AD7" d="M106.034,161.383c-0.409,0.386-0.74,0.864-0.74,1.66
				c0,0.061,2.477,2.641,2.761,2.77c2.552,0.866,6.392,1.597,9.242,2.933c0.312,0.101,5.299,1.119,5.331,1.118
				c0.588,0,0.318-1.405,0.468-1.927c0.289-0.978,0.579-0.468,0.825-1.392l-2.95-0.92h-0.554c-1.416-0.947-3.101-1.96-4.979-2.398
				c-0.448-1.916,0.159-3.467-0.738-5.163c-0.726,0.385-2.768,0.988-2.768,1.843l0.002,0.737l-0.602,0.515l-3.653,0.516
				l-0.724,0.075C106.354,161.751,106.815,161.591,106.034,161.383"/>
			<path fill-rule="evenodd" clip-rule="evenodd" fill="#284F94" d="M160.986,152.531c0,1.034,1.21,1.831,0.781,2.258
				c-0.519,0.522-1.239-0.967-2.067-0.967c-0.755,0-2.033,0.802-2.033,1.475l0.001,0.923c-0.001,0.777,3.59,7.191,3.872,7.191
				c0.226,0,3.706-3.197,4.289-3.644c0.708-0.549,5.119-2.218,5.119-2.809c0-1.245-7.549-6.271-8.298-6.271
				C161.865,150.688,160.986,151.693,160.986,152.531"/>
			<path fill-rule="evenodd" clip-rule="evenodd" fill="#5B2C19" d="M87.828,117.324l1.107,0.186
				c2.563-1.358,4.795-3.449,4.795-7.377v-1.473c0-1.19-0.851-1.856-1.479-2.399l-1.288-0.184c-3.531-0.748-6.822,3.108-6.824,5.349
				l0.002,1.661C84.14,114.632,86.342,116.98,87.828,117.324"/>
			<path fill-rule="evenodd" clip-rule="evenodd" fill="#008C39" d="M130.007,75.076v1.661c0,1.229,3.593,1.106,4.978,1.104h1.292
				c1.598,0.001,6.271-1.692,6.273-2.765c-0.002-2.838-2.546-4.027-4.247-5.165c-2.056,0-1.719-0.735-2.396-0.735h-0.736
				c-1.109,0-2.596,1.478-3.434,2.099C130.908,71.89,130.007,73.707,130.007,75.076"/>
			<path fill-rule="evenodd" clip-rule="evenodd" fill="#7D5E2E" d="M178.138,185.352c-0.053-2.43,0.581-3.173,2.071-4.751
				c0.825-0.868,2.981-2.436,4.569-2.438c1.066,0,1.668,0.005,2.766,0.37c0.72-0.531,2.212-2.594,2.212-3.871v-0.188
				c0-0.672-0.508-1.475-1.107-1.474h-1.104c-2.619,0-7.321,2.364-8.719,3.637c-1.105,1.015-5.111,5.645-5.114,7.243
				c0,2.156,0.913,2.026,2.767,2.026C177.215,185.907,177.395,185.528,178.138,185.352"/>
			<path fill-rule="evenodd" clip-rule="evenodd" fill="#951D75" d="M95.704,163.78h2.214c0.761,0,1.845-0.724,1.844-1.477
				c0.001-2.557-3.985-9.956-5.901-9.956l-0.37,0.001c-0.654-0.001-2.027,2.028-2.412,2.562c-0.837,1.147-0.783,2.356-0.496,4.035
				c0.276,1.607,0.908,2.094,1.937,3.038C92.864,162.298,95.322,163.782,95.704,163.78"/>
			<path fill-rule="evenodd" clip-rule="evenodd" fill="#DD0071" d="M105.295,150.688l1.474,0.553
				c1.631,0.136,5.167,3.057,5.53,4.427l1.659-0.228c0.159-0.53,0.472-1.987,1.111-1.987l0.187-0.002
				c0.748,0.002,0.856,0.775,1.106,1.294l-1.381,1.229l-0.096,0.799c0,0.636-0.136,0.714-0.185,1.291
				c0.898,1.696,0.29,3.247,0.738,5.163c1.878,0.438,3.564,1.451,4.978,2.398h0.554l-0.185-2.213h-2.396
				c-0.222-0.336-0.368-0.324-0.368-0.739c0-2.93,1.291-2.637,1.291-5.348c0-1.671-0.518-3.312-1.317-4.219
				c-1.185-1.346-2.24-1.038-3.479-1.866c-1.865,0.002-2.042-1.105-4.793-1.107c-0.401-0.267-0.616-0.554-1.293-0.554H106.4
				C105.827,149.58,105.562,150.284,105.295,150.688"/>
			<path fill-rule="evenodd" clip-rule="evenodd" fill="#F7CCBD" d="M142.704,79.298c-1.409,0.476-2.317,1.316-4.725,1.724
				c-1.96,0.334-4.04,0.326-6.39,0.325l0.117,0.722c0.884,1.602,1.439,2.346,2.896,3.459c0.472,0.255,0.94,0.51,1.407,0.765
				c1.544,0.441,2.708,0.422,3.815-0.13c0.578-0.288,1.139-0.723,1.736-1.317c1.093-1.823,1.208-2.949,1.207-5.068L142.704,79.298z"
				/>
			<path fill="#F7CCBD" d="M180.904,98.682c0,0.424-1.134,1.106-1.66,1.107c-0.425-0.001-0.214-0.065-0.826-0.251l-0.836,1.355
				c0,2.259-0.17,2.834,0.53,4.454c0.42,0.979,1.712,2.185,2.978,2.185l1.843-0.001c1.968,0.001,1.582-0.349,2.397-1.288v-0.556
				c0.448-0.298,1.094-1.291,1.66-1.291h0.184c0.133,0,0.227,0.026,0.309,0.073v-0.005
				C187.62,104.328,180.904,98.682,180.904,98.682"/>
			<path fill-rule="evenodd" clip-rule="evenodd" fill="#BE1074" d="M102.156,164.888c0.365,0.19,0.548,0.367,1.107,0.368
				l0.185-0.001c0.414,0,0.406-0.146,0.74-0.368c0-2.84-1.636-6.986-2.614-9.004c-1.443-2.968-3.29-4.606-4.58-7.039
				c-2.611-3.9-2.764-2.218-2.764,2.211v0.371c0,0.249,1.914,1.796,2.211,2.212c0.737,1.012,1.158,1.569,1.884,2.728
				c1.236,1.974,1.989,4.109,2.027,7.18L102.156,164.888z"/>
			<path fill-rule="evenodd" clip-rule="evenodd" fill="#2C2D76" d="M131.294,184.249c0.551,1.04,1.625,2.58,3.136,2.583
				l0.185-0.003c0.888,0,2.146-0.551,3.321-0.551c1.358-0.001,3.423,0.31,4.484,0.679c0.688,0.233,3.409,1.721,3.448,1.719
				l1.288,0.002c0.75-0.002,2.949-1.086,2.951-1.661c-0.001-1.339-8.234-4.058-9.959-4.057l-5.163-0.001
				C134.027,182.958,131.815,183.474,131.294,184.249"/>
			<path fill-rule="evenodd" clip-rule="evenodd" fill="#B87E38" d="M126.502,133.536l2.027-0.185
				c0.765-0.511,1.293-0.742,1.293-2.03c0-0.46-0.266-1.21-0.369-1.656c-1.249-0.106-6.442-3.32-7.194-3.322
				c-1.635,0-4.143,3.922-4.515,5.83c-0.314,1.59,2.312,0.996,3.964,0.996c0.857,0,1.719,0.001,2.581-0.002
				C125.123,133.163,126.465,133.542,126.502,133.536"/>
			<path fill-rule="evenodd" clip-rule="evenodd" fill="#ED8100" d="M192.337,125.239l-1.08,0.701l3.074,2.428l-0.151,0.188
				c1.521,0.034,5.307,4.613,6.27,4.612h1.659c0.43,0,0.559-0.127,0.559-0.556v-0.554c3.502-1.138-0.431-6.764-2.762-6.829
				C197.183,125.204,194.835,125.239,192.337,125.239"/>
			<path fill-rule="evenodd" clip-rule="evenodd" fill="#B87E38" d="M122.446,125.053v0.186c-0.001,0.706,6.891,3.873,8.297,3.874
				c1.153,0.001,1.845-1.024,1.845-2.216v-0.369c0-1.042-5.064-5.715-6.053-6.487c-1.633-1.277-2.437-3.392-2.423,0.221
				C124.114,122.662,122.446,124.828,122.446,125.053"/>
			<path fill-rule="evenodd" clip-rule="evenodd" fill="#5C4892" d="M134.984,187.201v3.687c0,2.99,2.107,2.4,4.427,2.4
				c1.884-0.002,2.947,1.038,4.108-0.319c1.303-1.519,1.118-1.585,1.979-3.373c-1.346-2.004-4.997-2.579-8.301-2.579l-0.921,0.001
				C135.644,187.016,135.556,187.139,134.984,187.201"/>
			<path fill-rule="evenodd" clip-rule="evenodd" fill="#ED8100" d="M182.197,130.771l0.921,0.554c0,1.425,1.038,5.07,1.703,5.856
				c1.349,1.598,2.448,1.909,3.794,3.951c1.169,1.775,1.761,2.96,3.753,3.996c0.932,0.481,1.488,1.024,2.74,1.128
				c1.041,0.087,2.536,0.271,2.763,1.111L198.24,147l0.9-2.148l-1.269-0.434c-1.855,1.177-6.567-3.004-7.227-4.203
				c-1.893-3.395-4.762-2.72-4.733-7.069l-0.394-0.53c-0.002-2.287-0.74-3.026-0.74-4.426v-0.184c0-0.816,0.508-0.356,1.105-0.739
				l-1.134-0.019L182.197,130.771z"/>
			<path fill-rule="evenodd" clip-rule="evenodd" fill="#F7CCBD" d="M135.906,180.376l0.041,1.411l0.7,0.431
				c1.611,0.002,2.91,0.037,4.41,0.199c0.954,0.104,3.698,1.094,3.701,1.094h0.185c0.78,0,0.098-0.255,0.921-0.553v-2.212
				c0-0.37-1.353-2.788-1.612-3.181c-0.581-0.867-1.812-1.615-3.181-1.615C139.662,175.952,135.906,178.752,135.906,180.376"/>
			<path d="M173.344,97.943l-0.369,0.186v0.369l-0.459,0.012l-0.278,2.384c-1.734,1.162-1.018,0.241-2.216,2.029l0.003,2.03
				l-2.213,1.107c0.013,0.66,0.069,1.659,0.736,1.659h0.184c0.675-0.002,0.757-0.769,1.108-1.292l1.438-0.038l0.406-0.332
				c0-3.719-0.109-1.517,1.898-2.982l0.689-2.203l2.783,0.418l0.528-0.395l0.836-1.357c0.612,0.185,0.401,0.25,0.826,0.25
				c0.526,0,1.66-0.68,1.66-1.106c0-0.543-1.861-2.38-2.216-3.875c-0.414-0.095-0.42-0.183-0.918-0.183h-0.188
				c-1.585,0-1.893,1.927-2.598,2.862L173.344,97.943z"/>
			<path fill="#FFFFFF" d="M168.731,107.938h-0.184c-0.465,0-0.727-0.378-0.822-0.739c-0.111-0.372-0.128-0.799-0.136-1.136
				c0-0.083,0.047-0.166,0.122-0.202l2.094-1.044v-1.896l0.038-0.12c0.598-0.888,0.704-1.108,0.955-1.302
				c0.238-0.168,0.442-0.206,1.231-0.729l0.275-2.284c0.009-0.108,0.099-0.192,0.206-0.195l0.246-0.007l0.002-0.153
				c-0.002-0.086,0.044-0.16,0.121-0.195l0.364-0.188l0.041-0.01l1.569-0.439c0.302-0.432,0.555-1.109,0.913-1.707
				c0.369-0.618,0.923-1.188,1.82-1.185l0.186,0.002c0.531-0.003,0.611,0.106,0.971,0.188c0.079,0.02,0.144,0.084,0.16,0.163
				c0.162,0.685,0.699,1.509,1.205,2.216c0.506,0.735,0.981,1.251,1.017,1.708c-0.034,0.396-0.367,0.646-0.734,0.897
				c-0.374,0.235-0.795,0.421-1.146,0.43c-0.206,0.002-0.341-0.024-0.439-0.082c-0.071-0.033-0.124-0.069-0.289-0.125l-0.744,1.205
				l-0.056,0.062l-0.53,0.397c-0.049,0.034-0.104,0.047-0.162,0.04l-2.599-0.392l-0.632,2.025c-0.018,0.045-0.042,0.085-0.081,0.112
				c-0.54,0.394-0.953,0.543-1.259,0.604c-0.287,0.047-0.472,0.047-0.486,0.063h0.003c-0.009,0.01-0.018,0.042-0.027,0.1
				c-0.031,0.164-0.043,0.506-0.043,1.099c0,0.263,0.004,0.57,0.004,0.94c0,0.064-0.032,0.126-0.078,0.169l-0.407,0.333
				c-0.037,0.031-0.087,0.049-0.135,0.049l-1.319,0.035c-0.125,0.217-0.227,0.486-0.365,0.734c-0.155,0.277-0.427,0.558-0.855,0.558
				C168.742,107.937,168.735,107.937,168.731,107.938 M168.147,107.073c0.097,0.304,0.201,0.421,0.4,0.425l0.184-0.001
				c0.244-0.003,0.343-0.104,0.484-0.34c0.137-0.225,0.245-0.555,0.441-0.851c0.041-0.059,0.107-0.096,0.178-0.096l1.364-0.039
				l0.268-0.218v-0.834c-0.002-0.598,0.001-0.938,0.045-1.177c0.017-0.231,0.214-0.442,0.4-0.456
				c0.312-0.059,0.641,0.04,1.483-0.545l0.666-2.132c0.029-0.104,0.133-0.166,0.239-0.153l2.698,0.404l0.423-0.315l0.807-1.319
				c0.058-0.084,0.157-0.123,0.251-0.095c0.318,0.094,0.454,0.173,0.519,0.209c0.058,0.022,0.036,0.027,0.245,0.029
				c0.183,0.007,0.591-0.145,0.913-0.357c0.334-0.198,0.553-0.493,0.527-0.528c0.042-0.087-0.42-0.76-0.929-1.452
				c-0.489-0.683-1.026-1.473-1.243-2.242c-0.331-0.093-0.326-0.144-0.74-0.147l-0.188,0.003c-0.694,0.002-1.087,0.399-1.445,0.975
				c-0.348,0.57-0.599,1.286-0.976,1.799c-0.033,0.036-0.075,0.066-0.12,0.08l-1.624,0.452l-0.227,0.115v0.232
				c0,0.12-0.092,0.217-0.21,0.219l-0.269,0.011l-0.261,2.193c-0.004,0.064-0.042,0.12-0.095,0.157
				c-0.869,0.583-1.167,0.671-1.296,0.773c-0.124,0.083-0.25,0.288-0.819,1.137l0.003,1.968c0,0.081-0.048,0.158-0.122,0.195
				l-2.089,1.041C168.043,106.489,168.069,106.823,168.147,107.073"/>
			<path d="M185.33,106.244l-0.184,1.291h-0.551v1.106c0,0.607-0.454,1.067-0.74,1.659l-0.082-0.169l-1.944,0.907
				c-0.284,3.382-4.798,0.747-4.798,4.24c0,0.6,0.164,0.14,0.372,0.925l0.921-0.001c0.438-1.207,1.329-1.371,2.959-1.471
				c1.479-0.086,1.904-2.032,2.572-1.983l1.479-0.049l0.363,0.002c0.784,0,0.101,0.252,0.926,0.553v-0.925
				c0.269-1.155,0.718-2.568,1.816-2.977c1.146-0.427,2.207-0.962,2.239-2.556c-0.667-0.446-1.081-0.775-1.87-1.076
				c-1.245-0.474-0.865-1.323-1.634-1.321h-0.184c-0.566,0-1.212,0.992-1.66,1.29V106.244z"/>
			<path fill="#FFFFFF" d="M177.399,116.419c-0.098,0-0.186-0.067-0.209-0.161c-0.11-0.381-0.152-0.375-0.198-0.421
				c-0.099-0.066-0.202-0.271-0.178-0.559c-0.009-0.915,0.31-1.504,0.798-1.841c0.489-0.333,1.09-0.434,1.675-0.537
				c1.192-0.226,2.18-0.336,2.32-1.879c0.006-0.08,0.052-0.146,0.126-0.18l1.947-0.908c0.041-0.022,0.088-0.026,0.133-0.016
				c0.279-0.49,0.567-0.866,0.558-1.276v-1.106c0-0.059,0.025-0.116,0.064-0.156c0.042-0.044,0.096-0.064,0.158-0.064l0.361,0
				l0.156-1.082v-0.544c0-0.073,0.033-0.142,0.096-0.18c0.178-0.118,0.46-0.438,0.754-0.731c0.3-0.288,0.614-0.585,1.027-0.598
				l0.186,0.001c0.489-0.017,0.699,0.344,0.827,0.59c0.157,0.258,0.311,0.518,0.881,0.742c0.817,0.313,1.259,0.659,1.916,1.101
				c0.063,0.042,0.099,0.113,0.099,0.188c-0.032,1.715-1.235,2.343-2.385,2.755c-0.95,0.333-1.414,1.654-1.674,2.798v0.894
				c0,0.072-0.032,0.139-0.091,0.18c-0.06,0.041-0.132,0.053-0.202,0.028c-0.443-0.124-0.588-0.423-0.615-0.524
				c-0.036-0.009-0.11-0.016-0.235-0.016h-0.356l-1.476,0.051l-0.033-0.002h-0.004c-0.104-0.048-0.432,0.359-0.795,0.875
				c-0.382,0.492-0.906,1.061-1.738,1.11c-1.646,0.116-2.362,0.239-2.765,1.326c-0.033,0.085-0.113,0.143-0.206,0.144H177.399z
				 M178.17,115.982c0.499-1.198,1.548-1.386,3.094-1.467c0.626-0.037,1.053-0.468,1.417-0.941c0.38-0.455,0.599-0.995,1.145-1.046
				c0.008,0,0.02,0,0.037,0.001l1.469-0.05l0.363,0.001c0.212-0.001,0.334,0.006,0.46,0.067c0.132,0.056,0.189,0.208,0.199,0.253
				c0.019,0.04,0.007,0.059,0.051,0.096v-0.569l0.004-0.049c0.278-1.161,0.71-2.654,1.953-3.132
				c1.113-0.429,2.006-0.858,2.092-2.238c-0.619-0.417-1.006-0.71-1.727-0.985c-0.672-0.248-0.95-0.65-1.107-0.934
				c-0.185-0.295-0.166-0.358-0.447-0.373h-0.184c-0.151-0.011-0.446,0.19-0.72,0.471c-0.249,0.246-0.486,0.524-0.721,0.712
				l0.002,0.445l-0.002,0.029l-0.186,1.292c-0.017,0.108-0.107,0.188-0.218,0.188h-0.333v0.887
				c-0.013,0.728-0.504,1.203-0.759,1.755c-0.036,0.074-0.112,0.122-0.197,0.122c-0.074,0-0.145-0.036-0.187-0.097l-1.631,0.766
				c-0.141,1.263-0.955,1.773-1.794,1.972c-0.872,0.221-1.825,0.246-2.379,0.641c-0.364,0.26-0.608,0.651-0.616,1.481
				c-0.002,0.133,0.013,0.194,0.017,0.214c0.004,0.002,0.005,0.006,0.015,0.014c0.076,0.057,0.188,0.188,0.285,0.477H178.17z"/>
			<path fill-rule="evenodd" clip-rule="evenodd" fill="#7C5E2E" d="M173.344,97.943l-0.369,0.186v0.369l-0.459,0.012l-0.278,2.384
				c-1.734,1.162-1.018,0.241-2.216,2.029l0.003,2.03l-2.213,1.107c0.013,0.66,0.069,1.659,0.736,1.659h0.184
				c0.675-0.002,0.757-0.769,1.108-1.292l1.438-0.038l0.406-0.332c0-3.719-0.109-1.517,1.898-2.982l0.689-2.203l2.783,0.418
				l0.528-0.395l0.836-1.357c0.612,0.185,0.401,0.25,0.826,0.25c0.526,0,1.66-0.68,1.66-1.106c0-0.543-1.861-2.38-2.216-3.875
				c-0.414-0.095-0.42-0.183-0.918-0.183h-0.188c-1.585,0-1.893,1.927-2.598,2.862L173.344,97.943z"/>
			<path fill-rule="evenodd" clip-rule="evenodd" fill="#7C5E2E" d="M185.33,106.244l-0.184,1.291h-0.551v1.106
				c0,0.607-0.454,1.067-0.74,1.659l-0.082-0.169l-1.944,0.907c-0.284,3.382-4.798,0.747-4.798,4.24c0,0.6,0.164,0.14,0.372,0.925
				l0.921-0.001c0.438-1.207,1.329-1.371,2.959-1.471c1.479-0.086,1.904-2.032,2.572-1.983l1.479-0.049l0.363,0.002
				c0.784,0,0.101,0.252,0.926,0.553v-0.925c0.269-1.155,0.718-2.568,1.816-2.977c1.146-0.427,2.207-0.962,2.239-2.556
				c-0.667-0.446-1.081-0.775-1.87-1.076c-1.245-0.474-0.865-1.323-1.634-1.321h-0.184c-0.566,0-1.212,0.992-1.66,1.29V106.244z"/>
			<path fill-rule="evenodd" clip-rule="evenodd" fill="#115025" d="M131.114,81.347c2.546,0,4.773,0.034,6.864-0.323
				c2.723-0.465,3.529-1.478,5.305-1.89l2.343-2.065l-0.134-0.15c-0.361-0.54-1.175-1.103-2.026-1.104h-0.368
				c-0.074,0-4.163,2.766-6.638,2.766h-3.687c-1.184,0-1.406-0.369-2.585-0.369c-0.852,0-2.027,1.053-2.027,1.845
				C128.163,80.73,130.171,81.347,131.114,81.347"/>
			<path fill-rule="evenodd" clip-rule="evenodd" fill="#A87A3A" d="M178.539,185.235l2.917,2.149l0.001-1.107
				c0.921-1.373,0.499-0.953,1.674-2.198c0.929-0.981,1.104-1.065,1.646-2.041c0.076-0.04,0.718-0.37,0.74-0.37
				c0.701,0,0.063-0.056,0.53,0.101l2.234-0.468l-0.694-2.463c-0.96-0.166-1.444-0.471-2.506-0.471c-1.59,0-3.748,1.567-4.569,2.438
				C179.02,182.379,178.487,182.801,178.539,185.235"/>
			<path fill-rule="evenodd" clip-rule="evenodd" fill="#F7CCBD" d="M195.472,138.702v0.736c0,1.719,2.848,4.979,4.611,4.981
				l0.553-0.002c0.426,0,0.553-0.129,0.555-0.554c-0.002-0.763-0.176-1.248-0.33-1.726c-0.552-1.726,0.164-3.606,0.65-5.266
				c0.215-0.737,0.416-1.44,0.416-2.046v-0.185c0-0.424-0.13-0.553-0.552-0.553h-0.739c-1.006,0-2.531,1.114-3.173,1.623
				C196.883,136.174,195.472,137.746,195.472,138.702"/>
			<path fill-rule="evenodd" clip-rule="evenodd" fill="#47488F" d="M167.629,141.098c-0.071,1.094,0.265,1.487,0.811,1.814
				c2.163,1.297,6.151,2.792,8.59,2.795h0.925c-0.279-1.181-0.986-1.775-1.596-3.013c-0.412-0.843-0.764-3.258-1.355-3.258h-5.716
				C168.368,139.437,167.629,140.338,167.629,141.098"/>
			<path fill-rule="evenodd" clip-rule="evenodd" fill="#7D5E2E" d="M163.755,133.904v0.185c-0.002,2.236,2.914,3.36,2.949,4.979
				c-1.217,0.285-3.875,3.083-3.872,4.427l-0.003,0.37c0,0.86,0.43,1.289,1.293,1.289l0.369,0.001c1.136,0,3.504-0.74,3.504-1.661
				c0-0.734-0.925-0.654-0.925-1.843v-0.738c0.001-1.196,1.476-2.003,1.476-2.213c0-0.454-0.736-1.479-0.736-1.659
				c0-1.26,0.736-2.06,0.736-2.398v-0.182c0-0.762-2.308-1.846-3.132-1.846h-0.74C164.075,132.613,163.755,133.284,163.755,133.904"
				/>
			<path fill-rule="evenodd" clip-rule="evenodd" fill="#F7CCBD" d="M95.335,119.89c0.625-0.026,1.249-0.055,1.875-0.081
				c2.194-0.098,2.38-0.363,4.198-1.452c0.945-0.568,1.857-1.215,1.857-2.34c0-0.851-0.908-3.177-1.234-3.93
				c-0.555-1.29-1.453-1.974-2.822-2.341c-0.352,0.738-0.074,2.071-0.396,3.111c-0.333,1.098-0.338,1.546-0.817,2.686
				C97.424,116.905,96.265,119.006,95.335,119.89"/>
			<path fill-rule="evenodd" clip-rule="evenodd" fill="#F7CCBD" d="M103.08,157.694c0.066-0.276,0.042-0.552,0.369-0.552
				c1.095,0,1.926,1.106,2.399,1.106c0.52,0,0.34-0.079,0.553-0.37l-0.359-0.212c-0.007-1.274,0.544-1.793,0.544-2.554v-0.552
				c0-0.695-0.368-0.958-0.368-2.398c-0.855-0.572-2.006-1.658-3.323-1.659l-0.367-0.555l-0.739-0.554
				c-0.968,0.004-2.395,0.493-2.395,1.293c0,0.692,1.465,2.208,1.897,3.446C101.31,154.186,103.054,157.651,103.08,157.694"/>
			<path fill-rule="evenodd" clip-rule="evenodd" fill="#F7CCBD" d="M174.267,174.477c-0.002,1.613-0.413,3.852,1.109,4.793
				c0.405-0.301,1.131-1.317,1.523-1.793c0.564-0.692,1.132-1.093,1.863-1.638c0.984-0.738,3.901-1.99,3.965-2.982l-2.379-1.3
				l-3.134-0.216C175.927,171.235,174.267,173.282,174.267,174.477"/>
			<path fill-rule="evenodd" clip-rule="evenodd" fill="#47488F" d="M172.563,133.75c-1.557,0.155-4.015,1.08-4.015,2.369v0.739
				c0,0.927,0.919,1.845,1.846,1.845l4.241-0.002c0.497,0.002,0.507-0.086,0.921-0.185c0.016-0.799,0.377-2.748,0.625-3.433
				c0.356-0.983,1.418-1.836,1.59-2.468l-0.051-0.194L172.563,133.75z"/>
			<path fill-rule="evenodd" clip-rule="evenodd" fill="#951D75" d="M186.067,92.595c0.062,0.764,2.319,3.198,2.879,3.947
				c0.769,1.03,2.368,3.062,3.945,3.062h0.186c0.572,0.001,1.287-1.581,1.287-2.213l0.001-0.554
				c-0.001-1.538-3.426-4.979-5.161-4.979C187.422,91.858,187.23,92.325,186.067,92.595"/>
			<path fill-rule="evenodd" clip-rule="evenodd" fill="#02A0D2" d="M137.749,162.304c0.335,0.225,0.325,0.369,0.74,0.372
				l1.473-0.003c1.178,0.003,1.404-0.368,2.584-0.369l0.186-0.001c0.562,0.001,0.672,0.088,1.105,0.186
				c0.287-0.19,0.552-0.243,0.552-0.737v-4.978c-1.222-0.286-1.563-1.107-2.949-1.106h-1.478c-0.09,0.825-0.489,0.518-0.554,1.655
				c-0.058,0.951,0.068,1.185-0.25,1.963C138.661,160.501,138.055,161.009,137.749,162.304"/>
			<path fill-rule="evenodd" clip-rule="evenodd" fill="#02A0D2" d="M144.944,162.489c0.584,0.31,4.69,2.398,4.98,2.398h0.368
				c0.918,0,0.183-3.461,0.183-4.611c0.004-2.096,0-3.503-2.026-3.503h-0.923C145.801,156.773,145.106,161.078,144.944,162.489"/>
			<path fill-rule="evenodd" clip-rule="evenodd" fill="#F7CCBD" d="M121.89,102.555l0.044,2.005l1.077,2.2l0.52,0.188l2.504-1.6
				l-0.203,0.827c0.499,0.492,1.133-0.562,1.041-2.331v-1.476l0.125-0.389c-0.301-0.28-0.166-0.787-1.044-1.274
				c-0.488-0.269-1.195-0.369-1.807-0.57c-0.145-0.049-0.281-0.102-0.41-0.162l0.005-0.004l-0.463-0.186
				c-0.029,0.135-0.059,0.263-0.089,0.382C122.86,101.423,122.008,101.173,121.89,102.555"/>
			<path fill-rule="evenodd" clip-rule="evenodd" fill="#F8C500" d="M165.781,171.159c0.484,0.909,0.965,2.158,1.475,2.211
				c0.699-2.609,2.875-3.892,4.94-5.204c1.442-0.916,5.328-2.974,6.312-3.834l-1.293-1.843c-0.254,0.271-2.715,1.764-3.21,1.955
				c-1.628,0.64-1.823,1.302-2.996,1.983c-1.244,0.721-1.976,1.089-3.012,1.962C167.121,169.125,166.219,170.999,165.781,171.159"/>
			<path fill-rule="evenodd" clip-rule="evenodd" fill="#F7CCBD" d="M106.769,137.226l0.554,4.794
				c0.461,0.687,0.877,1.107,2.025,1.107h0.373c1.314,0,1.841-0.528,1.842-1.848v-0.918c0-1.215-0.922-0.96-0.944-3.662
				l-0.531-0.397C108.157,136.463,108.049,136.762,106.769,137.226"/>
			<path fill-rule="evenodd" clip-rule="evenodd" fill="#7D5E2E" d="M181.456,187.384c1.288,1.117,3.656-0.686,4.316-1.582
				c1.358-1.849,1.642-1.186,2.886-3.771l-0.376-0.731l-2.234,0.468c-0.467-0.156,0.17-0.101-0.53-0.101
				c-0.021,0-0.664,0.33-0.74,0.37c-0.542,0.976-0.717,1.06-1.646,2.041c-1.176,1.245-0.753,0.825-1.675,2.198L181.456,187.384z"/>
			<path fill-rule="evenodd" clip-rule="evenodd" fill="#F7CCBD" d="M124.29,146.076c0.377,1.467,1.866,3.169,1.663,4.082
				c1.642-0.206,1.593-0.572,2.941-1.288c1.009-0.533,2.222-1.01,2.222-1.686c0-0.717-0.25-1.845-0.926-1.845h-0.553
				C129.13,145.338,124.29,145.756,124.29,146.076"/>
			<path fill-rule="evenodd" clip-rule="evenodd" fill="#239AD7" d="M107.137,157.14l0.565-0.012l0.727,0.565
				c0.248-0.119,2.133-0.735,2.213-0.735h0.185c0.414,0,0.404,0.143,0.686,0.327l1.148-1.408l-0.361-0.21
				c-0.363-1.369-3.899-4.291-5.53-4.427l-0.357,0.212C106.428,152.625,108.007,155.342,107.137,157.14"/>
			<path fill-rule="evenodd" clip-rule="evenodd" fill="#F7CCBD" d="M126.873,151.426c0.452,0.124,2.334,3.451,2.581,4.057
				c0.405-1.525,2.302-2.156,3.174-3.534C135.561,147.346,126.479,150.107,126.873,151.426"/>
			<path fill-rule="evenodd" clip-rule="evenodd" fill="#7D5E2E" d="M139.78,119.704c-0.496,0.366-0.737,0.989-0.737,1.843v1.477
				c0.002,0.93,0.917,1.847,1.844,1.844c0.554,0.001,2.09-1.35,2.468-1.77c1.169-1.301,0.745-1.796,1.406-2.838v-1.292
				c-1.206,0.027-1.287,1.106-2.952,1.106h-0.369C140.645,120.074,140.438,119.859,139.78,119.704"/>
			<path fill-rule="evenodd" clip-rule="evenodd" fill="#7D5E2E" d="M146.049,119.521c0.784,0.901,0.227,1.101,1.724,1.965
				c0.599,0.349,0.584,0.588,1.074,0.771c0.79,0.29,0.995-0.075,1.259,0.583l0.923,0c0.835,0,1.348-1.367,1.192-2.283
				c-0.286-1.717-0.454-1.596-1.192-2.696c-0.331-0.223-0.325-0.369-0.736-0.371c-0.12,0.002-1.277,1.292-2.398,1.294h-0.553
				c-0.634,0-0.714-0.136-1.292-0.186V119.521z"/>
			<path fill-rule="evenodd" clip-rule="evenodd" fill="#7D5E2E" d="M128.53,134.458c0,1.358,1.628,3.136,2.952,3.136
				c2.643,0,0.795-7.008-0.366-7.008c-0.597,0-0.72,1.373-1.034,2.107C129.653,133.715,128.53,134.08,128.53,134.458"/>
			<path fill-rule="evenodd" clip-rule="evenodd" fill="#7D5E2E" d="M132.956,125.239c0.023,1.036,0.369,1.025,0.369,2.026
				c0.001,1.539-1.526,1.545-1.659,2.768l1.474-0.001c0.973,0.003,3.971-1.912,4.524-3.421c0.304-0.835,0.035-1.118-0.666-1.536
				c-0.337-0.197-0.684-0.389-1.461-0.39l-0.181,0.001C134.112,124.686,133.844,125.032,132.956,125.239"/>
			<path fill-rule="evenodd" clip-rule="evenodd" fill="#F7CCBD" d="M123.549,169.311l0.185,0.922
				c0.033,0.198,0.453,0.484,0.951,0.691c4.154,1.711,4.552-2.418,1.926-4.28l-1.402-0.099
				C124.157,166.545,123.576,168.167,123.549,169.311"/>
			<path fill-rule="evenodd" clip-rule="evenodd" fill="#F7CCBD" d="M185.701,158.43l1.105-1.29
				c0.094-0.412,0.183-0.423,0.183-0.922v-1.656c-0.858-0.231-0.602-0.739-1.657-0.739h-0.37c-1.6-0.002-2.396,0.411-2.397,2.027
				v0.736C182.565,158.113,184.148,158.433,185.701,158.43"/>
			<path fill-rule="evenodd" clip-rule="evenodd" fill="#BE1074" d="M129.638,142.204l-0.185,1.844
				c0.724,1.081,2.166,0.269,2.211,2.397h0.739c0.071-0.854,0.55-1.019,0.55-2.397l0.002-2.581
				c-0.002-0.951-0.361-2.029-1.291-2.028C130.624,139.437,130.336,141.923,129.638,142.204"/>
			<path fill-rule="evenodd" clip-rule="evenodd" fill="#9D1A16" d="M146.604,155.85c0,0.58,0.663,0.185,1.104,0.185h0.556
				c1.334,0,1.642,0.738,2.581,0.738h0.185c1.42-0.002,1.771-1.103,2.215-2.027c-0.379-0.714-0.981-1.293-2.03-1.293h-0.554
				C149.025,153.451,146.604,154.436,146.604,155.85"/>
			<path fill-rule="evenodd" clip-rule="evenodd" fill="#9D1A16" d="M138.857,152.347v0.554c0,0.759,0.599,1.871,1.106,2.212
				c0.435-0.101,0.548-0.185,1.11-0.185h0.181c1.674,0.001,2.804,1.106,2.953,1.106c0.423,0,0.551-0.127,0.554-0.553v-0.369
				c-0.002-1.402-3.298-3.504-4.798-3.503C139.4,151.609,138.857,151.78,138.857,152.347"/>
			<path fill-rule="evenodd" clip-rule="evenodd" fill="#F7CCBD" d="M155.086,173.37l-0.002,1.661
				c0.002,0.586,0.941,1.287,1.664,1.287h1.103c0.893,0.002,1.479-0.583,1.479-1.473v-1.476c0-0.51-0.914-1.106-1.293-1.108
				l-0.921,0.002C155.868,172.261,156.102,173.098,155.086,173.37"/>
			<path fill-rule="evenodd" clip-rule="evenodd" fill="#F7CCBD" d="M183.301,124.686v0.922c0.791,0.285,0.51,0.72,1.353,0.862
				c0.118,0.022,1.585-0.124,2.153-0.125c0.313-0.21,0.738-0.403,0.736-0.924l0.001-1.477c0-0.72-0.278-0.018-0.369-1.105
				C185.443,122.696,183.301,122.458,183.301,124.686"/>
			<path fill-rule="evenodd" clip-rule="evenodd" fill="#7D5E2E" d="M164.307,128.005l-0.22-0.54
				c-1.043-0.105-1.939-1.059-2.363-1.86l-0.551,0.002c-0.151,0.644-0.369,0.619-0.369,1.292v2.582
				c0.73,0.297,0.451,1.66,1.475,1.66l0.37,0C163.55,131.14,164.286,129.004,164.307,128.005"/>
			<path fill-rule="evenodd" clip-rule="evenodd" fill="#7D5E2E" d="M154.534,121.918c-0.19,0.138-0.555,0.454-0.555,0.738
				c0,0.902,1.519,1.844,2.398,1.844l0.935,0.073l2.385-0.442l-0.001-0.74c-1.77-0.471-1.195-2.026-2.209-2.026h-1.293
				C156.181,121.366,154.881,121.837,154.534,121.918"/>
			<path fill-rule="evenodd" clip-rule="evenodd" fill="#955718" d="M160.064,150.319v1.107c1.578-0.038,0.32-1.291,3.135-1.291
				l0.74-0.371v-1.105c0-0.887-0.506-2.029-1.29-2.029C161.13,146.629,160.064,148.741,160.064,150.319"/>
			<path fill-rule="evenodd" clip-rule="evenodd" fill="#BE1074" d="M134.25,151.426l1.841-0.001
				c0.619-0.299,2.032-0.248,2.032-1.29c0-0.861-2.508-1.847-3.32-1.845l-2.186,0.093
				C133.84,149.479,134.304,150.076,134.25,151.426"/>
			<path fill-rule="evenodd" clip-rule="evenodd" fill="#955718" d="M153.979,153.638c0.853,1.612,0.692,1.218,2.578,1.648
				l0.559-0.174c0.081-0.972,1.138-1.817,2.211-1.846c-0.065-0.792-0.672-1.104-1.476-1.104h-1.841
				C154.926,152.163,154.36,152.923,153.979,153.638"/>
			<path fill-rule="evenodd" clip-rule="evenodd" fill="#B4B1AF" d="M145.705,77.41l-1.768,1.448l5.109,2.494l0.532,0.333
				l2.646,1.637l2.856,2.054c-1.896-2.459-3.447-4.273-5.682-5.895C148.22,78.622,147.023,78.024,145.705,77.41"/>
			<path fill-rule="evenodd" clip-rule="evenodd" fill="#7C5E2E" d="M148.461,78.595c0.523,0.237,1.125,0.637,1.792,1.189
				c0.071-0.275,0.141-0.552,0.208-0.833c0.077-0.299,0.155-0.335-0.092-0.519c-0.19-0.137-0.378-0.281-0.57-0.421
				c-0.265-0.199-0.52-0.313-0.772-0.038C148.84,78.182,148.65,78.387,148.461,78.595"/>
			<path fill="#951D75" d="M189.276,100.394c-1.518-0.413-1.656-1.656-3.103-3.243c-1.097-1.199-1.717-2.909-1.954-3.673
				c-1.844-0.19-2.817-1.074-5.162-1.617c-0.286,0.19-0.548,0.243-0.552,0.734l0.002,0.185c0,0.599,0.158,0.141,0.367,0.924
				c1.047,1.507,0.786,2.167,2.347,3.919c1.028,1.154,1.873,2.223,2.864,3.406c0.923,1.103,2.469,1.724,3.594,2.681
				c0.471,0.395,1.126,1.268,1.604,1.529c0.771,0.427,1.649,0.529,2.131,1.188c0.719,0.191,1.587,1.292,2.213,1.292h0.187
				c0.492,0,0.542-0.269,0.736-0.554c-0.159-1.885-1.47-3.933-1.85-5.255c-0.523-0.066-0.468-0.07-1.08-0.414
				C191,101.153,190.795,100.808,189.276,100.394"/>
			<path fill="#4E2467" d="M192.667,100.932l-0.513-0.588c-3.324,0-5.875-6.825-7.192-6.825c-0.265,0-0.512-0.016-0.742-0.04
				c0.237,0.765,0.857,2.473,1.954,3.672c1.446,1.587,1.585,2.83,3.103,3.243c1.519,0.415,1.724,0.759,2.345,1.103
				c0.612,0.342,0.557,0.347,1.08,0.415C192.59,101.514,192.558,101.177,192.667,100.932"/>
			<path fill="#1C3F8B" d="M102.211,131.993c0.967-0.346,3.107-2.07,4.9-3.586c1.791-1.519,3.173-4.21,4.345-6.557
				c1.172-2.344,1.794-5.379,1.931-7.243c0.14-1.863-0.481-4.69-0.758-6c-0.13-0.621-0.211-1.083-0.286-1.434l-1.794,0.237
				c0.139,0.47,0.318,1.15,0.567,2.23c0.548,2.414,0.686,3.446,0.551,6c-0.144,2.553-1.727,5.589-3.174,7.798
				c-1.451,2.206-2.553,3.793-4.762,5.104c-1.469,0.872-2.779,1.314-3.499,1.514c0.24,0.288,0.468,0.568,0.638,0.895
				c0.172,0.314,0.306,0.717,0.444,1.138C101.675,132.1,102,132.068,102.211,131.993"/>
			<path fill="#FFFFFF" d="M106.395,161.788c-0.044-0.042-0.042-0.084-0.421-0.193l-0.052-0.016l-0.041-0.038l-0.244-0.235
				l-0.406,0.668l-0.127-0.004c-0.355-0.008-0.589-0.034-0.781-0.123c-0.196-0.084-0.32-0.266-0.355-0.435
				c-0.085-0.334-0.048-0.695-0.292-1.296c-0.238-0.579-0.751-1.741-0.815-2.404l0-0.033l0.006-0.036
				c0.031-0.114,0.037-0.258,0.097-0.412c0.051-0.161,0.26-0.325,0.487-0.307c0.619,0,1.14,0.31,1.553,0.59
				c0.403,0.29,0.766,0.542,0.844,0.516c0.121,0.002,0.196-0.005,0.23-0.012c0.005-0.011,0.01-0.028,0.02-0.048
				c0.022-0.053,0.06-0.134,0.148-0.247l0.799-0.799l0.728-0.017l0.69,0.537c0.37-0.142,1.255-0.437,1.769-0.599
				c0.213-0.061,0.284-0.095,0.408-0.107l0.188-0.001c0.228-0.002,0.4,0.049,0.516,0.136c0.056,0.038,0.098,0.075,0.135,0.11
				l0.854-1.043l-0.561-0.021c0,0-0.104-0.365,0.35-0.451c0.452-0.087,1.661-0.226,1.661-0.226c0.079-0.274,0.189-0.697,0.347-1.077
				c0.191-0.438,0.43-0.903,0.938-0.929l0.184-0.001c0.459-0.007,0.767,0.265,0.93,0.559c0.171,0.296,0.263,0.624,0.376,0.855
				l0.071,0.148l-1.443,1.284l-0.08,0.688c-0.005,0.685-0.151,0.789-0.188,1.312l-0.011,0.119l-0.106,0.054
				c-0.389,0.207-1.073,0.45-1.659,0.75c-0.595,0.29-1.02,0.666-0.988,0.903v0.835l-0.73,0.62l-3.723,0.528l-0.749,0.079
				c-0.022,0.003-0.054,0.005-0.076,0.005C106.631,161.975,106.454,161.881,106.395,161.788"/>
			<path fill-rule="evenodd" clip-rule="evenodd" fill="#7C5E2E" d="M112.3,155.667l0.36,0.211l-1.147,1.408
				c-0.283-0.185-0.272-0.327-0.687-0.327h-0.185c-0.082,0-1.966,0.616-2.213,0.735l-0.727-0.566l-0.564,0.013l-0.737,0.738
				c-0.211,0.291-0.033,0.37-0.554,0.37c-0.472-0.001-1.303-1.106-2.398-1.106c-0.327,0-0.301,0.275-0.369,0.552
				c0.048,0.586,0.557,1.768,0.795,2.339c0.527,1.267-0.134,1.688,1.234,1.719l0.483-0.795l0.441,0.427
				c0.782,0.208,0.32,0.368,0.921,0.368l0.724-0.077l3.653-0.516l0.603-0.515l-0.002-0.738c0-0.854,2.042-1.457,2.768-1.842
				c0.048-0.577,0.185-0.655,0.185-1.29l0.096-0.801l1.381-1.229c-0.25-0.519-0.358-1.291-1.104-1.293l-0.188,0.002
				c-0.64,0-0.953,1.456-1.111,1.986L112.3,155.667z"/>
			<path fill="#006F32" d="M95.704,216.217c-0.9,0.031-1.559,0.047-1.982,0.047c-0.647,0-1.536-0.016-2.681-0.047
				c-0.238,0.278-0.528,0.608-0.876,0.985c-0.344,0.38-0.668,0.733-0.979,1.055c-0.307,0.325-0.572,0.6-0.792,0.827
				c-0.224,0.229-0.406,0.419-0.546,0.569c-0.834,0.859-1.375,1.424-1.626,1.689c-0.254,0.262-0.516,0.499-0.796,0.709
				c-0.279,0.213-0.531,0.32-0.765,0.319c-0.265,0-0.393-0.128-0.395-0.383c0-0.281,0.19-0.71,0.566-1.292
				c0.376-0.583,0.797-1.098,1.272-1.547c0.471-0.446,0.856-0.671,1.158-0.671c0.08,0,0.2,0.041,0.349,0.12l2.138-2.431
				c-0.27-0.039-0.622-0.065-1.058-0.078c-0.437-0.011-0.727-0.046-0.878-0.102c-0.15-0.055-0.227-0.19-0.227-0.404
				c0-0.345,0.347-0.886,1.039-1.619c0.373-0.408,0.727-0.668,1.056-0.777c0.331-0.115,0.96-0.172,1.889-0.182
				c-0.543,0.082-0.934,0.175-1.164,0.282s-0.354,0.269-0.376,0.485h0.604c0.186,0,0.42-0.001,0.719-0.007
				c0.297-0.003,0.518-0.011,0.662-0.017c1.225-1.277,2.349-2.391,3.351-3.335c1.005-0.947,2.065-1.846,3.182-2.696
				c1.112-0.85,2.301-1.629,3.561-2.34c0.249,0.346,0.372,0.704,0.372,1.076c0,0.313-0.097,0.675-0.287,1.08
				c-0.193,0.407-0.596,1.172-1.216,2.291c-0.619,1.122-1.248,2.315-1.885,3.576c0.208,0,0.386,0.002,0.522,0.005
				c0.139,0.004,0.29,0.012,0.446,0.019c0.426,0,0.693,0.007,0.783,0.024c0.095,0.013,0.14,0.095,0.137,0.238
				c0.003,0.062-0.054,0.178-0.174,0.343c-0.114,0.164-0.321,0.434-0.61,0.813c-0.294,0.38-0.577,0.765-0.856,1.153l-1.653,0.146
				c-0.879,1.754-1.32,2.744-1.32,2.97c0,0.327,0.162,0.49,0.485,0.49c0.157,0.002,0.809-0.352,1.96-1.054l-0.092,0.632
				c-0.616,0.498-1.093,0.887-1.434,1.172c-0.34,0.281-0.639,0.517-0.889,0.705c-0.253,0.188-0.481,0.329-0.684,0.419
				c-0.211,0.093-0.418,0.138-0.626,0.138c-0.25,0-0.496-0.121-0.736-0.365c-0.238-0.243-0.358-0.586-0.358-1.036
				c0-0.185,0.065-0.443,0.19-0.783c0.13-0.339,0.265-0.668,0.412-0.979C94.74,218.145,95.111,217.399,95.704,216.217
				 M93.577,213.498l3.645-0.071c0.429-0.773,0.779-1.402,1.044-1.88c0.264-0.479,0.557-1.002,0.878-1.565
				c0.315-0.561,0.589-1.039,0.819-1.429c0.233-0.391,0.481-0.835,0.76-1.329c-0.538,0.358-1.091,0.758-1.653,1.197
				c-0.564,0.44-1.2,0.969-1.904,1.584c-0.708,0.621-1.329,1.198-1.881,1.726C94.74,212.261,94.169,212.853,93.577,213.498"/>
			<path fill="#006F32" d="M100.443,217.711v-0.284c1.936-2.171,3.269-3.693,3.996-4.565c0.163-0.979,0.563-1.471,1.191-1.471
				c0.159,0,0.326,0.047,0.51,0.142l0.064,0.228c-0.031,0.098-0.043,0.233-0.044,0.408c0.001,0.152,0.055,0.432,0.165,0.847
				c0.108,0.407,0.191,0.754,0.253,1.034c0.06,0.28,0.089,0.594,0.089,0.945c0,0.527-0.11,1.03-0.338,1.517
				c-0.223,0.482-0.549,0.944-0.978,1.388c-0.428,0.444-0.979,0.896-1.657,1.359c0.272,0.047,0.486,0.073,0.642,0.069
				c0.307,0.003,0.642-0.078,0.998-0.243c0.356-0.162,0.72-0.383,1.088-0.657c0.375-0.277,0.809-0.635,1.304-1.072v0.801
				c-0.96,0.997-1.82,1.755-2.578,2.269c-0.759,0.517-1.411,0.774-1.96,0.774c-0.707-0.001-1.357-0.32-1.958-0.959
				c-0.353-0.386-0.573-0.749-0.66-1.102C100.486,218.789,100.443,218.311,100.443,217.711 M104.642,215.88l-0.202-1.747
				c-0.467,0.558-1.461,1.632-2.983,3.222c0.45,0.104,0.755,0.243,0.922,0.418c0.165,0.176,0.395,0.515,0.697,1.019
				c0.509-0.224,0.906-0.53,1.178-0.917c0.274-0.388,0.409-0.917,0.41-1.586c0-0.078-0.001-0.153-0.003-0.216
				C104.655,216.008,104.649,215.947,104.642,215.88"/>
			<path fill="#006F32" d="M114.919,217.356v0.8c-0.495,0.479-0.893,0.798-1.196,0.959c-0.3,0.16-0.727,0.225-1.293,0.19
				c-0.974,1.23-1.833,1.846-2.573,1.846c-0.424,0-0.806-0.149-1.151-0.442c-0.345-0.297-0.62-0.699-0.828-1.21
				c-0.207-0.513-0.309-1.082-0.309-1.712c0-0.513,0.157-1.078,0.48-1.703c0.315-0.621,0.729-1.203,1.234-1.741
				c0.507-0.537,1.051-0.974,1.628-1.304c0.579-0.333,1.113-0.497,1.608-0.498c0.354,0.001,0.633,0.058,0.835,0.174
				c0.2,0.115,0.304,0.277,0.305,0.483c-0.001,0.162-0.088,0.344-0.262,0.554c0.284,0.062,0.483,0.167,0.584,0.316
				c0.107,0.146,0.16,0.416,0.16,0.81c0,0.383-0.085,0.865-0.254,1.447c-0.171,0.581-0.399,1.128-0.691,1.638l0.201,0.217h0.171
				c0.129,0.001,0.253-0.033,0.374-0.101c0.125-0.066,0.236-0.141,0.335-0.215C114.375,217.787,114.589,217.619,114.919,217.356
				 M112.598,214.202c-0.621,0.402-1.156,0.763-1.597,1.088c-0.441,0.323-0.819,0.648-1.124,0.98
				c-0.31,0.333-0.514,0.666-0.621,0.998c-0.187,0.896-0.284,1.379-0.284,1.453c0,0.526,0.345,0.788,1.036,0.788
				c0.325,0,0.863-0.296,1.624-0.886c-0.13-0.376-0.193-0.735-0.193-1.078c0-0.502,0.099-1.013,0.292-1.538
				C111.927,215.485,112.22,214.885,112.598,214.202"/>
			<path fill="#006F32" d="M121.673,217.401v0.806c-0.806,0.836-1.46,1.488-1.966,1.949c-0.505,0.464-0.979,0.822-1.416,1.08
				c-0.44,0.253-0.872,0.381-1.289,0.381c-0.414,0-0.795-0.175-1.135-0.521c-0.346-0.348-0.618-0.803-0.814-1.364
				c-0.194-0.563-0.29-1.159-0.29-1.792c0-0.543,0.112-1.025,0.337-1.448c0.224-0.423,0.661-0.97,1.304-1.641
				c0.767-0.796,1.479-1.414,2.136-1.851c0.654-0.436,1.168-0.651,1.549-0.651c0.271,0,0.497,0.102,0.686,0.3
				c0.186,0.2,0.279,0.45,0.279,0.754c0,0.258-0.121,0.616-0.371,1.089c-0.245,0.472-0.526,0.88-0.831,1.227
				c-0.312,0.346-0.553,0.522-0.731,0.522c-0.196,0-0.293-0.114-0.293-0.336c0.007-0.062,0.012-0.121,0.014-0.178
				c0.005-0.058,0.006-0.112,0.006-0.168c0-0.097-0.03-0.151-0.095-0.16c-0.061-0.014-0.141,0.017-0.23,0.089
				c-0.75,0.558-1.264,0.951-1.542,1.174c-0.277,0.23-0.495,0.461-0.659,0.693c-0.159,0.231-0.239,0.473-0.239,0.729
				c0,0.468,0.142,0.855,0.427,1.148c0.282,0.295,0.656,0.444,1.113,0.444c0.472,0,1.04-0.193,1.708-0.581
				C119.989,218.708,120.773,218.143,121.673,217.401"/>
			<path fill="#006F32" d="M127.01,217.38v0.873c-0.729,0.996-1.408,1.749-2.037,2.258c-0.631,0.506-1.17,0.76-1.613,0.76
				c-0.616-0.002-1.07-0.344-1.372-1.033c-0.299-0.684-0.45-1.435-0.45-2.249c0-0.312,0.028-0.608,0.088-0.894
				c0.062-0.282,0.133-0.517,0.215-0.699c0.082-0.185,0.236-0.473,0.46-0.859c1.066-1.77,2.042-2.65,2.927-2.65
				c0.457,0,0.689,0.188,0.689,0.564c0,0.255-0.149,0.653-0.447,1.196c-0.294,0.544-0.559,0.931-0.794,1.163
				c-0.65,0.67-1.076,1.136-1.275,1.399c-0.198,0.266-0.299,0.565-0.299,0.898c0,0.288,0.103,0.527,0.304,0.719
				c0.205,0.191,0.465,0.288,0.789,0.287c0.354,0.001,0.741-0.139,1.169-0.412C125.784,218.427,126.334,217.983,127.01,217.38
				 M126.243,212.024c-0.188,0-0.367-0.073-0.536-0.228c-0.166-0.151-0.251-0.342-0.251-0.573c0-0.35,0.159-0.741,0.473-1.173
				c0.314-0.432,0.645-0.647,0.98-0.646c0.224-0.002,0.411,0.073,0.562,0.219c0.151,0.149,0.226,0.362,0.224,0.643
				c0.002,0.343-0.15,0.721-0.461,1.137C126.926,211.818,126.595,212.024,126.243,212.024"/>
			<path fill="#006F32" d="M128.226,215.234c1.142-1.101,2.247-1.92,3.32-2.454c1.07-0.536,1.904-0.802,2.484-0.802
				c0.159,0,0.306,0.069,0.441,0.208c0.134,0.141,0.243,0.304,0.323,0.484c0.078,0.184,0.118,0.319,0.118,0.406
				c0,0.147-0.054,0.251-0.16,0.319c-0.104,0.067-0.286,0.149-0.552,0.247c0.054,0.124,0.121,0.289,0.206,0.49
				c0.08,0.197,0.147,0.36,0.19,0.482c0.042,0.125,0.066,0.235,0.066,0.33c0.003,0.193-0.184,0.551-0.543,1.073
				c-0.365,0.522-0.62,0.907-0.767,1.155c-0.146,0.247-0.222,0.553-0.218,0.913c-0.004,0.588,0.254,0.882,0.764,0.882
				c0.523,0.002,1.344-0.521,2.462-1.568l0.001,0.731c-1.896,2.244-3.259,3.367-4.072,3.366c-0.293-0.001-0.504-0.103-0.624-0.309
				c-0.126-0.202-0.188-0.505-0.188-0.902c0-0.631,0.213-1.543,0.642-2.742c-1.097,1.294-1.911,2.215-2.444,2.761
				c-0.53,0.547-0.972,0.818-1.315,0.819c-0.165-0.001-0.371-0.151-0.619-0.455c-0.25-0.305-0.467-0.696-0.661-1.179
				c-0.189-0.482-0.284-0.984-0.284-1.503c0-0.377,0.034-0.688,0.101-0.94c0.068-0.251,0.198-0.508,0.391-0.771
				C127.485,216.012,127.797,215.667,128.226,215.234 M133.617,213.917c-1.952,0.949-3.343,1.756-4.172,2.419
				c-0.831,0.661-1.246,1.346-1.242,2.049c0,0.254,0.04,0.464,0.122,0.629c0.082,0.163,0.196,0.245,0.336,0.245
				c0.086,0,0.23-0.055,0.44-0.168c0.789-0.494,1.509-1.138,2.161-1.936C131.916,216.364,132.701,215.283,133.617,213.917"/>
			<path fill="#006F32" d="M143.039,217.401v0.804c-0.802,0.838-1.458,1.49-1.965,1.951c-0.504,0.463-0.978,0.822-1.418,1.08
				c-0.437,0.252-0.869,0.381-1.29,0.381c-0.41,0-0.791-0.175-1.136-0.521c-0.344-0.348-0.617-0.802-0.81-1.364
				c-0.193-0.563-0.293-1.162-0.293-1.792c0-0.543,0.112-1.025,0.337-1.45c0.225-0.421,0.662-0.968,1.305-1.639
				c0.768-0.798,1.479-1.414,2.136-1.851c0.657-0.436,1.172-0.651,1.547-0.651c0.269,0,0.499,0.1,0.688,0.299
				c0.188,0.201,0.281,0.451,0.281,0.754c-0.002,0.256-0.125,0.619-0.373,1.09c-0.249,0.472-0.525,0.88-0.835,1.228
				c-0.309,0.345-0.551,0.521-0.731,0.521c-0.193,0-0.291-0.114-0.291-0.336c0.009-0.062,0.013-0.121,0.015-0.178
				c0.008-0.058,0.008-0.112,0.008-0.169c0-0.096-0.032-0.15-0.096-0.159c-0.064-0.017-0.142,0.015-0.231,0.089
				c-0.75,0.558-1.263,0.949-1.541,1.176c-0.279,0.229-0.5,0.459-0.658,0.691c-0.163,0.231-0.241,0.473-0.241,0.732
				c0,0.465,0.141,0.85,0.425,1.146c0.289,0.295,0.658,0.444,1.115,0.444c0.472,0,1.04-0.192,1.708-0.58
				C141.356,218.708,142.14,218.145,143.039,217.401"/>
			<path fill="#006F32" d="M148.374,217.38v0.871c-0.73,0.998-1.406,1.751-2.04,2.26c-0.629,0.506-1.164,0.757-1.604,0.76
				c-0.619-0.003-1.076-0.345-1.375-1.031c-0.303-0.686-0.451-1.437-0.451-2.251c0-0.312,0.03-0.607,0.089-0.894
				c0.059-0.282,0.134-0.514,0.216-0.699c0.08-0.185,0.234-0.473,0.459-0.859c1.064-1.768,2.042-2.648,2.93-2.65
				c0.455,0.002,0.685,0.186,0.685,0.564c0,0.255-0.149,0.654-0.444,1.196c-0.298,0.544-0.563,0.931-0.795,1.163
				c-0.65,0.67-1.077,1.136-1.279,1.399c-0.197,0.266-0.296,0.562-0.296,0.898c0,0.288,0.101,0.527,0.301,0.719
				c0.202,0.191,0.467,0.287,0.791,0.287c0.354,0,0.741-0.139,1.163-0.412C147.148,218.427,147.695,217.985,148.374,217.38
				 M147.609,212.024c-0.188,0-0.368-0.073-0.535-0.226c-0.169-0.153-0.252-0.344-0.252-0.575c0-0.35,0.152-0.741,0.469-1.173
				c0.318-0.432,0.646-0.647,0.983-0.647c0.225,0,0.41,0.072,0.562,0.221c0.148,0.147,0.225,0.362,0.222,0.642
				c0,0.344-0.152,0.722-0.457,1.138C148.292,211.82,147.96,212.024,147.609,212.024"/>
			<path fill="#006F32" d="M155.511,217.356v0.803c-0.495,0.477-0.89,0.798-1.193,0.955c-0.299,0.16-0.731,0.224-1.295,0.191
				c-0.974,1.23-1.834,1.846-2.581,1.846c-0.417,0-0.799-0.149-1.146-0.444c-0.344-0.293-0.621-0.697-0.823-1.208
				c-0.209-0.511-0.312-1.082-0.312-1.713c0-0.512,0.16-1.078,0.479-1.7c0.317-0.623,0.733-1.205,1.236-1.743
				c0.508-0.539,1.048-0.974,1.628-1.307c0.577-0.332,1.115-0.495,1.609-0.496c0.354,0.002,0.632,0.059,0.834,0.175
				c0.202,0.115,0.305,0.275,0.305,0.483c0,0.163-0.086,0.344-0.263,0.553c0.288,0.062,0.479,0.168,0.587,0.317
				c0.107,0.147,0.157,0.417,0.157,0.81c0,0.38-0.084,0.864-0.249,1.446c-0.174,0.582-0.403,1.129-0.695,1.642l0.199,0.215h0.173
				c0.126,0,0.253-0.035,0.375-0.104c0.125-0.064,0.236-0.139,0.332-0.214C154.967,217.787,155.179,217.619,155.511,217.356
				 M153.193,214.202c-0.624,0.402-1.159,0.763-1.601,1.088c-0.441,0.323-0.816,0.65-1.123,0.98
				c-0.31,0.333-0.516,0.666-0.623,1.002c-0.186,0.893-0.279,1.374-0.279,1.449c0,0.526,0.343,0.788,1.032,0.788
				c0.322,0,0.866-0.296,1.624-0.886c-0.13-0.376-0.192-0.735-0.192-1.077c-0.003-0.503,0.097-1.016,0.293-1.539
				C152.522,215.485,152.81,214.882,153.193,214.202 M153.328,210.266c-0.131,0-0.244-0.048-0.348-0.139
				c-0.107-0.091-0.16-0.194-0.16-0.305c0-0.297,0.395-1.05,1.17-2.265c0.342-0.501,0.623-0.836,0.851-1
				c0.229-0.163,0.553-0.245,0.975-0.245c0.557,0,0.834,0.203,0.834,0.61c0,0.231-0.242,0.615-0.728,1.15
				c-0.485,0.534-1.003,1.034-1.554,1.497C153.814,210.035,153.47,210.266,153.328,210.266"/>
			<path fill="#006F32" d="M163.075,215.212c-1.322,1.561-1.98,2.654-1.98,3.267c0,0.344,0.132,0.515,0.394,0.516
				c0.215,0,0.502-0.121,0.852-0.366c0.346-0.243,0.893-0.676,1.64-1.299v0.826c-1.069,1.118-1.889,1.925-2.456,2.419
				c-0.573,0.496-1.039,0.743-1.398,0.742c-0.615,0.001-0.923-0.431-0.921-1.292c-0.002-0.256,0.039-0.508,0.112-0.755
				c0.073-0.247,0.177-0.505,0.309-0.772c0.13-0.268,0.331-0.65,0.601-1.149c0.271-0.499,0.585-1.063,0.938-1.692
				c-0.43,0.229-0.966,0.688-1.613,1.375c-0.42,0.433-0.776,0.841-1.069,1.227c-0.295,0.387-0.605,0.82-0.938,1.296
				c-0.336,0.473-0.58,0.792-0.733,0.956c-0.155,0.162-0.31,0.245-0.465,0.245c-0.243,0-0.465-0.267-0.665-0.803
				c-0.202-0.534-0.302-1.156-0.305-1.864c0-0.441,0.047-0.785,0.142-1.032c0.093-0.249,0.279-0.598,0.558-1.055
				c0.516-0.846,0.962-1.465,1.338-1.863c0.375-0.391,0.737-0.592,1.084-0.592c0.237,0,0.431,0.043,0.574,0.131
				c0.151,0.091,0.221,0.228,0.221,0.409c0,0.08-0.021,0.162-0.068,0.252c-0.046,0.088-0.093,0.165-0.149,0.236
				c-0.058,0.073-0.175,0.214-0.357,0.421c-1.184,1.396-1.776,2.305-1.776,2.717c0,0.232,0.069,0.352,0.213,0.352
				c0.088,0,0.264-0.155,0.524-0.465c0.258-0.306,0.593-0.709,0.999-1.208c0.409-0.498,0.895-1.02,1.454-1.562
				c0.559-0.543,1.194-1.069,1.91-1.571c0.396-0.294,0.729-0.444,0.988-0.44c0.12,0,0.239,0.175,0.354,0.525
				c0.117,0.353,0.172,0.707,0.172,1.066C163.557,214.584,163.398,214.852,163.075,215.212"/>
			<path fill="#006F32" d="M174.907,214.036l3.433-5.448c-0.78,0.034-1.604,0.152-2.466,0.359c-0.863,0.211-1.601,0.433-2.215,0.667
				c-0.617,0.234-1.166,0.458-1.649,0.67c-0.488,0.212-0.834,0.36-1.043,0.447c-0.053,0.002-0.105-0.018-0.157-0.059
				c-0.052-0.039-0.078-0.088-0.078-0.144c0-0.064,0.174-0.454,0.521-1.174c0.351-0.721,0.761-1.488,1.232-2.312
				c2.63-0.996,4.947-1.495,6.96-1.495c2.324,0,3.936,0.526,4.842,1.581c0.32,0.367,0.569,0.819,0.747,1.357
				c0.175,0.539,0.264,1.072,0.264,1.598c0,1.201-0.235,2.289-0.703,3.265c-0.474,0.979-1.141,1.825-2.008,2.546
				c-0.875,0.717-1.898,1.266-3.076,1.646c-1.178,0.38-2.468,0.568-3.873,0.568c-0.247,0.001-0.756-0.045-1.519-0.143l-1.013,1.963
				c0.103,0.168,0.157,0.305,0.155,0.407c0.002,0.247-0.054,0.456-0.155,0.623c-0.151,0.239-0.351,0.556-0.597,0.945
				c-0.248,0.393-0.415,0.65-0.5,0.778c-0.09,0.128-0.185,0.239-0.293,0.335c-0.109,0.097-0.216,0.144-0.322,0.144
				c-0.219,0-0.358-0.067-0.419-0.21c-0.056-0.14-0.087-0.332-0.087-0.578c0-0.353,0.166-0.909,0.492-1.67
				c0.324-0.764,0.816-1.775,1.477-3.036c-0.351-0.146-0.624-0.333-0.819-0.563c-0.198-0.232-0.293-0.46-0.293-0.682
				c0.001-0.498,0.265-0.957,0.798-1.377C173.076,214.62,173.864,214.286,174.907,214.036 M176.078,214.362l-0.64,1.149
				c0.283,0.015,0.538,0.032,0.757,0.048c0.223,0.015,0.409,0.025,0.558,0.025c1.314-0.002,2.452-0.19,3.414-0.566
				c0.966-0.376,1.73-0.838,2.298-1.395c0.566-0.554,0.979-1.11,1.233-1.671c0.256-0.559,0.382-1.024,0.382-1.4
				c0-0.518-0.193-0.927-0.585-1.22c-0.394-0.296-0.951-0.499-1.682-0.607c-0.73-0.106-1.676-0.16-2.83-0.158
				c0.015,0.085,0.021,0.193,0.021,0.319c0,0.418-0.205,0.964-0.62,1.643l-1.957,3.268l1.474-0.179
				c0.122,0.001,0.182,0.059,0.182,0.179c0,0.107-0.102,0.177-0.295,0.219L176.078,214.362z"/>
			<path fill="#006F32" d="M185.532,215.233c1.141-1.101,2.246-1.919,3.322-2.454c1.075-0.535,1.904-0.801,2.489-0.801
				c0.157,0,0.303,0.069,0.438,0.208c0.135,0.139,0.242,0.304,0.323,0.483c0.078,0.187,0.12,0.32,0.12,0.407
				c0,0.146-0.053,0.251-0.163,0.319c-0.103,0.067-0.287,0.149-0.547,0.247c0.047,0.126,0.119,0.289,0.202,0.49
				c0.08,0.197,0.144,0.36,0.19,0.483c0.043,0.124,0.068,0.235,0.066,0.329c0,0.193-0.18,0.551-0.543,1.073
				c-0.365,0.524-0.623,0.907-0.768,1.155c-0.146,0.247-0.217,0.552-0.217,0.913c0,0.588,0.252,0.882,0.762,0.882
				c0.526,0.002,1.349-0.519,2.467-1.568v0.731c-1.899,2.244-3.26,3.366-4.076,3.366c-0.292,0-0.5-0.103-0.623-0.307
				c-0.123-0.204-0.188-0.503-0.188-0.904c0-0.631,0.214-1.543,0.642-2.741c-1.098,1.291-1.907,2.214-2.44,2.759
				c-0.534,0.548-0.973,0.819-1.317,0.82c-0.167-0.001-0.372-0.151-0.621-0.455c-0.247-0.306-0.468-0.697-0.66-1.179
				c-0.187-0.482-0.285-0.984-0.285-1.503c0-0.377,0.036-0.688,0.1-0.94c0.067-0.25,0.201-0.508,0.396-0.771
				C184.795,216.013,185.104,215.667,185.532,215.233 M190.929,213.917c-1.954,0.949-3.343,1.756-4.173,2.419
				s-1.243,1.346-1.243,2.049c0,0.254,0.041,0.466,0.121,0.629c0.083,0.163,0.196,0.244,0.338,0.245c0.081,0,0.23-0.056,0.439-0.168
				c0.789-0.494,1.511-1.138,2.164-1.932C189.222,216.364,190.01,215.283,190.929,213.917"/>
			<path fill="#006F32" d="M197.521,211.163h0.484c0.398-0.758,0.759-1.296,1.083-1.61c0.32-0.314,0.687-0.474,1.102-0.474
				c0.414,0.001,0.618,0.102,0.618,0.301c0,0.096-0.161,0.354-0.484,0.779c-0.323,0.421-0.568,0.777-0.732,1.063
				c0.256,0.032,0.488,0.062,0.686,0.084c0.196,0.025,0.355,0.042,0.464,0.06c-0.429,0.846-0.966,1.714-1.607,2.6
				c-0.213-0.017-0.389-0.029-0.53-0.043c-0.143-0.012-0.288-0.022-0.434-0.035c-0.146-0.013-0.325-0.026-0.534-0.043
				c-0.405,0.696-0.746,1.316-1.02,1.865c-0.276,0.545-0.485,1.046-0.632,1.5c-0.144,0.455-0.218,0.886-0.216,1.295
				c0,0.551,0.207,0.823,0.618,0.826c0.284-0.003,0.658-0.162,1.119-0.484c0.462-0.324,1.078-0.822,1.854-1.491v0.801
				c-2.029,2.341-3.526,3.51-4.496,3.509c-0.334,0-0.607-0.138-0.811-0.416c-0.209-0.284-0.312-0.642-0.312-1.081
				c0.002-0.297,0.06-0.646,0.175-1.054c0.119-0.408,0.327-1.022,0.626-1.842c-0.106,0.094-0.205,0.188-0.3,0.28
				c-0.094,0.092-0.179,0.175-0.259,0.249c-0.078,0.079-0.164,0.156-0.25,0.239c-0.093,0.085-0.18,0.172-0.273,0.259l-0.002-0.825
				c0.789-0.701,1.744-1.937,2.862-3.7c-0.111-0.007-0.218-0.015-0.311-0.019c-0.102-0.004-0.218-0.005-0.351-0.005
				c-0.444,0-0.775,0.03-0.992,0.094c-0.09,0.024-0.174,0.051-0.253,0.078c-0.077,0.03-0.131,0.041-0.165,0.043
				c-0.026,0-0.044-0.024-0.044-0.072c0-0.264,0.153-0.659,0.462-1.185c0.248-0.447,0.482-0.778,0.703-0.995
				c0.22-0.214,0.494-0.359,0.812-0.437C196.494,211.203,196.946,211.163,197.521,211.163"/>
			<path fill="#006F32" d="M200.651,215.233c1.141-1.1,2.249-1.919,3.32-2.453c1.072-0.536,1.902-0.802,2.488-0.802
				c0.16,0,0.304,0.069,0.439,0.209c0.136,0.14,0.245,0.303,0.319,0.482c0.079,0.185,0.123,0.32,0.123,0.41
				c0,0.143-0.054,0.248-0.162,0.316c-0.104,0.067-0.29,0.149-0.55,0.247c0.054,0.124,0.117,0.289,0.202,0.49
				c0.083,0.197,0.147,0.36,0.189,0.483c0.05,0.127,0.07,0.234,0.07,0.329c0,0.193-0.182,0.551-0.545,1.073
				c-0.366,0.522-0.62,0.907-0.767,1.155c-0.148,0.25-0.217,0.552-0.217,0.91c0,0.591,0.253,0.887,0.763,0.887
				c0.527,0,1.349-0.522,2.466-1.57v0.731c-1.901,2.244-3.256,3.367-4.076,3.366c-0.291,0-0.5-0.105-0.625-0.307
				c-0.123-0.202-0.187-0.507-0.187-0.902c0-0.633,0.215-1.547,0.646-2.743c-1.098,1.293-1.911,2.214-2.445,2.76
				c-0.532,0.547-0.971,0.818-1.317,0.818c-0.166,0-0.371-0.15-0.617-0.453c-0.25-0.303-0.47-0.698-0.658-1.18
				c-0.19-0.483-0.292-0.984-0.288-1.503c0-0.377,0.034-0.688,0.1-0.94c0.066-0.252,0.198-0.508,0.392-0.771
				C199.911,216.012,200.224,215.667,200.651,215.233 M206.041,213.917c-1.946,0.949-3.338,1.756-4.168,2.419
				c-0.828,0.663-1.241,1.346-1.241,2.049c0,0.256,0.039,0.464,0.12,0.631c0.082,0.161,0.196,0.243,0.339,0.243
				c0.08,0,0.229-0.056,0.439-0.168c0.786-0.494,1.508-1.142,2.159-1.936C204.345,216.365,205.127,215.283,206.041,213.917"/>
			<path fill="#006F32" d="M208.556,218.432l-0.004-0.887c0.415-0.463,0.839-1.11,1.274-1.94c-0.42-0.062-0.631-0.241-0.628-0.54
				c-0.003-0.245,0.136-0.564,0.417-0.956c0.284-0.392,0.616-0.743,0.996-1.053c0.377-0.312,0.674-0.47,0.89-0.468
				c0.25-0.001,0.375,0.107,0.375,0.322c0,0.09-0.022,0.146-0.067,0.166c-0.062,0.042-0.093,0.111-0.093,0.205
				c0,0.082,0.062,0.121,0.184,0.121c0.374,0,0.84-0.081,1.411-0.249c0.566-0.162,0.952-0.243,1.165-0.243
				c0.171,0,0.289,0.174,0.346,0.516c0.159,0.91,0.238,1.425,0.238,1.545c0,0.112-0.046,0.216-0.141,0.318
				c-0.091,0.096-0.357,0.297-0.789,0.591c-0.428,0.297-0.833,0.581-1.197,0.855c-0.368,0.274-0.847,0.663-1.432,1.155
				c0.404,0.2,0.702,0.426,0.886,0.675c0.183,0.245,0.343,0.626,0.478,1.136l2.816-2.347l-0.002,0.804l-2.837,2.428
				c-0.074,0.767-0.326,1.546-0.747,2.335c-0.426,0.791-0.917,1.502-1.481,2.133c-0.566,0.631-1.124,1.146-1.681,1.552
				c-0.551,0.401-0.96,0.604-1.214,0.604c-0.245,0-0.419-0.086-0.514-0.258c-0.103-0.172-0.148-0.421-0.148-0.75
				c0-0.472,0.093-0.918,0.287-1.34c0.192-0.424,0.467-0.846,0.832-1.264c0.363-0.419,0.803-0.846,1.317-1.28
				c0.516-0.438,1.2-0.966,2.056-1.588c-0.084-0.567-0.226-0.921-0.419-1.058c-0.196-0.143-0.494-0.28-0.894-0.422
				c-0.402-0.142-0.603-0.349-0.603-0.628c0-0.312,1.408-1.503,4.223-3.579c-0.454,0.095-0.981,0.2-1.586,0.319
				c-0.609,0.112-1.191,0.195-1.734,0.241c-0.385,0.646-0.75,1.213-1.095,1.702C209.099,217.792,208.803,218.167,208.556,218.432
				 M211.437,221.857c-0.542,0.398-1.063,0.849-1.568,1.346c-0.504,0.499-0.936,0.973-1.298,1.418
				c-0.366,0.449-0.545,0.721-0.548,0.817c0.002,0.182,0.077,0.275,0.227,0.275c0.269-0.001,0.621-0.161,1.048-0.479
				c0.426-0.32,0.841-0.776,1.25-1.372C210.952,223.268,211.249,222.6,211.437,221.857"/>
		</g>
	</g>
</g>
<g id="Capa_4">
</g>
<g id="Guias">
</g>
<g id="bootstrap">
</g>
</svg>
