<?xml version="1.0" encoding="utf-8"?>
<!-- Generator: Adobe Illustrator 19.0.0, SVG Export Plug-In . SVG Version: 6.00 Build 0)  -->
<svg version="1.1" id="Capa_1" xmlns="http://www.w3.org/2000/svg" xmlns:xlink="http://www.w3.org/1999/xlink" x="0px" y="0px"
	 viewBox="0 0 44.8 33.1" style="enable-background:new 0 0 44.8 33.1;" xml:space="preserve">
<style type="text/css">
	.st0{fill:#010202;}
</style>
<g id="XMLID_41_">
	<path id="XMLID_42_" class="st0" d="M1.3,33L0,30.9c5-2.6,8.2-4.8,9.8-6.7c1.1-1.3,1.7-2.6,1.7-3.9c0-1.3-1-2.8-2.9-4.5
		c-2.7-2.4-4-4.7-4-7.1c0-2.3,0.8-4.3,2.5-6.1C8.8,0.9,10.8,0,13,0c2.3,0,4.4,0.9,6.2,2.8C21,4.7,21.9,7,21.9,9.7
		c0,4.3-1.5,8.2-4.4,11.9C13.8,26.3,8.4,30.1,1.3,33z M24.3,33.1L23,31c4.8-2.6,8.1-4.8,9.8-6.9c1.1-1.4,1.7-2.6,1.7-3.8
		s-0.9-2.7-2.6-4.3c-1.8-1.7-3-3.1-3.6-4.3c-0.5-0.9-0.7-1.9-0.7-3.1c0-2.3,0.8-4.3,2.5-6c1.7-1.7,3.7-2.5,6.1-2.5
		c2.4,0,4.5,0.9,6.1,2.7c1.7,1.8,2.5,4.1,2.5,6.9c0,4.3-1.3,8.1-4,11.5C37.3,25.8,31.8,29.7,24.3,33.1z"/>
</g>
<g id="XMLID_110_">
	<path id="XMLID_111_" class="st0" d="M641.9,729.9l-1.3-2.2c5-2.6,8.2-4.8,9.8-6.7c1.1-1.3,1.7-2.6,1.7-3.9c0-1.3-1-2.8-2.9-4.5
		c-2.7-2.4-4-4.7-4-7.1c0-2.3,0.8-4.3,2.5-6.1c1.7-1.7,3.7-2.6,6-2.6c2.3,0,4.4,0.9,6.2,2.8c1.8,1.9,2.7,4.2,2.7,6.9
		c0,4.3-1.5,8.2-4.4,11.9C654.4,723.2,649,727,641.9,729.9z M664.8,730l-1.2-2.1c4.8-2.6,8.1-4.8,9.8-6.9c1.1-1.4,1.7-2.6,1.7-3.8
		s-0.9-2.7-2.6-4.3c-1.8-1.7-3-3.1-3.6-4.3c-0.5-0.9-0.7-1.9-0.7-3.1c0-2.3,0.8-4.3,2.5-6s3.7-2.5,6.1-2.5c2.4,0,4.5,0.9,6.1,2.7
		c1.7,1.8,2.5,4.1,2.5,6.9c0,4.3-1.3,8.1-4,11.5C677.9,722.7,672.3,726.6,664.8,730z"/>
</g>
</svg>
