<?xml version="1.0" encoding="utf-8"?>
<!-- Generator: Adobe Illustrator 19.0.0, SVG Export Plug-In . SVG Version: 6.00 Build 0)  -->
<svg version="1.1" id="Capa_1" xmlns="http://www.w3.org/2000/svg" xmlns:xlink="http://www.w3.org/1999/xlink" x="0px" y="0px"
	 viewBox="0 0 168.7 102.5" style="enable-background:new 0 0 168.7 102.5;" xml:space="preserve">
<style type="text/css">
	.st0{fill:#D9A500;}
</style>
<path class="st0" d="M168.6,8.6c0-4.8-3.9-8.6-8.6-8.6c0,0,0,0,0,0L8.6,0.2c-2.3,0-4.5,0.9-6.1,2.5C0.9,4.4,0,6.6,0,8.9l0.1,85
	c0,2.3,0.9,4.5,2.5,6.1c1.6,1.6,3.8,2.5,6.1,2.5c0,0,0,0,0,0l151.3-0.2c4.8,0,8.6-3.9,8.6-8.7L168.6,8.6z M112.3,63.3l39.2,30.4
	L17.1,93.9l39.4-30.6c1.9-1.5,2.2-4.2,0.8-6.1c-1.5-1.9-4.2-2.2-6.1-0.8L8.8,89.4L8.6,12.8l73.3,50.6c0.7,0.5,1.6,0.8,2.5,0.8
	c0.9,0,1.7-0.3,2.5-0.8l73.1-50.8l0.1,76.8l-42.5-32.9c-1.9-1.5-4.6-1.1-6.1,0.8C110.1,59.1,110.4,61.8,112.3,63.3z M18.1,8.8
	l132.3-0.2L84.4,54.6L18.1,8.8z"/>
</svg>
