<?xml version="1.0" encoding="utf-8"?>
<!-- Generator: Adobe Illustrator 19.0.0, SVG Export Plug-In . SVG Version: 6.00 Build 0)  -->
<svg version="1.1" id="Capa_1" xmlns="http://www.w3.org/2000/svg" xmlns:xlink="http://www.w3.org/1999/xlink" x="0px" y="0px"
	 viewBox="0 0 55.7 63.8" style="enable-background:new 0 0 55.7 63.8;" xml:space="preserve">
<style type="text/css">
	.st0{filter:url(#Adobe_OpacityMaskFilter);}
	.st1{fill:url(#XMLID_126_);}
	.st2{mask:url(#XMLID_125_);}
	.st3{clip-path:url(#XMLID_127_);fill:#3D3D3B;}
	.st4{fill:none;stroke:#FFFFFF;stroke-width:0.629;stroke-linecap:round;stroke-linejoin:bevel;stroke-miterlimit:10;}
	.st5{fill:#FFFFFF;}
</style>
<g id="XMLID_834_">
	<defs>
		<filter id="Adobe_OpacityMaskFilter" filterUnits="userSpaceOnUse" x="10.5" y="0" width="23.8" height="36.3">
			<feColorMatrix  type="matrix" values="1 0 0 0 0  0 1 0 0 0  0 0 1 0 0  0 0 0 1 0"/>
		</filter>
	</defs>
	<mask maskUnits="userSpaceOnUse" x="10.5" y="0" width="23.8" height="36.3" id="XMLID_125_">
		<g id="XMLID_80_" class="st0">
			
				<linearGradient id="XMLID_126_" gradientUnits="userSpaceOnUse" x1="-844.8677" y1="709.2821" x2="-843.718" y2="709.2821" gradientTransform="matrix(-0.5235 13.6273 13.6273 0.5235 -9509.6904 11183.0068)">
				<stop  offset="0" style="stop-color:#FFFFFF"/>
				<stop  offset="1" style="stop-color:#000000"/>
			</linearGradient>
			<polygon id="XMLID_84_" class="st1" points="1774.8,-615.3 1730.7,532.3 -568.6,444 -524.5,-703.7 			"/>
		</g>
	</mask>
	<g id="XMLID_875_" class="st2">
		<g id="XMLID_878_">
			<defs>
				<rect id="XMLID_879_" x="10.5" y="0" width="23.8" height="36.3"/>
			</defs>
			<clipPath id="XMLID_127_">
				<use xlink:href="#XMLID_879_"  style="overflow:visible;"/>
			</clipPath>
			<path id="XMLID_880_" class="st3" d="M11.8,27.1l1.5,0.2l1,0.3l0.6,0.4l0.5,0.4l0.8,1l0.8,1l0.7,0.4v0.4l0.2,0.7l0.6,1
				c0,0,0.3,0.6,0.3,0.7c0,0.2,0.8,1,0.8,1l0.3-0.1l0.6-0.2l1.3-0.1l1.1,0.1l1,0.2l0.9,0.4l0.4,0.3l-0.4-0.9l0.6-0.5l-0.1-1l0-0.9
				l0.2-1.1l-0.3-0.8l0.3-0.6l-0.3-1.1l0.4-0.7l-0.1-0.8l0.1-0.9l1.5-1.6l0.2-0.9l0.2-0.6l0.4-0.3l0.5-0.8l0.3-4.5l0.7-0.4v-1.1
				l-0.1-1.4c0,0,0.2-0.5,0.2-0.5v-1.5l0.2-1.2l0.7-0.7l0.5-1l0.4-0.7l0.1-0.6V6.8l-0.1-0.6l0.7-0.5V5.4c0,0-0.1-0.5,0-0.6
				c0.1-0.1,0.9-0.6,0.9-0.6s0.1,0.5,0.1,0.4c0-0.1,0.1-0.9,0.1-0.9l-0.5-0.4l-1.1-0.8L31.5,2l0.3,0.2l0.5,0.6l0.8,0.4V2.7l-0.3-0.5
				l0.1-0.8c0,0-0.2-0.2-0.4-0.2h-1.1H31h-0.7l-0.6,0.2l-0.3,0L29,1.7L28.5,2l-0.9,0.4l-0.5,0.9l-1,0.6l-0.5,1l-0.6,0.5l-1,0.7
				l-0.8,0.5l-0.8,1.3l-0.6,0.6l-0.8,0.8l-0.4,1.3l-0.5,1.3l-0.6,0.4l-0.4,0.8l-0.7,1.2l-0.3,1.4L17,17.3c0,0-0.4,0.7-0.5,0.9
				c-0.1,0.2-0.5,0.9-0.5,0.9l-1,2.3l-0.6,0.8l-0.7,1.6c0,0-0.5,1.1-0.7,1.2c-0.3,0.2-0.2,1.1-0.2,1.1l-1.2,1L11.8,27.1z"/>
		</g>
	</g>
	<path id="XMLID_874_" class="st4" d="M0.3,34.7L0.7,34l0.7-0.7l0.5-0.9l0.4-0.9l0.5-1c0,0,0.6-1,0.8-1c0.1,0,0.4-0.4,0.4-0.4
		l0.5-0.3l1.1,0.4l0.3,0.7l0.4,0.3l1.6-1l0.4-0.3l0.3-0.8L9.4,28l1-0.4h0.8l0.4-0.4l1.3-1.1c0,0,0-0.9,0.2-1.1
		c0.3-0.2,0.7-1.2,0.7-1.2l0.7-1.6l0.6-0.8l1-2.2c0,0,0.4-0.7,0.5-0.9c0.1-0.2,0.5-0.9,0.5-0.9l1.3-1.5l0.3-1.3l0.7-1.2l0.4-0.8
		l0.6-0.4l0.5-1.3l0.4-1.3l0.8-0.8l0.6-0.6l0.8-1.3l0.8-0.5l1-0.7l0.6-0.5l0.5-1l1-0.6l0.5-0.9l0.9-0.4l0.5-0.3l0.5-0.5l0.8-0.3h0.8
		h0.4l0.7-0.2l0.6,0.4h0.8l0.5,0.5l0.4,0.3l0.5,0.1l0.6,0.3l0.2,0.8l0.8,1.2v0.7l1.9,2.1c0,0-0.3,0.6,0,0.6c0.3,0,1.2,1.1,1.2,1.1
		l0.6,0.8l1.9,0.5l0.7,1.3l0.9,0.3l0.7,1.3l2.2,3.1l1.7,1.9l2.3,0.1c0,0,1.2,0.1,1.4,0.3c0.3,0.2,2.9,1.5,2.9,1.5"/>
	<path id="XMLID_873_" class="st5" d="M6.1,62.3H5.7l-0.1-1h0c-0.1,0.2-0.2,0.4-0.3,0.5c-0.1,0.1-0.3,0.3-0.5,0.4
		c-0.2,0.1-0.3,0.2-0.5,0.2c-0.2,0-0.4,0.1-0.6,0.1c-0.4,0-0.8-0.1-1.1-0.2C2.2,62,2,61.8,1.7,61.5c-0.2-0.3-0.4-0.6-0.5-0.9
		c-0.1-0.3-0.2-0.7-0.2-1.1c0-0.4,0.1-0.7,0.2-1.1c0.1-0.4,0.3-0.7,0.5-0.9C2,57.2,2.2,57,2.6,56.9c0.3-0.2,0.7-0.2,1.1-0.2
		c0.3,0,0.6,0,0.8,0.1c0.3,0.1,0.5,0.2,0.7,0.4c0.2,0.2,0.4,0.3,0.5,0.6C5.9,57.9,6,58.2,6,58.5H5.5c0-0.2-0.1-0.3-0.2-0.5
		c-0.1-0.2-0.2-0.3-0.4-0.4c-0.2-0.1-0.3-0.2-0.5-0.3c-0.2-0.1-0.5-0.1-0.7-0.1c-0.4,0-0.7,0.1-0.9,0.2c-0.3,0.1-0.5,0.3-0.6,0.6
		c-0.2,0.2-0.3,0.5-0.4,0.8c-0.1,0.3-0.1,0.6-0.1,0.9c0,0.3,0,0.6,0.1,0.9c0.1,0.3,0.2,0.6,0.4,0.8c0.2,0.2,0.4,0.4,0.6,0.6
		C3,61.9,3.3,62,3.7,62c0.3,0,0.6-0.1,0.8-0.2c0.2-0.1,0.4-0.2,0.6-0.4c0.2-0.2,0.3-0.4,0.4-0.6c0.1-0.2,0.1-0.5,0.1-0.8H3.7v-0.5
		h2.4V62.3z"/>
	<path id="XMLID_872_" class="st5" d="M7,58.3h0.5v0.9h0c0.1-0.3,0.3-0.6,0.6-0.8c0.3-0.2,0.6-0.3,0.9-0.2v0.5c-0.2,0-0.4,0-0.6,0.1
		C8.2,58.9,8,59,7.9,59.1c-0.1,0.1-0.2,0.3-0.3,0.5c-0.1,0.2-0.1,0.4-0.1,0.6v2.1H7V58.3z"/>
	<path id="XMLID_869_" class="st5" d="M11.9,60.1L11.9,60.1c0,0.1-0.1,0.1-0.2,0.1c-0.1,0-0.2,0-0.2,0.1c-0.2,0-0.4,0.1-0.6,0.1
		c-0.2,0-0.4,0.1-0.6,0.1c-0.2,0.1-0.3,0.1-0.4,0.2c-0.1,0.1-0.2,0.3-0.2,0.5c0,0.1,0,0.2,0.1,0.3c0,0.1,0.1,0.2,0.2,0.2
		c0.1,0.1,0.2,0.1,0.3,0.2c0.1,0,0.2,0.1,0.3,0.1c0.2,0,0.4,0,0.5-0.1c0.2-0.1,0.3-0.1,0.4-0.2c0.1-0.1,0.2-0.2,0.3-0.4
		c0.1-0.2,0.1-0.3,0.1-0.5V60.1z M9.3,59.5c0-0.5,0.2-0.8,0.5-1c0.3-0.2,0.7-0.3,1.1-0.3c0.2,0,0.4,0,0.5,0.1c0.2,0,0.3,0.1,0.5,0.2
		c0.1,0.1,0.3,0.2,0.3,0.4c0.1,0.2,0.1,0.4,0.1,0.7v2.1c0,0.2,0.1,0.3,0.3,0.3c0.1,0,0.1,0,0.2,0v0.4c-0.1,0-0.1,0-0.2,0
		c0,0-0.1,0-0.2,0c-0.1,0-0.2,0-0.3-0.1c-0.1,0-0.1-0.1-0.2-0.1C12,62,12,62,12,61.9c0-0.1,0-0.2,0-0.3h0c-0.1,0.1-0.2,0.2-0.3,0.3
		c-0.1,0.1-0.2,0.2-0.3,0.3c-0.1,0.1-0.2,0.1-0.4,0.2c-0.1,0-0.3,0.1-0.5,0.1c-0.2,0-0.4,0-0.5-0.1c-0.2,0-0.3-0.1-0.4-0.2
		c-0.1-0.1-0.2-0.2-0.3-0.4c-0.1-0.1-0.1-0.3-0.1-0.5c0-0.3,0.1-0.5,0.2-0.7c0.1-0.2,0.3-0.3,0.5-0.4c0.2-0.1,0.4-0.1,0.7-0.2
		c0.3,0,0.5-0.1,0.8-0.1c0.1,0,0.2,0,0.3,0c0.1,0,0.1,0,0.2-0.1c0.1,0,0.1-0.1,0.1-0.2c0-0.1,0-0.2,0-0.3c0-0.2,0-0.3-0.1-0.4
		c-0.1-0.1-0.1-0.2-0.2-0.3c-0.1-0.1-0.2-0.1-0.3-0.1c-0.1,0-0.3,0-0.4,0c-0.3,0-0.6,0.1-0.8,0.2c-0.2,0.1-0.3,0.4-0.3,0.7H9.3z"/>
	<path id="XMLID_866_" class="st5" d="M16.6,60.3c0-0.2,0-0.4-0.1-0.6c0-0.2-0.1-0.4-0.2-0.5c-0.1-0.2-0.2-0.3-0.4-0.4
		c-0.2-0.1-0.4-0.2-0.6-0.2c-0.3,0-0.5,0-0.7,0.1c-0.2,0.1-0.3,0.2-0.4,0.4c-0.1,0.2-0.2,0.3-0.2,0.5c0,0.2-0.1,0.4-0.1,0.7
		c0,0.2,0,0.4,0.1,0.6c0,0.2,0.1,0.4,0.2,0.5c0.1,0.2,0.3,0.3,0.4,0.4C14.8,62,15,62,15.2,62c0.2,0,0.4-0.1,0.6-0.2
		c0.2-0.1,0.3-0.2,0.4-0.4c0.1-0.2,0.2-0.3,0.2-0.5C16.5,60.7,16.6,60.5,16.6,60.3 M13.3,58.3h0.5V59h0c0.1-0.3,0.3-0.5,0.6-0.6
		c0.3-0.2,0.5-0.2,0.9-0.2c0.3,0,0.6,0.1,0.8,0.2c0.2,0.1,0.4,0.3,0.6,0.5c0.2,0.2,0.3,0.4,0.3,0.7C17,59.7,17,60,17,60.3
		c0,0.3,0,0.6-0.1,0.8c-0.1,0.3-0.2,0.5-0.3,0.7c-0.1,0.2-0.3,0.3-0.6,0.5c-0.2,0.1-0.5,0.2-0.8,0.2c-0.2,0-0.3,0-0.4-0.1
		c-0.1,0-0.3-0.1-0.4-0.2c-0.1-0.1-0.2-0.2-0.3-0.3c-0.1-0.1-0.2-0.2-0.2-0.4h0v2.2h-0.5V58.3z"/>
	<path id="XMLID_865_" class="st5" d="M17.7,56.7h0.5V59h0c0-0.1,0.1-0.2,0.2-0.3c0.1-0.1,0.2-0.2,0.3-0.3c0.1-0.1,0.2-0.1,0.4-0.2
		c0.1,0,0.3-0.1,0.4-0.1c0.3,0,0.5,0,0.7,0.1c0.2,0.1,0.3,0.2,0.5,0.3c0.1,0.1,0.2,0.3,0.2,0.5c0,0.2,0.1,0.4,0.1,0.6v2.6h-0.5v-2.5
		c0-0.2,0-0.3,0-0.5c0-0.1-0.1-0.3-0.2-0.4c-0.1-0.1-0.2-0.2-0.3-0.3c-0.1-0.1-0.3-0.1-0.5-0.1c-0.2,0-0.4,0-0.5,0.1
		c-0.2,0.1-0.3,0.2-0.4,0.3c-0.1,0.1-0.2,0.3-0.2,0.4c-0.1,0.2-0.1,0.4-0.1,0.5v2.3h-0.5V56.7z"/>
	<polygon id="XMLID_864_" class="st5" points="24.1,56.7 27.9,56.7 27.9,57.2 24.6,57.2 24.6,59.2 27.7,59.2 27.7,59.7 24.6,59.7 
		24.6,61.8 27.9,61.8 27.9,62.3 24.1,62.3 	"/>
	<g id="XMLID_860_">
		<path id="XMLID_861_" class="st5" d="M28.8,60.3c0,0.2,0,0.4,0.1,0.6c0,0.2,0.1,0.4,0.2,0.5c0.1,0.2,0.2,0.3,0.4,0.4
			c0.2,0.1,0.4,0.2,0.6,0.2c0.3,0,0.5-0.1,0.7-0.2c0.2-0.1,0.3-0.2,0.4-0.4c0.1-0.2,0.2-0.3,0.2-0.5c0-0.2,0.1-0.4,0.1-0.6
			c0-0.2,0-0.4-0.1-0.6c0-0.2-0.1-0.4-0.2-0.5c-0.1-0.2-0.3-0.3-0.4-0.4c-0.2-0.1-0.4-0.2-0.7-0.2c-0.2,0-0.4,0.1-0.6,0.2
			c-0.2,0.1-0.3,0.2-0.4,0.4c-0.1,0.2-0.2,0.3-0.2,0.5C28.9,59.9,28.8,60.1,28.8,60.3 M32.1,62.3h-0.5v-0.8h0
			c-0.1,0.1-0.1,0.2-0.2,0.4c-0.1,0.1-0.2,0.2-0.3,0.3c-0.1,0.1-0.3,0.1-0.4,0.2c-0.1,0-0.3,0.1-0.4,0.1c-0.3,0-0.6-0.1-0.8-0.2
			c-0.2-0.1-0.4-0.3-0.6-0.5c-0.2-0.2-0.3-0.4-0.3-0.7c-0.1-0.3-0.1-0.5-0.1-0.8c0-0.3,0-0.6,0.1-0.8c0.1-0.3,0.2-0.5,0.3-0.7
			c0.1-0.2,0.3-0.3,0.6-0.5c0.2-0.1,0.5-0.2,0.8-0.2c0.2,0,0.3,0,0.4,0.1c0.1,0,0.3,0.1,0.4,0.2c0.1,0.1,0.2,0.2,0.3,0.3
			c0.1,0.1,0.2,0.2,0.2,0.4h0v-2.3h0.5V62.3z"/>
	</g>
	<path id="XMLID_857_" class="st5" d="M32.9,62.3h0.5v-4h-0.5V62.3z M32.9,57.5h0.5v-0.8h-0.5V57.5z"/>
	<g id="XMLID_855_">
		<path id="XMLID_856_" class="st5" d="M37.2,59.5c-0.1-0.3-0.2-0.5-0.4-0.7c-0.2-0.2-0.4-0.3-0.8-0.3c-0.2,0-0.4,0-0.6,0.1
			c-0.2,0.1-0.3,0.2-0.4,0.4c-0.1,0.2-0.2,0.3-0.3,0.5c-0.1,0.2-0.1,0.4-0.1,0.6s0,0.4,0.1,0.6c0.1,0.2,0.1,0.4,0.3,0.5
			c0.1,0.2,0.3,0.3,0.4,0.4C35.6,62,35.8,62,36,62c0.1,0,0.3,0,0.4-0.1c0.1-0.1,0.3-0.1,0.4-0.2c0.1-0.1,0.2-0.2,0.3-0.4
			c0.1-0.1,0.1-0.3,0.1-0.5h0.5c-0.1,0.5-0.2,0.9-0.5,1.1c-0.3,0.3-0.7,0.4-1.1,0.4c-0.3,0-0.6-0.1-0.8-0.2
			c-0.2-0.1-0.4-0.3-0.6-0.5c-0.2-0.2-0.3-0.4-0.4-0.7c-0.1-0.3-0.1-0.5-0.1-0.8c0-0.3,0-0.6,0.1-0.8c0.1-0.3,0.2-0.5,0.4-0.7
			c0.2-0.2,0.4-0.3,0.6-0.5c0.2-0.1,0.5-0.2,0.8-0.2c0.4,0,0.8,0.1,1.1,0.3c0.3,0.2,0.5,0.6,0.5,1H37.2z"/>
	</g>
	<path id="XMLID_852_" class="st5" d="M38.3,62.3h0.5v-4h-0.5V62.3z M38.3,57.5h0.5v-0.8h-0.5V57.5z"/>
	<g id="XMLID_835_">
		<path id="XMLID_849_" class="st5" d="M41.4,58.6c-0.2,0-0.4,0-0.6,0.1c-0.2,0.1-0.3,0.2-0.4,0.4c-0.1,0.2-0.2,0.3-0.3,0.5
			C40,59.9,40,60.1,40,60.3c0,0.2,0,0.4,0.1,0.6c0.1,0.2,0.1,0.4,0.3,0.5c0.1,0.2,0.3,0.3,0.4,0.4c0.2,0.1,0.4,0.1,0.6,0.1
			c0.2,0,0.4-0.1,0.6-0.1c0.2-0.1,0.3-0.2,0.4-0.4c0.1-0.2,0.2-0.3,0.3-0.5c0.1-0.2,0.1-0.4,0.1-0.6c0-0.2,0-0.4-0.1-0.6
			c-0.1-0.2-0.1-0.4-0.3-0.5c-0.1-0.2-0.3-0.3-0.4-0.4C41.8,58.6,41.6,58.6,41.4,58.6 M41.4,58.2c0.3,0,0.6,0.1,0.8,0.2
			c0.2,0.1,0.4,0.3,0.6,0.5c0.2,0.2,0.3,0.4,0.4,0.7c0.1,0.3,0.1,0.5,0.1,0.8c0,0.3,0,0.6-0.1,0.8c-0.1,0.3-0.2,0.5-0.4,0.7
			c-0.2,0.2-0.4,0.3-0.6,0.5c-0.2,0.1-0.5,0.2-0.8,0.2c-0.3,0-0.6-0.1-0.8-0.2c-0.2-0.1-0.4-0.3-0.6-0.5c-0.2-0.2-0.3-0.4-0.4-0.7
			c-0.1-0.3-0.1-0.5-0.1-0.8c0-0.3,0-0.6,0.1-0.8c0.1-0.3,0.2-0.5,0.4-0.7c0.2-0.2,0.4-0.3,0.6-0.5C40.8,58.2,41.1,58.2,41.4,58.2"
			/>
		<path id="XMLID_848_" class="st5" d="M43.9,58.3h0.5V59h0c0-0.1,0.1-0.2,0.2-0.3c0.1-0.1,0.2-0.2,0.3-0.3c0.1-0.1,0.2-0.1,0.4-0.2
			c0.1,0,0.3-0.1,0.4-0.1c0.3,0,0.5,0,0.7,0.1c0.2,0.1,0.3,0.2,0.5,0.3c0.1,0.1,0.2,0.3,0.2,0.5c0,0.2,0.1,0.4,0.1,0.6v2.6h-0.5
			v-2.5c0-0.2,0-0.3,0-0.5c0-0.1-0.1-0.3-0.2-0.4c-0.1-0.1-0.2-0.2-0.3-0.3c-0.1-0.1-0.3-0.1-0.5-0.1c-0.2,0-0.4,0-0.5,0.1
			c-0.2,0.1-0.3,0.2-0.4,0.3c-0.1,0.1-0.2,0.3-0.2,0.4c-0.1,0.2-0.1,0.4-0.1,0.5v2.3h-0.5V58.3z"/>
		<path id="XMLID_845_" class="st5" d="M51,60c0-0.2,0-0.4-0.1-0.5c-0.1-0.2-0.1-0.3-0.3-0.5c-0.1-0.1-0.2-0.2-0.4-0.3
			c-0.2-0.1-0.3-0.1-0.5-0.1c-0.2,0-0.4,0-0.5,0.1c-0.2,0.1-0.3,0.2-0.4,0.3c-0.1,0.1-0.2,0.3-0.3,0.5c-0.1,0.2-0.1,0.4-0.1,0.5H51z
			 M48.4,60.4c0,0.2,0,0.4,0.1,0.6c0.1,0.2,0.1,0.4,0.2,0.5c0.1,0.2,0.2,0.3,0.4,0.4c0.2,0.1,0.4,0.1,0.6,0.1c0.4,0,0.6-0.1,0.8-0.3
			c0.2-0.2,0.3-0.4,0.4-0.7h0.5c-0.1,0.5-0.3,0.8-0.6,1.1c-0.3,0.3-0.7,0.4-1.2,0.4c-0.3,0-0.6-0.1-0.8-0.2
			c-0.2-0.1-0.4-0.3-0.6-0.5c-0.1-0.2-0.3-0.4-0.3-0.7c-0.1-0.3-0.1-0.5-0.1-0.8c0-0.3,0-0.5,0.1-0.8c0.1-0.3,0.2-0.5,0.3-0.7
			s0.3-0.4,0.6-0.5c0.2-0.1,0.5-0.2,0.8-0.2c0.3,0,0.6,0.1,0.8,0.2c0.2,0.1,0.4,0.3,0.6,0.5c0.1,0.2,0.2,0.5,0.3,0.7
			c0.1,0.3,0.1,0.5,0.1,0.8H48.4z"/>
		<path id="XMLID_844_" class="st5" d="M54.4,59.5c0-0.2,0-0.3-0.1-0.4c-0.1-0.1-0.1-0.2-0.2-0.3c-0.1-0.1-0.2-0.1-0.3-0.2
			c-0.1,0-0.3-0.1-0.4-0.1c-0.1,0-0.2,0-0.3,0c-0.1,0-0.2,0.1-0.3,0.1c-0.1,0.1-0.2,0.1-0.2,0.2c-0.1,0.1-0.1,0.2-0.1,0.3
			c0,0.1,0,0.2,0.1,0.3c0.1,0.1,0.1,0.1,0.2,0.2c0.1,0.1,0.2,0.1,0.3,0.1c0.1,0,0.2,0.1,0.3,0.1l0.7,0.1c0.1,0,0.3,0.1,0.4,0.1
			c0.1,0.1,0.3,0.1,0.4,0.2c0.1,0.1,0.2,0.2,0.3,0.3c0.1,0.1,0.1,0.3,0.1,0.5c0,0.2,0,0.4-0.1,0.6c-0.1,0.2-0.2,0.3-0.4,0.4
			c-0.2,0.1-0.3,0.2-0.5,0.2c-0.2,0-0.4,0.1-0.6,0.1c-0.5,0-0.9-0.1-1.1-0.3c-0.3-0.2-0.5-0.6-0.5-1.1h0.5c0,0.3,0.1,0.6,0.4,0.8
			c0.2,0.2,0.5,0.3,0.8,0.3c0.1,0,0.2,0,0.4,0c0.1,0,0.2-0.1,0.4-0.1c0.1-0.1,0.2-0.1,0.3-0.2c0.1-0.1,0.1-0.2,0.1-0.4
			c0-0.1,0-0.2-0.1-0.3c0-0.1-0.1-0.2-0.2-0.2c-0.1-0.1-0.2-0.1-0.3-0.1c-0.1,0-0.2-0.1-0.3-0.1l-0.6-0.1c-0.2,0-0.3-0.1-0.4-0.1
			c-0.1-0.1-0.3-0.1-0.4-0.2c-0.1-0.1-0.2-0.2-0.2-0.3C52,59.6,52,59.5,52,59.3c0-0.2,0-0.4,0.1-0.5c0.1-0.1,0.2-0.3,0.4-0.4
			c0.1-0.1,0.3-0.2,0.5-0.2c0.2,0,0.4-0.1,0.5-0.1c0.2,0,0.4,0,0.6,0.1c0.2,0.1,0.3,0.1,0.5,0.2c0.1,0.1,0.2,0.2,0.3,0.4
			c0.1,0.2,0.1,0.4,0.1,0.6H54.4z"/>
		<path id="XMLID_841_" class="st5" d="M11.2,42.2c-0.2,0.2-0.5,0.4-0.9,0.6C9.9,42.9,9.5,43,9,43c-0.5,0.1-1,0.1-1.5,0.1
			c-0.5,0-1.1,0.1-1.6,0.2c-1.3,0.2-2.3,0.5-3,1s-1,1.3-1,2.4c0,0.9,0.3,1.7,1,2.3C3.4,49.6,4.4,50,5.7,50c1.2,0,2.2-0.2,3-0.7
			c0.7-0.4,1.3-1,1.7-1.5c0.4-0.6,0.6-1.1,0.7-1.7c0.1-0.5,0.2-0.9,0.2-1.1V42.2z M12.3,47.8c0,0.2,0,0.4,0,0.6c0,0.2,0,0.4,0.1,0.6
			c0.1,0.2,0.2,0.3,0.3,0.4c0.1,0.1,0.3,0.2,0.6,0.2c0.2,0,0.5,0,0.8-0.1v0.9c-0.2,0-0.3,0.1-0.4,0.1c-0.1,0-0.3,0-0.4,0
			c-0.4,0-0.8-0.1-1-0.2c-0.3-0.1-0.5-0.3-0.6-0.5c-0.1-0.2-0.2-0.4-0.3-0.7c0-0.3-0.1-0.5-0.1-0.8v-0.8h-0.1
			c-0.2,0.4-0.4,0.9-0.7,1.2c-0.3,0.4-0.7,0.7-1.2,1c-0.5,0.3-1,0.5-1.6,0.7c-0.6,0.2-1.2,0.3-1.9,0.3c-0.7,0-1.3-0.1-1.9-0.2
			c-0.6-0.1-1.1-0.4-1.6-0.7c-0.4-0.3-0.8-0.8-1-1.3c-0.2-0.5-0.4-1.2-0.4-2c0-0.9,0.2-1.6,0.5-2.1c0.3-0.5,0.8-1,1.3-1.3
			C3,43,3.6,42.8,4.2,42.7c0.6-0.1,1.3-0.2,1.9-0.3c1.2-0.1,2.2-0.2,2.9-0.3c0.7-0.1,1.2-0.3,1.5-0.5c0.3-0.2,0.5-0.5,0.6-0.9
			c0.1-0.4,0.1-0.8,0.1-1.4c0-0.2-0.1-0.4-0.2-0.7c-0.1-0.3-0.3-0.6-0.6-1c-0.3-0.3-0.7-0.6-1.2-0.8c-0.5-0.2-1.2-0.4-2.1-0.4
			c-1.3,0-2.4,0.3-3.2,1c-0.8,0.7-1.3,1.6-1.3,2.9H1.5c0.1-1.6,0.6-2.8,1.6-3.7c1-0.8,2.3-1.2,4.1-1.2c0.6,0,1.3,0.1,1.9,0.2
			c0.6,0.1,1.2,0.3,1.6,0.6c0.5,0.3,0.9,0.7,1.2,1.2c0.3,0.5,0.4,1.1,0.4,1.9V47.8z"/>
		<path id="XMLID_838_" class="st5" d="M21.7,50c1,0,1.8-0.2,2.5-0.5c0.7-0.4,1.3-0.9,1.7-1.5c0.4-0.6,0.8-1.3,1-2.1
			c0.2-0.8,0.3-1.7,0.3-2.6c0-0.8-0.1-1.7-0.3-2.5c-0.2-0.8-0.5-1.5-1-2.2c-0.4-0.6-1-1.2-1.7-1.5c-0.7-0.4-1.5-0.6-2.5-0.6
			c-1,0-1.8,0.2-2.5,0.6c-0.7,0.4-1.2,0.9-1.7,1.5c-0.4,0.6-0.7,1.4-0.9,2.2c-0.2,0.8-0.3,1.7-0.3,2.5c0,0.9,0.1,1.7,0.3,2.5
			c0.2,0.8,0.5,1.5,0.9,2.1c0.4,0.6,1,1.1,1.7,1.5C19.8,49.8,20.7,50,21.7,50 M16.3,39.2L16.3,39.2c0.2-0.4,0.4-0.8,0.7-1.2
			c0.3-0.4,0.6-0.8,1.1-1.2c0.4-0.4,1-0.7,1.6-0.9c0.6-0.2,1.3-0.4,2.1-0.4c1.1,0,2.1,0.2,2.9,0.6c0.8,0.4,1.5,1,2.1,1.7
			c0.5,0.7,0.9,1.5,1.2,2.5c0.3,0.9,0.4,1.9,0.4,3c0,1.1-0.1,2.2-0.4,3.1c-0.3,0.9-0.7,1.7-1.2,2.4c-0.5,0.7-1.2,1.2-2.1,1.6
			c-0.8,0.4-1.8,0.6-2.9,0.6c-1.2,0-2.3-0.3-3.3-0.8c-1-0.5-1.7-1.4-2.1-2.6h-0.1v7.4h-1.1v-19h1.1V39.2z"/>
		<path id="XMLID_837_" class="st5" d="M41.8,50.6h-1.1v-3.2h-0.1c-0.2,0.6-0.5,1-0.8,1.5c-0.4,0.4-0.8,0.8-1.2,1.1
			c-0.5,0.3-1,0.5-1.5,0.7c-0.6,0.2-1.1,0.2-1.7,0.2c-0.9,0-1.6-0.1-2.2-0.3c-0.6-0.2-1.1-0.5-1.5-0.8c-0.4-0.3-0.7-0.7-0.9-1.2
			c-0.2-0.4-0.4-0.9-0.5-1.3c-0.1-0.4-0.2-0.9-0.2-1.3c0-0.4,0-0.8,0-1.1v-9.1h1.1v9.3c0,0.4,0,0.8,0.1,1.4c0.1,0.5,0.2,1.1,0.5,1.6
			c0.3,0.5,0.7,0.9,1.2,1.3c0.6,0.4,1.3,0.5,2.3,0.5c0.8,0,1.6-0.2,2.2-0.5c0.7-0.3,1.2-0.7,1.7-1.3c0.5-0.5,0.8-1.2,1-1.9
			c0.2-0.8,0.4-1.6,0.4-2.5v-8h1.1V50.6z"/>
		<path id="XMLID_836_" class="st5" d="M44.8,45.7c0,0.7,0.2,1.3,0.5,1.8c0.3,0.5,0.6,1,1,1.3c0.4,0.4,0.9,0.7,1.5,0.8
			c0.6,0.2,1.2,0.3,1.9,0.3c0.5,0,1,0,1.5-0.1c0.5-0.1,1-0.2,1.5-0.5c0.5-0.2,0.9-0.5,1.2-1c0.3-0.4,0.5-0.9,0.5-1.6
			c0-0.6-0.1-1.1-0.4-1.5c-0.3-0.4-0.7-0.7-1.1-0.9c-0.5-0.2-1-0.4-1.6-0.5c-0.6-0.1-1.2-0.3-1.8-0.4c-0.6-0.1-1.2-0.3-1.9-0.5
			c-0.6-0.2-1.2-0.4-1.6-0.7c-0.5-0.3-0.9-0.7-1.1-1.2c-0.3-0.5-0.4-1.1-0.4-1.8c0-0.7,0.2-1.3,0.5-1.8c0.3-0.5,0.7-0.9,1.2-1.2
			c0.5-0.3,1.1-0.5,1.7-0.6c0.6-0.1,1.3-0.2,1.9-0.2c0.8,0,1.5,0.1,2.2,0.3c0.7,0.2,1.2,0.4,1.7,0.8c0.5,0.4,0.9,0.9,1.1,1.5
			c0.3,0.6,0.4,1.3,0.4,2.1h-1.1c0-0.7-0.1-1.2-0.3-1.7c-0.2-0.5-0.5-0.9-0.9-1.2c-0.4-0.3-0.8-0.5-1.4-0.7
			c-0.5-0.1-1.1-0.2-1.7-0.2c-0.5,0-1,0-1.5,0.1c-0.5,0.1-1,0.3-1.4,0.5c-0.4,0.2-0.7,0.5-1,0.9c-0.3,0.4-0.4,0.8-0.4,1.3
			c0,0.6,0.1,1.1,0.4,1.4c0.3,0.4,0.7,0.7,1.1,0.9c0.5,0.2,1,0.4,1.6,0.5c0.6,0.1,1.2,0.3,1.8,0.4c0.7,0.1,1.4,0.3,2,0.5
			c0.6,0.2,1.2,0.4,1.7,0.7c0.5,0.3,0.8,0.7,1.1,1.2c0.3,0.5,0.4,1.1,0.4,1.9c0,0.8-0.2,1.5-0.5,2c-0.4,0.5-0.8,0.9-1.4,1.2
			c-0.6,0.3-1.2,0.5-1.8,0.7c-0.7,0.1-1.3,0.2-2,0.2c-0.8,0-1.6-0.1-2.3-0.3c-0.7-0.2-1.3-0.6-1.9-1c-0.5-0.4-1-1-1.3-1.6
			c-0.3-0.6-0.5-1.4-0.5-2.3H44.8z"/>
	</g>
</g>
</svg>
