<?xml version="1.0" encoding="utf-8"?>
<!-- Generator: Adobe Illustrator 19.0.0, SVG Export Plug-In . SVG Version: 6.00 Build 0)  -->
<svg version="1.1" id="Capa_1" xmlns="http://www.w3.org/2000/svg" xmlns:xlink="http://www.w3.org/1999/xlink" x="0px" y="0px"
	 viewBox="0 0 96.6 115" style="enable-background:new 0 0 96.6 115;" xml:space="preserve">
<style type="text/css">
	.st0{fill:#E31F7D;}
	.st1{fill:#7B9D2B;}
	.st2{fill:#2E4A98;}
	.st3{fill:#672780;}
	.st4{fill:#1F9AD7;}
	.st5{fill:#E87612;}
	.st6{fill:#F7C4B6;}
	.st7{fill:#5E4F9C;}
	.st8{fill:#86BD38;}
	.st9{fill:#D89434;}
	.st10{fill:#775C35;}
	.st11{fill:#E02580;}
	.st12{fill:#A07B47;}
	.st13{fill:#941C7E;}
	.st14{fill:#2F58A1;}
	.st15{fill:#755B34;}
	.st16{fill:#179646;}
	.st17{fill:#775D32;}
	.st18{fill:#942180;}
	.st19{fill:#BF1F80;}
	.st20{fill:#332E81;}
	.st21{fill:#F19011;}
	.st22{fill:#EC861B;}
	.st23{fill:#19532D;}
	.st24{fill:#48519A;}
	.st25{fill:#F7C4B4;}
	.st26{fill:#0BA2D8;}
	.st27{fill:#F7C11D;}
	.st28{fill:#765A34;}
	.st29{fill:#6D160E;}
	.st30{fill:#785B36;}
	.st31{fill:#8B581B;}
	.st32{fill:#D8D8DC;}
	.st33{fill:#531D0F;}
	.st34{fill:none;stroke:#FFFFFF;stroke-width:0.963;}
	.st35{fill:#1A773D;}
</style>
<g id="XMLID_41_">
	<path id="XMLID_160_" class="st0" d="M71,37c0.2,0.4,0,1.2,0.4,1.2c0.7,0,0.9-0.3,1.7-0.3l1.1-0.1l0.5-0.5
		c-0.3-1.1-0.8-1.2-0.8-2.5c0-1.5-0.2-2.1-0.3-3.1c-0.6-0.2-0.1-0.4-0.7-0.4h-0.3l-1.1,0c-0.5,0-0.8,1.4-1.9,1.4
		c-1.2,0.1-1.8,0.2-2.1,1.1H67c-0.2-0.6-0.3-0.2-0.3-0.7c0-2.5,3.3-0.6,3.5-3.1l1.4-0.7l0.1,0.1c0.2-0.4,0.5-0.8,0.5-1.2v-0.8h0.4
		l0.1-0.9c-0.6,0.7-0.3,0.9-1.7,0.9h-1.3c-0.9,0-1.8-0.9-2.1-1.6c-0.5-1.2-0.4-1.6-0.4-3.2l-0.4,0.3l-2-0.3l-0.5,1.6
		c-1.4,1.1-1.4-0.5-1.4,2.2l-0.3,0.2l-1,0c-0.3,0.4-0.3,0.9-0.8,0.9h-0.1c-0.5,0-0.5-0.7-0.5-1.2l1.6-0.8v-1.5
		c0.9-1.3,0.3-0.6,1.6-1.5l0.2-1.7l0.3,0v-0.3h-0.7l-0.4-0.3c-1.4,0-3.4,0-4.9-0.1c-1.4-0.1-1-0.6-1.3,0.9c-0.1,0.7-0.8,1.3-0.8,1.6
		c0,0.4,3.9,0.3,3.9,1.5c0,0.1-2.5,2.2-2.9,2.5c-0.8,0.5-2.6,1.6-2.6,2.7v0.8c0,0.7,1.8,2.3,2.2,2.9c0.7,1.1,1,2.3,1.9,3.2
		c1.1,1.1,2.1,1,3.4,1.7c0.9,0.5,2.5,2.1,2.9,2.1h0.3c0.8,0,2.4-1.7,3-2.2c0.8-0.7,1.7-2.1,2-3.2C70.3,34.9,70.8,36.4,71,37"/>
	<path id="XMLID_159_" class="st1" d="M32.4,71.9c-0.8,0.3-0.1,1.8-1.8,2.1l-0.5,0.3c0,0,3,2.4,3.2,2.5c0.6,0.3,2.9,2.7,3.2,2.7
		c0.3,0,2.4-2.9,4.3-2.9H41c1.1,0,2.1,0.9,2.6,1.6c0.9,1.2,0.7,1.8,1.3,3c0.9-0.1,6.3-2.6,6.7-3.1l-1.3-1.3c0.1-0.7,0.3-1.5-0.3-1.5
		c-0.2,0-2.7,1.8-2.7,0.7c0-0.8,1.9-3.7,1.9-5.1v-0.1c0-0.9-2.1-1-2.8-1.4c-0.9-0.4-1.8-1.1-2.8-1.3c-1.2-0.3-2.7,0.1-3.9,0.1
		c-2.2,0-2,0.1-3.6,0.5v1.9l0.3,3.5c0,0.3-0.3,0.5-0.6,0.5C35.4,74.4,32.6,72.3,32.4,71.9"/>
	<path id="XMLID_158_" class="st2" d="M22.1,27.2l-0.9,0.1l0.8,2.6l-0.1,0l0.3,0.4l0.1,2.4c0.2,3.4-1.4,7-2.9,8.7
		c-0.6,0.6-0.6,0.9-1.3,1.6c-0.4,0.4-1.1,1-1.5,1.4c-0.8,0.6-1.1,0.4-1.8,1.2c-0.6,0.6-0.8,0.8-1.8,1V47c0.3,0.5,1.5,1.9,2.1,1.9
		c0.4,0,0.4-0.1,0.7-0.1l0.9-0.5c1.4,0,3.6-0.5,4.6-0.9c1.8-0.7,1.8-1.4,2.5-3.2c1.1-2.6,4.1-3.6,4.1-7.2l0.1-0.7l-0.5-2.6
		c-0.2-0.9,0.4-2.3,0.4-2.8v-2.1c0-0.6-1.5-2.7-1.7-3.2c-0.4-0.1-0.3-0.1-0.5-0.1C25.1,25.3,22.9,27.1,22.1,27.2"/>
	<path id="XMLID_157_" class="st3" d="M75,61.8c1.2-0.6,6.2-4.4,6.8-5.3c-0.2-0.6-1.2-0.7-2-0.8c-0.9-0.1-1.3-0.5-2-0.8
		c-1.4-0.7-1.9-1.6-2.7-2.9c-1-1.5-1.8-1.7-2.7-2.9c-0.5-0.6-1.2-3.2-1.2-4.2l-0.7-0.4c-1.9,0-1.8,0.5-2.7,1.6
		c-0.4,0.5-1.4,1.9-1.4,2.7v3.1c0,1.2,1.6,2.8,2,4.2c0.4,1.3,0,1.3,1.5,1.5c0.7,0.1,2.3,0.1,2.3,0.7c0,0.7-0.3,0.9-0.3,1.7
		c0,0.5,0.3,0.4,0.8,0.4l1.9,1.3L75,61.8z"/>
	<path id="XMLID_156_" class="st4" d="M14.9,58.8c0.2-0.3,0.4-0.8,0.8-0.8h1.5c0.5,0,0.6,0.2,0.9,0.4c2,0,2.1,0.8,3.5,0.8
		c0.9,0.6,1.7,0.4,2.5,1.3c0.6,0.7,0.9,1.8,0.9,3c0,2-0.9,1.7-0.9,3.9c0,0.3,0.1,0.3,0.3,0.5h1.7l2.7-0.1c0.6,0,2.5,0.4,2.8,0
		c0,0,0.3-2.7,0.3-2.7c0-1.3-0.3-3.5-0.9-4.3c-0.4-0.5-0.8-0.9-1.2-1.4c-0.6-0.7-0.2-1.2-0.9-1.6c0-1.5-1.1-2.2-2.1-2.9
		c-0.4-0.3-1.6-2.5-1.8-3H24c-0.4,1.4-2.2,1.9-2.8,2.9c-0.3,0.5-0.9,0.9-1.4,1.6c-0.5,0.7-0.3,1.3-1.3,1.5v-2.7
		c0-0.6,0.2-0.4,0.3-1.2H18c-1.1,0-1.1-0.6-1.9-0.4V54c0,0.2-1.6,3.9-1.6,4.3C14.5,58.7,14.7,58.7,14.9,58.8"/>
	<path id="XMLID_155_" class="st5" d="M33.6,22.4v0.5c0.2,0.2,0.3,0.2,0.3,0.5v0.4c0.9,0.2,0.5,1.8,0.9,2.7l1.2,0.7
		c0.7,0.2,1.7,0.5,2.5,0.5h1.5c1.4,0,2.8-1.6,4.4-2.1c2-0.6,4.1,0.1,4.1-2.5c0-1.1-0.8-3-0.8-4c0-0.3,0.2-0.5,0.4-0.5
		c0.3,0,1.6,0.8,1.8,1c0.6,0.5,0.6,1.1,1.6,1.2c0.2-1.4,1.9-1.7,2.4-2.4c-0.6-0.7-1.1-0.5-1.7-1.5c-0.4-0.8-0.7-1.4-1.6-1.7
		c-1.5-0.6-2.3-2.8-3.5-3.1c0.4,1.6-0.4,3.5-1.1,4.6c-0.8,1.2-1.7,2.2-2.9,2.9c-1.2,0.8-0.7,0.7-1.4,1.5c-0.4,0.4-1.3,0.7-1.9,1
		c-1.5,0.8-3.3,0.5-4.9,0.5h-0.5c-0.3,0-0.3,0-0.5,0.1L33.6,22.4z"/>
	<path id="XMLID_151_" class="st6" d="M55.7,22.5l0.6-1.1c-0.1-1,0.3-1.4-0.7-1.6c-0.3-0.3-0.5-0.6-0.9-0.8
		c-0.8-0.4-0.7-0.5-1.7,0.1c-0.7,0.4-1.3,0.7-1.4,1.7l0.2,0.4c0.9,1.3,1.3,1.7,2.4,2C55.2,23.1,55.3,23.2,55.7,22.5 M59.5,41
		L59.5,41c-0.5,0.2-2,0.5-2.5,0.4c-0.8-0.2-1.2-0.9-0.6-2.2c0.3-0.7,0.9-1.2,1.3-1.7l0.3-0.3l0,0l1,0.6l1.4,0.6l1.1,0.6l0.4,0.6
		C61.4,40,60.5,40.6,59.5,41 M55.1,33c0,0.8-1.7,2.6-1.7,3.6l0,0.7c0.3,1.1,0.7,1.4,1.5,1.3c1.1,0,1.6-0.7,2.3-1.4l0.4-0.4l-0.3-0.3
		l-0.7-1.3L55.9,34L55.1,33z"/>
	<path id="XMLID_150_" class="st7" d="M67.8,68.7c-0.7,0.6-3.5,2.1-4.6,2.8c-1.5,0.9-3.1,1.9-3.6,3.8l-3.9-0.4
		c-0.9-0.1-1.2-0.8-1.2,0.7c0,1.1-0.1,1.2-0.5,1.9l0.1,0.4c0.2,0.1,9.3,1.9,9.7,1.9c0.3,0,0.2,0,0.6-0.1c-0.1-0.7-0.4-1.7-0.4-2.3
		v-0.9c0-0.3,0.6-1.8,0.9-2c0.4-0.4,1.4-1,2.1-1h1.3c0.7,0,2.3,0.9,2.7,0.9c0.8,0,1.5-3,1.5-4c0-1-0.1-1.8,0.2-2.6
		c0.1-0.2,0.5-2.2,0.5-2.3l-0.4-0.3c-1.8,0-1.6-0.6-2.4-0.6C69.5,64.3,68.9,68.4,67.8,68.7"/>
	<path id="XMLID_149_" class="st5" d="M29.4,18.1l-0.8,2.5l-0.4,1.6c0.5,0.2,1.2,0.3,1.6,0.5c0.9,0.5,0.4,1,1.2,1.1
		c0.2-0.7,1.1-2.7,1.8-2.8l0.2,0.3c0.1-0.8,2.4-0.8,3-1.1c1.3-0.5,1.8-0.7,2.7-1.5c0.7-0.6,1.8-1.4,2-2.2c0.3-1,0.8-2.1,1.4-2.9
		c0-1,0.3-1.1,0.3-1.6v-0.4c0-0.6-0.3-0.5-0.3-1.5l-1.5,2.1c-0.8,0-0.8,0.7-2.4,0.7c-1.3,0-3.1-1.5-3.6-1.5h-0.1c-0.1,0-1.9,1-2,1.1
		c-0.3,0.3-1,1.3-1.2,1.8C30.9,16,30.5,16.9,29.4,18.1"/>
	<path id="XMLID_148_" class="st8" d="M16,27.9l1.2,0l0.9,1.6l0.2,2.1l0,0.9l-0.2,1.6c-0.4,0.6-0.5,1.9-1.1,2.9
		c-0.7,1.2-0.8,1.4-1.6,2.5c-0.6,0.8-3.6,3.5-5,2.9c0.2,1,1,1.4,1.3,2.1c0.4,0.7,0.5,1.9,1.2,2.4v-0.4c1-0.2,1.2-0.4,1.8-1
		c0.7-0.7,1-0.5,1.8-1.1c0.5-0.4,1.1-1,1.5-1.4c0.7-0.7,0.8-1,1.3-1.6c1.5-1.7,3.2-5.3,2.9-8.7l-0.2-2.4L22,29.9l-0.8-2.6l0.9-0.1
		L16,27.9z"/>
	<path id="XMLID_147_" class="st9" d="M36.5,28.9l0.1,0.9c0.4,0.2,1.8,1.7,2,2.3c0.5,1.3,0.1,2.2,1.1,3.3c0.7,0.5,0.7,1,1.9,0.7
		c0.6-0.1,1.6-0.6,1.6-1.2c0-0.9-0.3-1.8-0.3-2.5v-0.8h0.4c0,0.1,0.5,2.2,0.5,2.3c0.2,0.6,0.6,1.3,1.4,1.3h0.9
		c1.7,0,1.6-5.7,1.6-7.5v-0.5l0.2-1.6l-0.7,0.2c-1.9,0-2.9,0.1-3.9,1c-0.7,0.6-2,1.6-3.2,1.6H39c-0.3,0-2.1-0.3-2.3-0.4l-0.2,0.3
		L36.5,28.9z"/>
	<path id="XMLID_146_" class="st2" d="M10.4,42.5c1.4,0.7,4.4-2,5-2.9c0.9-1.1,0.9-1.3,1.6-2.5c0.6-1,0.7-2.3,1.1-2.9l0.2-1.6l0-0.9
		l-0.2-2.1L17.2,28l-1.2,0c-0.9,0.4-3.3,0.8-3.7,1.5c0.6,1.1,1.6,2.7,1.6,4.4c0,1.4-0.7,1.5-1.5,2.1c-0.6,0.5-1.2,1.2-2.4,1.2H9.2
		c-0.1,0.5-0.3,0.7-0.3,1.3C8.9,38.8,10.3,42.2,10.4,42.5"/>
	<path id="XMLID_145_" class="st3" d="M73.1,41.9c-0.4,0.3-0.8-0.1-0.8,0.5v0.1c0,1,0.5,1.5,0.5,3.2l0.3,0.4c0,3.1,2.1,2.7,3.4,5.1
		c0.5,0.9,3.9,3.9,5.2,3c-0.9-0.8-2.3-2-2.3-3.6v-0.1c0-2.3,2.9-3.7,2.9-4.3c0-0.8-6.3-5.5-7.4-5.5l-1.5,1.1H73.1z"/>
	<path id="XMLID_144_" class="st10" d="M42.9,9.8h-0.7v0.3c0,1,0.3,0.9,0.3,1.5V12c0,0.5-0.3,0.6-0.3,1.6c-0.5,0.8-1,1.9-1.4,2.9
		c-0.3,0.8-1.4,1.7-2,2.2c-1,0.8-1.5,1.1-2.7,1.5c-0.7,0.2-3,0.2-3,1.1l0.5,1.1l0.3,0.1c0.2-0.1,0.2-0.1,0.5-0.1h0.5
		c1.6,0,3.3,0.3,4.9-0.5c0.6-0.3,1.5-0.7,1.9-1c0.8-0.8,0.3-0.7,1.4-1.5c1.2-0.8,2.1-1.7,2.9-2.9c0.7-1.1,1.5-3,1.1-4.6
		c-0.4-0.2-1.3-0.7-1.3-1.1c0-0.3,0.7-1,0.7-1.5c0-0.4-1-0.9-1.3-0.9c-0.5,0-1,1.7-1.6,1.7C43.1,10.1,43.4,10,42.9,9.8"/>
	<path id="XMLID_143_" class="st11" d="M85.2,54.7c0.1,0.3,0.5,0.9,0.8,0.9c0.8,0,2-1.3,3.7-1.3c1.6-1.1,4.8-0.9,4.8-3.6
		c-0.7-0.5-0.4-0.9-1.6-1.5c-0.6-0.3-1.3-0.8-1.9-1.2c-0.4-0.2-3.7-2.4-3.8-2.4c-0.9,0-1.4,1-1.8,1.7c-1.1,1.7-1,3.8-1,5.8
		C84.5,53.8,85,54.1,85.2,54.7"/>
	<path id="XMLID_142_" class="st7" d="M58.6,73.6c0.3-0.1,1-1.5,1.6-2c0.7-0.6,1.3-0.9,2.2-1.4c0.8-0.5,1-1,2.2-1.4
		c0.4-0.1,2.1-1.2,2.3-1.4c-0.6-1-0.9-0.6-1.5-2c-0.2-0.5-0.9-1.9-1.6-1.9c-0.4,0-4.4,2-4.7,2.3c-0.8,0.7-3.4,2.2-3.4,3.6v0.8
		L58.6,73.6z"/>
	<path id="XMLID_141_" class="st12" d="M5.9,26.9c0.5,0.4,1.1,0.9,1.1,1.7v1.1c0,2.8-1.6,4.3-3.5,5.3l-0.8-0.1l0.5,0.4
		c0,1.5,0.2,3.9,1.6,3.9h0.5c1.2,0,1.9-1.7,2.4-2.5c0.7-0.6,1.5-2.2,1.9-3.1c0.3-0.8,0.3-1.1,0.6-1.9c0.2-0.8,0-1.7,0.3-2.2
		c0-0.7,0.1-1.8,0-2.4c0-0.3-0.1-0.5-0.2-0.7c-0.4-0.6-0.6-0.9-1.2-0.9c-1.3,0-1.7,1.2-2.5,1.7L5.9,26.9z"/>
	<path id="XMLID_140_" class="st13" d="M68,17.7c0.8,1.1,0.6,1.6,1.7,2.8c0.7,0.8,1.4,1.6,2.1,2.5c0.7,0.8,1.8,1.2,2.6,1.9
		c0.3,0.3,0.8,0.9,1.2,1.1c0.6,0.3,1.2,0.4,1.5,0.9c0.5,0.1,1.1,0.9,1.6,0.9h0.1c0.4,0,0.4-0.2,0.5-0.4c-0.1-1.8-1.7-3.7-1.4-4.5
		l-0.4-0.4c-2.4,0-4.2-4.9-5.2-4.9c-1.7,0-2.4-0.8-4.3-1.2c-0.2,0.1-0.4,0.2-0.4,0.5V17C67.8,17.5,67.9,17.1,68,17.7"/>
	<path id="XMLID_139_" class="st0" d="M13.2,71.9c0.8,0.7,2,1.5,2.6,2.3c0.7,0.8,1.1,2.5,2.6,2.5h0.7c0.8,0,2.2-1.1,2.5-1.5l0.9-0.3
		l1.2,0.1l1-1.5l0-0.8c-1,0-1.9-0.5-2.8-0.8c-0.9-0.4-1.7-0.5-2.6-0.8c-0.9-0.3-2.1-0.4-2.8-0.8c-0.9-0.5-0.9-1.2-1.7-1.8
		C14.4,69,14.9,70,13.7,70h-0.1c-0.4,0-0.8-0.3-0.8,0.3v0.1C12.8,71.1,13.1,71.3,13.2,71.9"/>
	<path id="XMLID_138_" class="st4" d="M15.5,66.5c-0.3,0.3-0.5,0.6-0.5,1.2c0,0,1.8,1.9,2,2c1.8,0.6,4.6,1.2,6.7,2.1
		c0.2,0.1,3.8,0.8,3.9,0.8c0.4,0,0.2-1,0.3-1.4c0.2-0.7,0.4-0.3,0.6-1l-2.1-0.7h-0.4c-1-0.7-2.2-1.4-3.6-1.7
		c-0.3-1.4,0.1-2.5-0.5-3.7c-0.5,0.3-2,0.7-2,1.3V66l-0.4,0.4l-2.6,0.4l-0.5,0.1C15.7,66.8,16,66.7,15.5,66.5"/>
	<path id="XMLID_137_" class="st14" d="M55.1,60.2c0,0.7,0.9,1.3,0.6,1.6c-0.4,0.4-0.9-0.7-1.5-0.7c-0.5,0-1.5,0.6-1.5,1.1v0.7
		c0,0.6,2.6,5.2,2.8,5.2c0.2,0,2.7-2.3,3.1-2.6c0.5-0.4,3.7-1.6,3.7-2c0-0.9-5.4-4.5-6-4.5C55.8,58.8,55.1,59.6,55.1,60.2"/>
	<path id="XMLID_136_" class="st15" d="M2.7,34.9L3.5,35c1.9-1,3.5-2.5,3.5-5.3v-1.1c0-0.9-0.6-1.3-1.1-1.7l-0.9-0.1
		C2.4,26.2,0,29,0,30.6v1.2C0,32.9,1.6,34.6,2.7,34.9"/>
	<path id="XMLID_135_" class="st16" d="M32.8,4.3v1.2c0,0.9,2.6,0.8,3.6,0.8h0.9c1.2,0,4.5-1.2,4.5-2c0-2-1.8-2.9-3.1-3.7
		C37.3,0.5,37.5,0,37,0h-0.5c-0.8,0-1.9,1.1-2.5,1.5C33.4,2,32.8,3.3,32.8,4.3"/>
	<path id="XMLID_134_" class="st17" d="M67.5,83.8c0-1.8,0.4-2.3,1.5-3.4c0.6-0.6,2.2-1.8,3.3-1.8c0.8,0,1.2,0,2,0.3
		c0.5-0.4,1.6-1.9,1.6-2.8V76c0-0.5-0.4-1.1-0.8-1.1h-0.8c-1.9,0-5.3,1.7-6.3,2.6c-0.8,0.7-3.7,4.1-3.7,5.2c0,1.6,0.7,1.5,2,1.5
		C66.8,84.2,67,84,67.5,83.8"/>
	<path id="XMLID_133_" class="st18" d="M8,68.3h1.6c0.5,0,1.3-0.5,1.3-1.1c0-1.8-2.9-7.2-4.3-7.2H6.4c-0.5,0-1.5,1.5-1.7,1.9
		c-0.6,0.8-0.6,1.7-0.4,2.9C4.5,65.9,5,66.3,5.7,67C6,67.2,7.7,68.3,8,68.3"/>
	<path id="XMLID_132_" class="st0" d="M14.9,58.8l1.1,0.4c1.2,0.1,3.7,2.2,4,3.2l1.2-0.2c0.1-0.4,0.3-1.4,0.8-1.4h0.1
		c0.5,0,0.6,0.6,0.8,0.9l-1,0.9l-0.1,0.6c0,0.5-0.1,0.5-0.1,0.9c0.6,1.2,0.2,2.3,0.5,3.7c1.4,0.3,2.6,1,3.6,1.7h0.4L26.1,68h-1.7
		c-0.2-0.2-0.3-0.2-0.3-0.5c0-2.1,0.9-1.9,0.9-3.9c0-1.2-0.4-2.4-0.9-3c-0.9-1-1.6-0.7-2.5-1.3c-1.3,0-1.5-0.8-3.5-0.8
		c-0.3-0.2-0.4-0.4-0.9-0.4h-1.5C15.3,58,15.1,58.5,14.9,58.8"/>
	<path id="XMLID_131_" class="st6" d="M41.9,7.3c-1,0.3-1.7,0.9-3.4,1.2c-1.4,0.2-2.9,0.2-4.6,0.2L34,9.3c0.6,1.2,1,1.7,2.1,2.5
		c0.3,0.2,0.7,0.4,1,0.6c1.1,0.3,2,0.3,2.8-0.1c0.4-0.2,0.8-0.5,1.3-1C41.9,10,42,9.2,42,7.7L41.9,7.3z"/>
	<path id="XMLID_130_" class="st6" d="M67.9,18.5c0.3,1.1,1.6,2.4,1.6,2.8c0,0.3-0.8,0.8-1.2,0.8c-0.3,0-0.2,0-0.6-0.2l-0.6,1
		c0,1.6-0.1,2,0.4,3.2c0.3,0.7,1.2,1.6,2.1,1.6H71c1.4,0,1.1-0.3,1.7-0.9v-0.4c0.3-0.2,0.8-0.9,1.2-0.9H74c0.6,0,0.3,0.6,1.2,1
		c0.6,0.2,0.9,0.5,1.4,0.8l0.5-0.3c-0.3-0.5-1-0.5-1.5-0.9c-0.3-0.2-0.8-0.8-1.2-1.1c-0.8-0.7-1.9-1.1-2.6-1.9
		c-0.7-0.9-1.3-1.6-2.1-2.5c-1.1-1.3-0.9-1.7-1.7-2.8l0.1,0.7L67.9,18.5z"/>
	<path id="XMLID_129_" class="st19" d="M12.7,69.1c0.3,0.1,0.4,0.3,0.8,0.3h0.1c0.3,0,0.3-0.1,0.5-0.3c0-2-1.2-5-1.9-6.5
		c-1-2.1-2.4-3.3-3.3-5.1c-1.9-2.8-2-1.6-2,1.6v0.3c0,0.2,1.4,1.3,1.6,1.6c0.5,0.7,0.8,1.1,1.4,2c0.9,1.4,1.4,3,1.5,5.2L12.7,69.1z"
		/>
	<path id="XMLID_128_" class="st20" d="M33.7,83c0.4,0.7,1.2,1.9,2.3,1.9h0.1c0.6,0,1.5-0.4,2.4-0.4c1,0,2.5,0.2,3.2,0.5
		c0.5,0.2,2.5,1.2,2.5,1.2h0.9c0.5,0,2.1-0.8,2.1-1.2c0-1-5.9-2.9-7.2-2.9h-3.7C35.7,82.1,34.1,82.5,33.7,83"/>
	<path id="XMLID_127_" class="st12" d="M30.2,46.4l1.5-0.1c0.6-0.4,0.9-0.5,0.9-1.5c0-0.3-0.2-0.9-0.3-1.2c-0.9-0.1-4.6-2.4-5.2-2.4
		c-1.2,0-3,2.8-3.3,4.2c-0.2,1.1,1.7,0.7,2.9,0.7c0.6,0,1.2,0,1.9,0C29.2,46.2,30.2,46.5,30.2,46.4"/>
	<path id="XMLID_126_" class="st21" d="M77.7,40.5L77,41l2.2,1.8l-0.1,0.1c1.1,0,3.8,3.3,4.5,3.3h1.2c0.3,0,0.4-0.1,0.4-0.4v-0.4
		c2.5-0.8-0.3-4.9-2-4.9C81.2,40.4,79.5,40.5,77.7,40.5"/>
	<path id="XMLID_125_" class="st12" d="M27.3,40.3v0.1c0,0.5,5,2.8,6,2.8c0.8,0,1.3-0.7,1.3-1.6v-0.3c0-0.8-3.7-4.1-4.4-4.7
		c-1.2-0.9-1.8-2.4-1.8,0.2C28.5,38.6,27.3,40.2,27.3,40.3"/>
	<path id="XMLID_124_" class="st7" d="M36.4,85.2v2.7c0,2.2,1.5,1.7,3.2,1.7c1.4,0,2.1,0.8,3-0.2c0.9-1.1,0.8-1.1,1.4-2.4
		c-1-1.4-3.6-1.9-6-1.9h-0.7C36.8,85,36.8,85.1,36.4,85.2"/>
	<path id="XMLID_123_" class="st22" d="M70.4,44.5l0.7,0.4c0,1,0.8,3.7,1.2,4.2c1,1.2,1.8,1.4,2.7,2.9c0.8,1.3,1.3,2.1,2.7,2.9
		c0.7,0.3,1.1,0.7,2,0.8c0.8,0.1,1.8,0.2,2,0.8l0.3-0.3l0.7-1.5l-0.9-0.3c-1.3,0.8-4.7-2.2-5.2-3c-1.4-2.4-3.4-2-3.4-5.1l-0.3-0.4
		c0-1.7-0.5-2.2-0.5-3.2v-0.1c0-0.6,0.4-0.3,0.8-0.5l-0.8,0L70.4,44.5z"/>
	<path id="XMLID_122_" class="st6" d="M37,80.3l0,1l0.5,0.3c1.2,0,2.1,0,3.2,0.1c0.7,0.1,2.7,0.8,2.7,0.8h0.1c0.6,0,0.1-0.2,0.7-0.4
		v-1.6c0-0.3-1-2-1.2-2.3c-0.4-0.6-1.3-1.2-2.3-1.2C39.7,77.1,37,79.1,37,80.3"/>
	<path id="XMLID_121_" class="st10" d="M64,20.8l-0.3,0.1v0.3l-0.3,0l-0.2,1.7c-1.3,0.8-0.7,0.2-1.6,1.5v1.5L60,26.6
		c0,0.5,0.1,1.2,0.5,1.2h0.1c0.5,0,0.5-0.6,0.8-0.9l1,0l0.3-0.2c0-2.7-0.1-1.1,1.4-2.2l0.5-1.6l2,0.3l0.4-0.3l0.6-1
		c0.4,0.1,0.3,0.2,0.6,0.2c0.4,0,1.2-0.5,1.2-0.8c0-0.4-1.3-1.7-1.6-2.8c-0.3-0.1-0.3-0.1-0.7-0.1h-0.1c-1.1,0-1.4,1.4-1.9,2.1
		L64,20.8z"/>
	<path id="XMLID_120_" class="st10" d="M72.7,26.8l-0.1,0.9h-0.4v0.8c0,0.4-0.3,0.8-0.5,1.2l-0.1-0.1l-1.4,0.7
		c-0.2,2.4-3.5,0.5-3.5,3.1c0,0.4,0.1,0.1,0.3,0.7h0.7c0.3-0.9,1-1,2.1-1.1c1.1-0.1,1.4-1.5,1.9-1.4l1.1,0H73c0.6,0,0.1,0.2,0.7,0.4
		v-0.7c0.2-0.8,0.5-1.9,1.3-2.1c0.8-0.3,1.6-0.7,1.6-1.8c-0.5-0.3-0.8-0.6-1.4-0.8c-0.9-0.3-0.6-1-1.2-1h-0.1
		c-0.4,0-0.9,0.7-1.2,0.9V26.8z"/>
	<path id="XMLID_119_" class="st23" d="M33.6,8.8c1.8,0,3.4,0,5-0.2c2-0.3,2.5-1.1,3.8-1.4L44,5.7l-0.1-0.1
		c-0.3-0.4-0.8-0.8-1.5-0.8h-0.3c-0.1,0-3,2-4.8,2h-2.7c-0.9,0-1-0.3-1.9-0.3c-0.6,0-1.5,0.8-1.5,1.3C31.4,8.3,32.9,8.8,33.6,8.8"/>
	<path id="XMLID_118_" class="st10" d="M20,62.4l0.3,0.2l-0.8,1c-0.2-0.1-0.2-0.2-0.5-0.2h-0.1c-0.1,0-1.4,0.4-1.6,0.5l-0.5-0.4
		l-0.4,0L15.7,64c-0.2,0.2,0,0.3-0.4,0.3c-0.3,0-0.9-0.8-1.7-0.8c-0.2,0-0.2,0.2-0.3,0.4c0,0.4,0.4,1.3,0.6,1.7
		c0.4,0.9-0.1,1.2,0.9,1.2l0.3-0.6l0.3,0.3c0.6,0.2,0.2,0.3,0.7,0.3l0.5-0.1l2.6-0.4l0.4-0.4v-0.5c0-0.6,1.5-1.1,2-1.3
		c0-0.4,0.1-0.5,0.1-0.9l0.1-0.6l1-0.9c-0.2-0.4-0.3-0.9-0.8-0.9H22c-0.5,0-0.7,1.1-0.8,1.4L20,62.4z"/>
	<path id="XMLID_117_" class="st12" d="M67.8,83.8l2.1,1.5v-0.8c0.7-1,0.4-0.7,1.2-1.6c0.7-0.7,0.8-0.8,1.2-1.5
		c0.1,0,0.5-0.3,0.5-0.3c0.5,0,0,0,0.4,0.1l1.6-0.3l-0.5-1.8c-0.7-0.1-1-0.3-1.8-0.3c-1.1,0-2.7,1.1-3.3,1.8
		C68.1,81.7,67.7,82,67.8,83.8"/>
	<path id="XMLID_116_" class="st6" d="M80,50.2v0.5c0,1.2,2.1,3.6,3.3,3.6h0.4c0.3,0,0.4-0.1,0.4-0.4c0-0.6-0.1-0.9-0.2-1.2
		c-0.4-1.2,0.1-2.6,0.5-3.8c0.2-0.5,0.3-1,0.3-1.5v-0.1c0-0.3-0.1-0.4-0.4-0.4h-0.5c-0.7,0-1.8,0.8-2.3,1.2C81,48.4,80,49.5,80,50.2
		"/>
	<path id="XMLID_115_" class="st24" d="M59.9,51.9c0,0.8,0.2,1.1,0.6,1.3c1.6,0.9,4.4,2,6.2,2h0.7c-0.2-0.9-0.7-1.3-1.1-2.2
		c-0.3-0.6-0.6-2.4-1-2.4h-4.1C60.4,50.7,59.9,51.4,59.9,51.9"/>
	<path id="XMLID_114_" class="st10" d="M57.1,46.7v0.1c0,1.6,2.1,2.4,2.1,3.6c-0.9,0.2-2.8,2.2-2.8,3.2v0.3c0,0.6,0.3,0.9,0.9,0.9
		h0.3c0.8,0,2.5-0.5,2.5-1.2c0-0.5-0.7-0.5-0.7-1.3v-0.5c0-0.9,1.1-1.4,1.1-1.6c0-0.3-0.5-1.1-0.5-1.2c0-0.9,0.5-1.5,0.5-1.7v-0.1
		c0-0.5-1.7-1.3-2.3-1.3h-0.5C57.4,45.8,57.1,46.3,57.1,46.7"/>
	<path id="XMLID_113_" class="st25" d="M7.7,36.6c0.5,0,0.9,0,1.4-0.1c1.6-0.1,1.7-0.3,3-1c0.7-0.4,1.3-0.9,1.3-1.7
		c0-0.6-0.7-2.3-0.9-2.8c-0.4-0.9-1.1-1.4-2-1.7c-0.3,0.5-0.1,1.5-0.3,2.2c-0.2,0.8-0.2,1.1-0.6,1.9C9.2,34.4,8.4,36,7.7,36.6"/>
	<path id="XMLID_112_" class="st6" d="M13.3,63.9c0-0.2,0-0.4,0.3-0.4c0.8,0,1.4,0.8,1.7,0.8c0.4,0,0.2-0.1,0.4-0.3l-0.3-0.2
		c0-0.9,0.4-1.3,0.4-1.8v-0.4c0-0.5-0.3-0.7-0.3-1.7c-0.6-0.4-1.4-1.2-2.4-1.2l-0.3-0.4l-0.5-0.4c-0.7,0-1.7,0.4-1.7,0.9
		c0,0.5,1.1,1.6,1.4,2.5C12.1,61.4,13.3,63.9,13.3,63.9"/>
	<path id="XMLID_111_" class="st25" d="M64.7,76c0,1.2-0.3,2.8,0.8,3.5c0.3-0.2,0.8-1,1.1-1.3c0.4-0.5,0.8-0.8,1.3-1.2
		c0.7-0.5,2.8-1.4,2.9-2.2l-1.7-0.9l-2.3-0.2C65.9,73.7,64.7,75.1,64.7,76"/>
	<path id="XMLID_110_" class="st24" d="M63.5,46.6c-1.1,0.1-2.9,0.8-2.9,1.7v0.5c0,0.7,0.7,1.3,1.3,1.3H65c0.4,0,0.4-0.1,0.7-0.1
		c0-0.6,0.3-2,0.5-2.5c0.3-0.7,1-1.3,1.1-1.8l0-0.1L63.5,46.6z"/>
	<path id="XMLID_109_" class="st18" d="M73.2,16.9c0,0.5,1.7,2.3,2.1,2.8c0.6,0.7,1.7,2.2,2.9,2.2h0.1c0.4,0,0.9-1.1,0.9-1.6V20
		c0-1.1-2.5-3.6-3.7-3.6C74.2,16.4,74.1,16.7,73.2,16.9"/>
	<path id="XMLID_108_" class="st26" d="M38.3,67.2c0.2,0.2,0.2,0.3,0.5,0.3h1.1c0.9,0,1-0.3,1.9-0.3h0.1c0.4,0,0.5,0.1,0.8,0.1
		c0.2-0.1,0.4-0.2,0.4-0.5v-3.6C42.3,63,42,62.4,41,62.4h-1.1c-0.1,0.6-0.4,0.4-0.4,1.2c0,0.7,0.1,0.9-0.2,1.4
		C39,65.9,38.6,66.3,38.3,67.2"/>
	<path id="XMLID_107_" class="st26" d="M43.5,67.3c0.4,0.2,3.4,1.7,3.6,1.7h0.3c0.7,0,0.1-2.5,0.1-3.3c0-1.5,0-2.5-1.5-2.5h-0.7
		C44.2,63.2,43.7,66.3,43.5,67.3"/>
	<path id="XMLID_106_" class="st25" d="M26.9,24.1l0,1.4l0.8,1.6l0.4,0.1l1.8-1.2l-0.1,0.6c0.4,0.4,0.8-0.4,0.7-1.7V24l0.1-0.3
		c-0.2-0.2-0.1-0.6-0.8-0.9c-0.4-0.2-0.9-0.3-1.3-0.4c-0.1,0-0.2-0.1-0.3-0.1v0l-0.3-0.1c0,0.1,0,0.2-0.1,0.3
		C27.6,23.3,27,23.1,26.9,24.1"/>
	<path id="XMLID_105_" class="st27" d="M58.6,73.6c0.3,0.7,0.7,1.6,1.1,1.6c0.5-1.9,2.1-2.8,3.6-3.8c1-0.7,3.8-2.1,4.6-2.8l-0.9-1.3
		c-0.2,0.2-2,1.3-2.3,1.4c-1.2,0.5-1.3,0.9-2.2,1.4c-0.9,0.5-1.4,0.8-2.2,1.4C59.5,72.1,58.9,73.5,58.6,73.6"/>
	<path id="XMLID_104_" class="st25" d="M16,49.1l0.4,3.5c0.3,0.5,0.6,0.8,1.5,0.8h0.3c1,0,1.3-0.4,1.3-1.3v-0.7
		c0-0.9-0.7-0.7-0.7-2.6l-0.4-0.3C17,48.6,16.9,48.8,16,49.1"/>
	<path id="XMLID_103_" class="st17" d="M69.9,85.3c0.9,0.8,2.6-0.5,3.1-1.1c1-1.3,1.2-0.9,2.1-2.7l-0.3-0.5l-1.6,0.3
		c-0.3-0.1,0.1-0.1-0.4-0.1c0,0-0.5,0.2-0.5,0.3c-0.4,0.7-0.5,0.8-1.2,1.5c-0.8,0.9-0.5,0.6-1.2,1.6V85.3z"/>
	<path id="XMLID_102_" class="st6" d="M28.6,55.5c0.3,1.1,1.3,2.3,1.2,2.9C31,58.3,31,58,32,57.5c0.7-0.4,1.6-0.7,1.6-1.2
		c0-0.5-0.2-1.3-0.7-1.3h-0.4C32.1,55,28.6,55.3,28.6,55.5"/>
	<path id="XMLID_101_" class="st4" d="M16.3,63.5l0.4,0l0.5,0.4c0.2-0.1,1.5-0.5,1.6-0.5h0.1c0.3,0,0.3,0.1,0.5,0.2l0.8-1L20,62.4
		c-0.3-1-2.8-3.1-4-3.2l-0.3,0.2C15.7,60.2,16.9,62.2,16.3,63.5"/>
	<path id="XMLID_100_" class="st6" d="M30.5,59.4c0.3,0.1,1.7,2.5,1.9,2.9c0.3-1.1,1.7-1.6,2.3-2.5C36.8,56.4,30.2,58.4,30.5,59.4"
		/>
	<path id="XMLID_99_" class="st28" d="M39.8,36.5c-0.4,0.3-0.5,0.7-0.5,1.3v1.1c0,0.7,0.7,1.3,1.3,1.3c0.4,0,1.5-1,1.8-1.3
		c0.8-0.9,0.5-1.3,1-2v-0.9c-0.9,0-0.9,0.8-2.1,0.8H41C40.4,36.7,40.3,36.6,39.8,36.5"/>
	<path id="XMLID_98_" class="st28" d="M44.3,36.3c0.6,0.7,0.2,0.8,1.2,1.4c0.4,0.3,0.4,0.4,0.8,0.6c0.6,0.2,0.7-0.1,0.9,0.4h0.7
		c0.6,0,1-1,0.9-1.6c-0.2-1.2-0.3-1.2-0.9-1.9c-0.2-0.2-0.2-0.3-0.5-0.3c-0.1,0-0.9,0.9-1.7,0.9h-0.4c-0.5,0-0.5-0.1-0.9-0.1V36.3z"
		/>
	<path id="XMLID_97_" class="st10" d="M31.7,47.1c0,1,1.2,2.3,2.1,2.3c1.9,0,0.6-5.1-0.3-5.1c-0.4,0-0.5,1-0.7,1.5
		C32.5,46.6,31.7,46.8,31.7,47.1"/>
	<path id="XMLID_96_" class="st10" d="M34.9,40.5c0,0.7,0.3,0.7,0.3,1.5c0,1.1-1.1,1.1-1.2,2H35c0.7,0,2.9-1.4,3.3-2.5
		c0.2-0.6,0-0.8-0.5-1.1c-0.2-0.1-0.5-0.3-1.1-0.3h-0.1C35.7,40.1,35.5,40.3,34.9,40.5"/>
	<path id="XMLID_95_" class="st6" d="M28.1,72.3l0.1,0.7c0,0.1,0.3,0.3,0.7,0.5c3,1.2,3.3-1.7,1.4-3.1l-1-0.1
		C28.5,70.3,28.1,71.4,28.1,72.3"/>
	<path id="XMLID_94_" class="st6" d="M73,64.4l0.8-0.9c0.1-0.3,0.1-0.3,0.1-0.7v-1.2c-0.6-0.2-0.4-0.5-1.2-0.5h-0.3
		c-1.2,0-1.7,0.3-1.7,1.5v0.5C70.7,64.2,71.8,64.4,73,64.4"/>
	<path id="XMLID_93_" class="st19" d="M32.5,52.7L32.4,54c0.5,0.8,1.6,0.2,1.6,1.7h0.5c0.1-0.6,0.4-0.7,0.4-1.7v-1.9
		c0-0.7-0.3-1.5-0.9-1.5C33.2,50.7,33,52.5,32.5,52.7"/>
	<path id="XMLID_92_" class="st29" d="M44.7,62.6c0,0.4,0.5,0.1,0.8,0.1h0.4c1,0,1.2,0.5,1.9,0.5h0.1c1,0,1.3-0.8,1.6-1.5
		c-0.3-0.5-0.7-0.9-1.5-0.9h-0.4C46.5,60.8,44.7,61.5,44.7,62.6"/>
	<path id="XMLID_91_" class="st29" d="M39.1,60v0.4c0,0.5,0.4,1.4,0.8,1.6c0.3-0.1,0.4-0.1,0.8-0.1h0.1c1.2,0,2,0.8,2.1,0.8
		c0.3,0,0.4-0.1,0.4-0.4V62c0-1-2.4-2.5-3.5-2.5C39.5,59.5,39.1,59.6,39.1,60"/>
	<path id="XMLID_90_" class="st25" d="M50.9,75.2v1.2c0,0.4,0.7,0.9,1.2,0.9h0.8c0.6,0,1.1-0.4,1.1-1.1v-1.1c0-0.4-0.7-0.8-0.9-0.8
		h-0.7C51.4,74.4,51.6,75,50.9,75.2"/>
	<path id="XMLID_89_" class="st6" d="M71.2,40.1v0.7c0.6,0.2,0.4,0.5,1,0.6c0.1,0,1.1-0.1,1.6-0.1c0.2-0.2,0.5-0.3,0.5-0.7v-1.1
		c0-0.5-0.2,0-0.3-0.8C72.8,38.6,71.2,38.5,71.2,40.1"/>
	<path id="XMLID_88_" class="st30" d="M57.5,42.5l-0.2-0.4c-0.8-0.1-1.4-0.8-1.7-1.3h-0.4c-0.1,0.5-0.3,0.4-0.3,0.9v1.9
		c0.5,0.2,0.3,1.2,1.1,1.2h0.3C57,44.7,57.5,43.2,57.5,42.5"/>
	<path id="XMLID_87_" class="st30" d="M50.5,38.1c-0.1,0.1-0.4,0.3-0.4,0.5c0,0.6,1.1,1.3,1.7,1.3l0.7,0.1l1.7-0.3v-0.5
		c-1.3-0.3-0.9-1.5-1.6-1.5h-0.9C51.7,37.7,50.7,38,50.5,38.1"/>
	<path id="XMLID_86_" class="st31" d="M54.5,58.6v0.8c1.1,0,0.2-0.9,2.3-0.9l0.5-0.3v-0.8c0-0.6-0.4-1.5-0.9-1.5
		C55.2,55.9,54.5,57.4,54.5,58.6"/>
	<path id="XMLID_85_" class="st19" d="M35.8,59.4h1.3c0.4-0.2,1.5-0.2,1.5-0.9c0-0.6-1.8-1.3-2.4-1.3l-1.6,0.1
		C35.5,58,35.9,58.4,35.8,59.4"/>
	<path id="XMLID_84_" class="st31" d="M50.1,61c0.6,1.2,0.5,0.9,1.9,1.2l0.4-0.1c0.1-0.7,0.8-1.3,1.6-1.3c0-0.6-0.5-0.8-1.1-0.8
		h-1.3C50.7,59.9,50.3,60.4,50.1,61"/>
	<path id="XMLID_83_" class="st32" d="M44.1,5.9l-1.3,1l3.7,1.8L46.9,9l1.9,1.2l2.1,1.5c-1.4-1.8-2.5-3.1-4.1-4.3
		C45.9,6.8,45,6.4,44.1,5.9"/>
	<path id="XMLID_82_" class="st33" d="M46.1,6.8c0.4,0.2,0.8,0.5,1.3,0.9c0.1-0.2,0.1-0.4,0.2-0.6c0.1-0.2,0.1-0.2-0.1-0.4
		c-0.1-0.1-0.3-0.2-0.4-0.3c-0.2-0.1-0.4-0.2-0.6,0C46.4,6.5,46.2,6.7,46.1,6.8"/>
	<path id="XMLID_81_" class="st2" d="M19.1,27.5c0,0,1.2,5.5,0.2,8.2c-0.7,1.8-3.1,5.6-4.5,6.6c-1.4,1-3,2-3,2l0.4,0.9
		c0,0,1.3-0.4,3.3-2.3c1.9-1.9,4.2-5.2,4.8-7.8c0.6-2.6,0.5-4.4,0.4-5.8c-0.1-1.4-0.5-1.9-0.5-1.9L19.1,27.5z"/>
	<path id="XMLID_80_" class="st34" d="M3.1,35c0,0,2.8-1.6,3.2-3.7c0.4-2.1,0.1-3,0-3.6c-0.1-0.5-0.3-1-0.3-1"/>
	<path id="XMLID_77_" class="st35" d="M6.8,105.5l2.7-0.1c0.3-0.5,0.6-1,0.8-1.3c0.2-0.3,0.4-0.7,0.6-1.1c0.2-0.4,0.4-0.7,0.6-1
		c0.2-0.3,0.4-0.6,0.6-0.9c-0.4,0.2-0.8,0.5-1.2,0.8c-0.4,0.3-0.9,0.7-1.4,1.1c-0.5,0.4-1,0.8-1.4,1.2C7.7,104.6,7.3,105,6.8,105.5
		 M8.4,107.4c-0.7,0-1.1,0-1.5,0c-0.5,0-1.1,0-2,0c-0.2,0.2-0.4,0.4-0.6,0.7c-0.3,0.3-0.5,0.5-0.7,0.7c-0.2,0.2-0.4,0.4-0.6,0.6
		c-0.2,0.2-0.3,0.3-0.4,0.4c-0.6,0.6-1,1-1.2,1.2c-0.2,0.2-0.4,0.3-0.6,0.5c-0.2,0.1-0.4,0.2-0.6,0.2c-0.2,0-0.3-0.1-0.3-0.3
		c0-0.2,0.1-0.5,0.4-0.9c0.3-0.4,0.6-0.8,0.9-1.1c0.3-0.3,0.6-0.5,0.9-0.5c0.1,0,0.1,0,0.3,0.1l1.6-1.7c-0.2,0-0.5,0-0.8-0.1
		c-0.3,0-0.5,0-0.6-0.1c-0.1,0-0.2-0.1-0.2-0.3c0-0.2,0.3-0.6,0.8-1.1c0.3-0.3,0.5-0.5,0.8-0.5c0.2-0.1,0.7-0.1,1.4-0.1
		c-0.4,0.1-0.7,0.1-0.9,0.2c-0.2,0.1-0.3,0.2-0.3,0.3h0.4c0.1,0,0.3,0,0.5,0c0.2,0,0.4,0,0.5,0c0.9-0.9,1.7-1.7,2.5-2.3
		c0.7-0.7,1.5-1.3,2.3-1.9c0.8-0.6,1.7-1.1,2.6-1.6c0.2,0.2,0.3,0.5,0.3,0.7c0,0.2-0.1,0.5-0.2,0.7c-0.1,0.3-0.4,0.8-0.9,1.6
		c-0.5,0.8-0.9,1.6-1.4,2.5c0.2,0,0.3,0,0.4,0c0.1,0,0.2,0,0.3,0c0.3,0,0.5,0,0.6,0c0.1,0,0.1,0.1,0.1,0.2c0,0,0,0.1-0.1,0.2
		c-0.1,0.1-0.2,0.3-0.4,0.6c-0.2,0.3-0.4,0.5-0.6,0.8l-1.2,0.1c-0.6,1.2-1,1.9-1,2.1c0,0.2,0.1,0.3,0.4,0.3c0.1,0,0.6-0.2,1.4-0.7
		l-0.1,0.4c-0.5,0.3-0.8,0.6-1.1,0.8c-0.3,0.2-0.5,0.4-0.7,0.5c-0.2,0.1-0.4,0.2-0.5,0.3c-0.2,0.1-0.3,0.1-0.5,0.1
		c-0.2,0-0.4-0.1-0.5-0.3c-0.2-0.2-0.3-0.4-0.3-0.7c0-0.1,0-0.3,0.1-0.5c0.1-0.2,0.2-0.5,0.3-0.7C7.7,108.7,8,108.2,8.4,107.4"/>
	<path id="XMLID_74_" class="st35" d="M15,107.1l-0.1-1.2c-0.3,0.4-1.1,1.1-2.2,2.2c0.3,0.1,0.6,0.2,0.7,0.3
		c0.1,0.1,0.3,0.4,0.5,0.7c0.4-0.2,0.7-0.4,0.9-0.6c0.2-0.3,0.3-0.6,0.3-1.1c0-0.1,0-0.1,0-0.1C15,107.2,15,107.2,15,107.1
		 M11.9,108.4v-0.2c1.4-1.5,2.4-2.6,2.9-3.2c0.1-0.7,0.4-1,0.9-1c0.1,0,0.2,0,0.4,0.1l0.1,0.2c0,0.1,0,0.2,0,0.3
		c0,0.1,0,0.3,0.1,0.6c0.1,0.3,0.1,0.5,0.2,0.7c0,0.2,0.1,0.4,0.1,0.7c0,0.4-0.1,0.7-0.2,1c-0.2,0.3-0.4,0.7-0.7,1
		c-0.3,0.3-0.7,0.6-1.2,0.9c0.2,0,0.4,0,0.5,0c0.2,0,0.5-0.1,0.7-0.2c0.3-0.1,0.5-0.3,0.8-0.5c0.3-0.2,0.6-0.4,1-0.7v0.6
		c-0.7,0.7-1.3,1.2-1.9,1.6c-0.6,0.4-1,0.5-1.4,0.5c-0.5,0-1-0.2-1.4-0.7c-0.3-0.3-0.4-0.5-0.5-0.8
		C11.9,109.1,11.9,108.8,11.9,108.4"/>
	<path id="XMLID_71_" class="st35" d="M20.8,106c-0.5,0.3-0.9,0.5-1.2,0.8c-0.3,0.2-0.6,0.4-0.8,0.7c-0.2,0.2-0.4,0.5-0.5,0.7
		c-0.1,0.6-0.2,0.9-0.2,1c0,0.4,0.3,0.5,0.8,0.5c0.2,0,0.6-0.2,1.2-0.6c-0.1-0.3-0.1-0.5-0.1-0.7c0-0.3,0.1-0.7,0.2-1.1
		C20.3,106.9,20.5,106.5,20.8,106 M22.5,108.2v0.6c-0.4,0.3-0.7,0.6-0.9,0.7c-0.2,0.1-0.5,0.2-1,0.1c-0.7,0.8-1.3,1.3-1.9,1.3
		c-0.3,0-0.6-0.1-0.8-0.3c-0.3-0.2-0.5-0.5-0.6-0.8c-0.2-0.4-0.2-0.7-0.2-1.2c0-0.4,0.1-0.7,0.4-1.2c0.2-0.4,0.5-0.8,0.9-1.2
		c0.4-0.4,0.8-0.7,1.2-0.9c0.4-0.2,0.8-0.3,1.2-0.3c0.3,0,0.5,0,0.6,0.1c0.2,0.1,0.2,0.2,0.2,0.3c0,0.1-0.1,0.2-0.2,0.4
		c0.2,0,0.4,0.1,0.4,0.2c0.1,0.1,0.1,0.3,0.1,0.6c0,0.3-0.1,0.6-0.2,1c-0.1,0.4-0.3,0.8-0.5,1.1l0.1,0.1h0.1c0.1,0,0.2,0,0.3-0.1
		c0.1,0,0.2-0.1,0.2-0.1C22.1,108.5,22.3,108.3,22.5,108.2"/>
	<path id="XMLID_70_" class="st35" d="M27.5,108.2v0.6c-0.6,0.6-1.1,1-1.4,1.3c-0.4,0.3-0.7,0.6-1,0.7c-0.3,0.2-0.6,0.3-0.9,0.3
		c-0.3,0-0.6-0.1-0.8-0.4c-0.3-0.2-0.5-0.6-0.6-0.9c-0.1-0.4-0.2-0.8-0.2-1.2c0-0.4,0.1-0.7,0.2-1c0.2-0.3,0.5-0.7,1-1.1
		c0.6-0.6,1.1-1,1.6-1.3c0.5-0.3,0.9-0.4,1.1-0.4c0.2,0,0.4,0.1,0.5,0.2c0.1,0.1,0.2,0.3,0.2,0.5c0,0.2-0.1,0.4-0.3,0.8
		c-0.2,0.3-0.4,0.6-0.6,0.8c-0.2,0.2-0.4,0.4-0.5,0.4c-0.1,0-0.2-0.1-0.2-0.2c0,0,0-0.1,0-0.1c0,0,0-0.1,0-0.1c0-0.1,0-0.1-0.1-0.1
		c0,0-0.1,0-0.2,0.1c-0.5,0.4-0.9,0.7-1.1,0.8c-0.2,0.2-0.4,0.3-0.5,0.5c-0.1,0.2-0.2,0.3-0.2,0.5c0,0.3,0.1,0.6,0.3,0.8
		c0.2,0.2,0.5,0.3,0.8,0.3c0.3,0,0.8-0.1,1.3-0.4C26.3,109.1,26.8,108.7,27.5,108.2"/>
	<path id="XMLID_67_" class="st35" d="M30.9,104.5c-0.1,0-0.3-0.1-0.4-0.2c-0.1-0.1-0.2-0.2-0.2-0.4c0-0.2,0.1-0.5,0.3-0.8
		c0.2-0.3,0.5-0.4,0.7-0.4c0.2,0,0.3,0.1,0.4,0.2c0.1,0.1,0.2,0.2,0.2,0.4c0,0.2-0.1,0.5-0.3,0.8C31.4,104.3,31.1,104.5,30.9,104.5
		 M31.4,108.2v0.6c-0.5,0.7-1,1.2-1.5,1.6c-0.5,0.3-0.9,0.5-1.2,0.5c-0.5,0-0.8-0.2-1-0.7c-0.2-0.5-0.3-1-0.3-1.6
		c0-0.2,0-0.4,0.1-0.6c0-0.2,0.1-0.4,0.2-0.5c0.1-0.1,0.2-0.3,0.3-0.6c0.8-1.2,1.5-1.8,2.2-1.8c0.3,0,0.5,0.1,0.5,0.4
		c0,0.2-0.1,0.5-0.3,0.8c-0.2,0.4-0.4,0.6-0.6,0.8c-0.5,0.5-0.8,0.8-0.9,1c-0.1,0.2-0.2,0.4-0.2,0.6c0,0.2,0.1,0.4,0.2,0.5
		c0.1,0.1,0.3,0.2,0.6,0.2c0.3,0,0.5-0.1,0.9-0.3C30.5,108.9,30.9,108.6,31.4,108.2"/>
	<path id="XMLID_64_" class="st35" d="M36.3,105.8c-1.4,0.7-2.5,1.2-3.1,1.7c-0.6,0.5-0.9,0.9-0.9,1.4c0,0.2,0,0.3,0.1,0.4
		c0.1,0.1,0.1,0.2,0.2,0.2c0.1,0,0.2,0,0.3-0.1c0.6-0.3,1.1-0.8,1.6-1.3S35.6,106.7,36.3,105.8 M32.3,106.7c0.8-0.8,1.7-1.3,2.4-1.7
		c0.8-0.4,1.4-0.6,1.8-0.6c0.1,0,0.2,0,0.3,0.1c0.1,0.1,0.2,0.2,0.2,0.3c0.1,0.1,0.1,0.2,0.1,0.3c0,0.1,0,0.2-0.1,0.2
		c-0.1,0-0.2,0.1-0.4,0.2c0,0.1,0.1,0.2,0.1,0.3c0.1,0.1,0.1,0.3,0.1,0.3c0,0.1,0,0.2,0,0.2c0,0.1-0.1,0.4-0.4,0.7
		c-0.3,0.4-0.5,0.6-0.6,0.8c-0.1,0.2-0.2,0.4-0.2,0.6c0,0.4,0.2,0.6,0.6,0.6c0.4,0,1-0.4,1.8-1.1v0.5c-1.4,1.6-2.4,2.3-3,2.3
		c-0.2,0-0.4-0.1-0.5-0.2c-0.1-0.1-0.1-0.3-0.1-0.6c0-0.4,0.2-1.1,0.5-1.9c-0.8,0.9-1.4,1.5-1.8,1.9c-0.4,0.4-0.7,0.6-1,0.6
		c-0.1,0-0.3-0.1-0.5-0.3c-0.2-0.2-0.3-0.5-0.5-0.8c-0.1-0.3-0.2-0.7-0.2-1c0-0.3,0-0.5,0.1-0.7c0-0.2,0.1-0.3,0.3-0.5
		C31.8,107.2,32,107,32.3,106.7"/>
	<path id="XMLID_63_" class="st35" d="M43.2,108.2v0.6c-0.6,0.6-1.1,1-1.4,1.3c-0.4,0.3-0.7,0.6-1,0.7c-0.3,0.2-0.6,0.3-0.9,0.3
		c-0.3,0-0.6-0.1-0.8-0.4c-0.3-0.2-0.5-0.6-0.6-0.9c-0.1-0.4-0.2-0.8-0.2-1.2c0-0.4,0.1-0.7,0.2-1c0.2-0.3,0.5-0.7,1-1.1
		c0.6-0.6,1.1-1,1.6-1.3c0.5-0.3,0.9-0.4,1.1-0.4c0.2,0,0.4,0.1,0.5,0.2c0.1,0.1,0.2,0.3,0.2,0.5c0,0.2-0.1,0.4-0.3,0.8
		c-0.2,0.3-0.4,0.6-0.6,0.8c-0.2,0.2-0.4,0.4-0.5,0.4c-0.1,0-0.2-0.1-0.2-0.2c0,0,0-0.1,0-0.1c0,0,0-0.1,0-0.1c0-0.1,0-0.1-0.1-0.1
		c0,0-0.1,0-0.2,0.1c-0.6,0.4-0.9,0.7-1.1,0.8c-0.2,0.2-0.4,0.3-0.5,0.5c-0.1,0.2-0.2,0.3-0.2,0.5c0,0.3,0.1,0.6,0.3,0.8
		c0.2,0.2,0.5,0.3,0.8,0.3c0.3,0,0.8-0.1,1.3-0.4C42,109.1,42.5,108.7,43.2,108.2"/>
	<path id="XMLID_60_" class="st35" d="M46.6,104.5c-0.1,0-0.3-0.1-0.4-0.2c-0.1-0.1-0.2-0.2-0.2-0.4c0-0.2,0.1-0.5,0.3-0.8
		c0.2-0.3,0.5-0.4,0.7-0.4c0.2,0,0.3,0.1,0.4,0.2c0.1,0.1,0.2,0.2,0.2,0.4c0,0.2-0.1,0.5-0.3,0.8C47.1,104.3,46.8,104.5,46.6,104.5
		 M47.1,108.2v0.6c-0.5,0.7-1,1.2-1.5,1.6c-0.5,0.3-0.9,0.5-1.2,0.5c-0.5,0-0.8-0.2-1-0.7c-0.2-0.5-0.3-1-0.3-1.6
		c0-0.2,0-0.4,0.1-0.6c0-0.2,0.1-0.4,0.2-0.5c0.1-0.1,0.2-0.3,0.3-0.6c0.8-1.2,1.5-1.8,2.2-1.8c0.3,0,0.5,0.1,0.5,0.4
		c0,0.2-0.1,0.5-0.3,0.8c-0.2,0.4-0.4,0.6-0.6,0.8c-0.5,0.5-0.8,0.8-0.9,1c-0.1,0.2-0.2,0.4-0.2,0.6c0,0.2,0.1,0.4,0.2,0.5
		c0.1,0.1,0.3,0.2,0.6,0.2c0.3,0,0.5-0.1,0.9-0.3C46.2,108.9,46.6,108.6,47.1,108.2"/>
	<path id="XMLID_56_" class="st35" d="M50.8,103.3c-0.1,0-0.2,0-0.3-0.1c-0.1-0.1-0.1-0.1-0.1-0.2c0-0.2,0.3-0.7,0.9-1.6
		c0.2-0.3,0.5-0.6,0.6-0.7c0.2-0.1,0.4-0.2,0.7-0.2c0.4,0,0.6,0.1,0.6,0.4c0,0.2-0.2,0.4-0.5,0.8c-0.4,0.4-0.7,0.7-1.1,1
		C51.1,103.1,50.9,103.3,50.8,103.3 M50.7,106c-0.5,0.3-0.8,0.5-1.2,0.8c-0.3,0.2-0.6,0.4-0.8,0.7c-0.2,0.2-0.4,0.5-0.5,0.7
		c-0.1,0.6-0.2,0.9-0.2,1c0,0.4,0.3,0.5,0.8,0.5c0.2,0,0.6-0.2,1.2-0.6c-0.1-0.3-0.1-0.5-0.1-0.7c0-0.3,0.1-0.7,0.2-1.1
		C50.2,106.9,50.4,106.5,50.7,106 M52.4,108.2v0.6c-0.4,0.3-0.7,0.6-0.9,0.7c-0.2,0.1-0.5,0.2-1,0.1c-0.7,0.8-1.3,1.3-1.9,1.3
		c-0.3,0-0.6-0.1-0.8-0.3c-0.3-0.2-0.5-0.5-0.6-0.8c-0.2-0.4-0.2-0.7-0.2-1.2c0-0.4,0.1-0.7,0.4-1.2c0.2-0.4,0.5-0.8,0.9-1.2
		c0.4-0.4,0.8-0.7,1.2-0.9c0.4-0.2,0.8-0.3,1.2-0.3c0.3,0,0.5,0,0.6,0.1c0.1,0.1,0.2,0.2,0.2,0.3c0,0.1-0.1,0.2-0.2,0.4
		c0.2,0,0.4,0.1,0.4,0.2c0.1,0.1,0.1,0.3,0.1,0.6c0,0.3-0.1,0.6-0.2,1c-0.1,0.4-0.3,0.8-0.5,1.1l0.1,0.1h0.1c0.1,0,0.2,0,0.3-0.1
		c0.1,0,0.2-0.1,0.2-0.1C52,108.5,52.1,108.3,52.4,108.2"/>
	<path id="XMLID_55_" class="st35" d="M57.9,106.7c-1,1.1-1.5,1.8-1.5,2.3c0,0.2,0.1,0.4,0.3,0.4c0.2,0,0.4-0.1,0.6-0.3
		c0.3-0.2,0.7-0.5,1.2-0.9v0.6c-0.8,0.8-1.4,1.3-1.8,1.7c-0.4,0.3-0.8,0.5-1,0.5c-0.5,0-0.7-0.3-0.7-0.9c0-0.2,0-0.4,0.1-0.5
		c0.1-0.2,0.1-0.3,0.2-0.5c0.1-0.2,0.2-0.5,0.4-0.8c0.2-0.3,0.4-0.7,0.7-1.2c-0.3,0.2-0.7,0.5-1.2,1c-0.3,0.3-0.6,0.6-0.8,0.8
		c-0.2,0.3-0.4,0.6-0.7,0.9c-0.2,0.3-0.4,0.6-0.5,0.7c-0.1,0.1-0.2,0.2-0.3,0.2c-0.2,0-0.3-0.2-0.5-0.6c-0.1-0.4-0.2-0.8-0.2-1.3
		c0-0.3,0-0.5,0.1-0.7c0.1-0.2,0.2-0.4,0.4-0.7c0.4-0.6,0.7-1,1-1.3c0.3-0.3,0.5-0.4,0.8-0.4c0.2,0,0.3,0,0.4,0.1
		c0.1,0.1,0.2,0.2,0.2,0.3c0,0.1,0,0.1-0.1,0.2c0,0.1-0.1,0.1-0.1,0.2c0,0.1-0.1,0.1-0.3,0.3c-0.9,1-1.3,1.6-1.3,1.9
		c0,0.2,0.1,0.2,0.2,0.2c0.1,0,0.2-0.1,0.4-0.3c0.2-0.2,0.4-0.5,0.7-0.8c0.3-0.3,0.7-0.7,1.1-1.1c0.4-0.4,0.9-0.7,1.4-1.1
		c0.3-0.2,0.5-0.3,0.7-0.3c0.1,0,0.2,0.1,0.3,0.4c0.1,0.2,0.1,0.5,0.1,0.7C58.3,106.2,58.2,106.4,57.9,106.7"/>
	<path id="XMLID_52_" class="st35" d="M67.5,106.1l-0.5,0.8c0.2,0,0.4,0,0.6,0c0.2,0,0.3,0,0.4,0c1,0,1.8-0.1,2.5-0.4
		c0.7-0.3,1.3-0.6,1.7-1c0.4-0.4,0.7-0.8,0.9-1.2c0.2-0.4,0.3-0.7,0.3-1c0-0.4-0.1-0.6-0.4-0.8c-0.3-0.2-0.7-0.3-1.2-0.4
		c-0.5-0.1-1.2-0.1-2.1-0.1c0,0.1,0,0.1,0,0.2c0,0.3-0.2,0.7-0.5,1.1l-1.4,2.3l1.1-0.1c0.1,0,0.1,0,0.1,0.1c0,0.1-0.1,0.1-0.2,0.1
		L67.5,106.1z M66.6,105.9l2.5-3.8c-0.6,0-1.2,0.1-1.8,0.2c-0.6,0.1-1.2,0.3-1.6,0.5c-0.5,0.2-0.9,0.3-1.2,0.5
		c-0.4,0.1-0.6,0.2-0.8,0.3c0,0-0.1,0-0.1,0c0,0-0.1-0.1-0.1-0.1c0,0,0.1-0.3,0.4-0.8c0.3-0.5,0.6-1,0.9-1.6c1.9-0.7,3.6-1,5.1-1
		c1.7,0,2.9,0.4,3.6,1.1c0.2,0.3,0.4,0.6,0.6,0.9c0.1,0.4,0.2,0.7,0.2,1.1c0,0.8-0.2,1.6-0.5,2.3c-0.3,0.7-0.8,1.3-1.5,1.8
		c-0.6,0.5-1.4,0.9-2.3,1.1c-0.9,0.3-1.8,0.4-2.8,0.4c-0.2,0-0.6,0-1.1-0.1l-0.7,1.4c0.1,0.1,0.1,0.2,0.1,0.3c0,0.2,0,0.3-0.1,0.4
		c-0.1,0.2-0.3,0.4-0.4,0.7c-0.2,0.3-0.3,0.5-0.4,0.5c-0.1,0.1-0.1,0.2-0.2,0.2c-0.1,0.1-0.2,0.1-0.2,0.1c-0.2,0-0.3,0-0.3-0.1
		c0-0.1-0.1-0.2-0.1-0.4c0-0.2,0.1-0.6,0.4-1.2c0.2-0.5,0.6-1.2,1.1-2.1c-0.3-0.1-0.5-0.2-0.6-0.4c-0.1-0.2-0.2-0.3-0.2-0.5
		c0-0.3,0.2-0.7,0.6-1C65.3,106.3,65.9,106,66.6,105.9"/>
	<path id="XMLID_49_" class="st35" d="M78.4,105.8c-1.4,0.7-2.5,1.2-3.1,1.7c-0.6,0.5-0.9,0.9-0.9,1.4c0,0.2,0,0.3,0.1,0.4
		c0.1,0.1,0.1,0.2,0.3,0.2c0.1,0,0.2,0,0.3-0.1c0.6-0.3,1.1-0.8,1.6-1.3C77.2,107.5,77.7,106.7,78.4,105.8 M74.5,106.7
		c0.8-0.8,1.7-1.3,2.4-1.7c0.8-0.4,1.4-0.6,1.8-0.6c0.1,0,0.2,0,0.3,0.1c0.1,0.1,0.2,0.2,0.2,0.3c0.1,0.1,0.1,0.2,0.1,0.3
		c0,0.1,0,0.2-0.1,0.2c-0.1,0-0.2,0.1-0.4,0.2c0,0.1,0.1,0.2,0.2,0.3c0.1,0.1,0.1,0.3,0.1,0.3c0,0.1,0.1,0.2,0.1,0.2
		c0,0.1-0.1,0.4-0.4,0.7c-0.3,0.4-0.5,0.6-0.6,0.8c-0.1,0.2-0.2,0.4-0.2,0.6c0,0.4,0.2,0.6,0.6,0.6c0.4,0,1-0.4,1.8-1.1v0.5
		c-1.4,1.6-2.4,2.3-3,2.3c-0.2,0-0.4-0.1-0.5-0.2c-0.1-0.1-0.1-0.3-0.1-0.6c0-0.4,0.2-1.1,0.5-1.9c-0.8,0.9-1.4,1.5-1.8,1.9
		c-0.4,0.4-0.7,0.6-1,0.6c-0.1,0-0.3-0.1-0.5-0.3c-0.2-0.2-0.3-0.5-0.5-0.8c-0.1-0.3-0.2-0.7-0.2-1c0-0.3,0-0.5,0.1-0.7
		c0.1-0.2,0.1-0.3,0.3-0.5C73.9,107.2,74.1,107,74.5,106.7"/>
	<path id="XMLID_48_" class="st35" d="M83.3,103.9h0.4c0.3-0.5,0.6-0.9,0.8-1.1c0.2-0.2,0.5-0.3,0.8-0.3c0.3,0,0.5,0.1,0.5,0.2
		c0,0.1-0.1,0.2-0.4,0.5c-0.2,0.3-0.4,0.5-0.5,0.7c0.2,0,0.4,0,0.5,0.1c0.1,0,0.3,0,0.3,0c-0.3,0.6-0.7,1.2-1.2,1.8
		c-0.2,0-0.3,0-0.4,0c-0.1,0-0.2,0-0.3,0c-0.1,0-0.2,0-0.4,0c-0.3,0.5-0.5,0.9-0.7,1.3c-0.2,0.4-0.4,0.7-0.5,1
		c-0.1,0.3-0.2,0.6-0.2,0.9c0,0.4,0.2,0.6,0.5,0.6c0.2,0,0.5-0.1,0.8-0.3c0.3-0.2,0.8-0.6,1.4-1v0.6c-1.5,1.6-2.6,2.4-3.3,2.4
		c-0.2,0-0.4-0.1-0.6-0.3c-0.2-0.2-0.2-0.4-0.2-0.7c0-0.2,0-0.4,0.1-0.7c0.1-0.3,0.2-0.7,0.5-1.3c-0.1,0.1-0.2,0.1-0.2,0.2
		c-0.1,0.1-0.1,0.1-0.2,0.2c-0.1,0.1-0.1,0.1-0.2,0.2c-0.1,0.1-0.1,0.1-0.2,0.2v-0.6c0.6-0.5,1.3-1.3,2.1-2.6c-0.1,0-0.2,0-0.2,0
		c-0.1,0-0.2,0-0.3,0c-0.3,0-0.6,0-0.7,0.1c-0.1,0-0.1,0-0.2,0.1c-0.1,0-0.1,0-0.1,0c0,0,0,0,0-0.1c0-0.2,0.1-0.5,0.3-0.8
		c0.2-0.3,0.4-0.5,0.5-0.7c0.2-0.1,0.4-0.3,0.6-0.3C82.5,103.9,82.8,103.9,83.3,103.9"/>
	<path id="XMLID_45_" class="st35" d="M89.5,105.8c-1.4,0.7-2.5,1.2-3.1,1.7c-0.6,0.5-0.9,0.9-0.9,1.4c0,0.2,0,0.3,0.1,0.4
		c0.1,0.1,0.1,0.2,0.2,0.2c0.1,0,0.2,0,0.3-0.1c0.6-0.3,1.1-0.8,1.6-1.3C88.3,107.5,88.9,106.7,89.5,105.8 M85.6,106.7
		c0.8-0.8,1.7-1.3,2.4-1.7c0.8-0.4,1.4-0.6,1.8-0.6c0.1,0,0.2,0,0.3,0.1c0.1,0.1,0.2,0.2,0.2,0.3c0.1,0.1,0.1,0.2,0.1,0.3
		c0,0.1,0,0.2-0.1,0.2c-0.1,0-0.2,0.1-0.4,0.2c0,0.1,0.1,0.2,0.1,0.3c0.1,0.1,0.1,0.3,0.1,0.3c0,0.1,0.1,0.2,0.1,0.2
		c0,0.1-0.1,0.4-0.4,0.7c-0.3,0.4-0.5,0.6-0.6,0.8c-0.1,0.2-0.2,0.4-0.2,0.6c0,0.4,0.2,0.6,0.6,0.6c0.4,0,1-0.4,1.8-1.1v0.5
		c-1.4,1.6-2.4,2.3-3,2.3c-0.2,0-0.4-0.1-0.5-0.2c-0.1-0.1-0.1-0.3-0.1-0.6c0-0.4,0.2-1.1,0.5-1.9c-0.8,0.9-1.4,1.5-1.8,1.9
		c-0.4,0.4-0.7,0.6-1,0.6c-0.1,0-0.3-0.1-0.5-0.3c-0.2-0.2-0.3-0.5-0.5-0.8c-0.1-0.3-0.2-0.7-0.2-1c0-0.3,0-0.5,0.1-0.7
		c0-0.2,0.1-0.3,0.3-0.5C85,107.2,85.3,107,85.6,106.7"/>
	<path id="XMLID_42_" class="st35" d="M93.5,111.3c-0.4,0.3-0.8,0.6-1.2,0.9c-0.4,0.3-0.7,0.7-1,1c-0.3,0.3-0.4,0.5-0.4,0.6
		c0,0.1,0.1,0.2,0.2,0.2c0.2,0,0.5-0.1,0.8-0.3c0.3-0.2,0.6-0.5,0.9-0.9C93.1,112.2,93.4,111.8,93.5,111.3 M91.4,108.9v-0.6
		c0.3-0.3,0.6-0.8,0.9-1.3c-0.3,0-0.5-0.2-0.5-0.4c0-0.2,0.1-0.4,0.3-0.7c0.2-0.3,0.5-0.5,0.7-0.7c0.3-0.2,0.5-0.3,0.7-0.3
		c0.2,0,0.3,0.1,0.3,0.2c0,0.1,0,0.1,0,0.1c0,0-0.1,0.1-0.1,0.1c0,0.1,0,0.1,0.1,0.1c0.3,0,0.6-0.1,1-0.2c0.4-0.1,0.7-0.2,0.9-0.2
		c0.1,0,0.2,0.1,0.3,0.4c0.1,0.6,0.2,1,0.2,1.1c0,0.1,0,0.1-0.1,0.2c-0.1,0.1-0.3,0.2-0.6,0.4c-0.3,0.2-0.6,0.4-0.9,0.6
		c-0.3,0.2-0.6,0.5-1,0.8c0.3,0.1,0.5,0.3,0.6,0.5c0.1,0.2,0.3,0.4,0.4,0.8l2.1-1.6v0.6l-2.1,1.7c-0.1,0.5-0.2,1.1-0.6,1.6
		c-0.3,0.5-0.7,1-1.1,1.5c-0.4,0.4-0.8,0.8-1.2,1.1c-0.4,0.3-0.7,0.4-0.9,0.4c-0.2,0-0.3-0.1-0.4-0.2c-0.1-0.1-0.1-0.3-0.1-0.5
		c0-0.3,0.1-0.6,0.2-0.9c0.1-0.3,0.3-0.6,0.6-0.9c0.3-0.3,0.6-0.6,1-0.9c0.4-0.3,0.9-0.7,1.5-1.1c-0.1-0.4-0.2-0.6-0.3-0.7
		c-0.1-0.1-0.4-0.2-0.7-0.3c-0.3-0.1-0.4-0.2-0.4-0.4c0-0.2,1-1,3.1-2.5c-0.3,0.1-0.7,0.1-1.2,0.2c-0.4,0.1-0.9,0.1-1.3,0.2
		c-0.3,0.4-0.5,0.8-0.8,1.2C91.8,108.5,91.6,108.7,91.4,108.9"/>
</g>
</svg>
