<?xml version="1.0" encoding="utf-8"?>
<!-- Generator: Adobe Illustrator 16.0.0, SVG Export Plug-In . SVG Version: 6.00 Build 0)  -->
<!DOCTYPE svg PUBLIC "-//W3C//DTD SVG 1.1//EN" "http://www.w3.org/Graphics/SVG/1.1/DTD/svg11.dtd">
<svg version="1.1" id="Capa_1" xmlns="http://www.w3.org/2000/svg" xmlns:xlink="http://www.w3.org/1999/xlink" x="0px" y="0px"
	 width="130px" height="36px" viewBox="56 15.75 130 36" enable-background="new 56 15.75 130 36" xml:space="preserve">
<g>
	<defs>
		<rect id="SVGID_1_" x="56" y="15.75" width="130" height="36"/>
	</defs>
	<clipPath id="SVGID_2_">
		<use xlink:href="#SVGID_1_"  overflow="visible"/>
	</clipPath>
	<g clip-path="url(#SVGID_2_)">
		<g>
			<path fill="#494941" d="M143.202,16.283c-4.547,0-8.233,3.691-8.233,8.238c0,4.549,3.688,8.238,8.233,8.238
				c4.548,0,8.235-3.689,8.235-8.238C151.438,19.975,147.75,16.283,143.202,16.283z M145.334,26.654
				c-1.178,1.178-3.085,1.178-4.267,0.003c-1.175-1.178-1.175-3.091,0-4.267c1.182-1.183,3.089-1.183,4.267,0
				C146.513,23.566,146.513,25.479,145.334,26.654z"/>
		</g>
		<g>
			<path fill="#FFFFFF" d="M95.236,35.302h-6.384v15.1h6.295c5.508,0,9.207-3.021,9.207-7.583
				C104.354,38.287,100.772,35.302,95.236,35.302 M95.3,46.01h-1.252v-6.003H95.3c2.346,0,3.744,1.158,3.744,3.136
				C99.044,45.082,97.646,46.01,95.3,46.01"/>
		</g>
		<g>
			<path fill="#FFFFFF" d="M110.603,46.148v-1.292h5.842c1.105,0,1.506-0.764,1.506-1.621v-2.407h-7.348V39.61h6.591
				c0.854-0.049,1.622-0.729,1.632-1.592v-2.717h-13.374v15.101h11.74c0.927,0,1.634-0.705,1.634-1.606v-2.647H110.603z"/>
		</g>
		<g>
			<path fill="#FFFFFF" d="M64.037,35.302H57v15.1h3.56c0.873,0,1.575-0.682,1.624-1.54v-2.468h1.638c4.354,0,7.06-2.128,7.06-5.596
				C70.881,37.446,68.261,35.302,64.037,35.302 M63.734,42.381h-1.54v-2.78h1.517c0.899,0,1.973,0.239,1.973,1.419
				C65.685,41.874,64.958,42.381,63.734,42.381"/>
		</g>
		<g>
			<path fill="#FFFFFF" d="M177.656,35.302h-3.735l-0.009,0.01c-0.6,0.029-1.108,0.439-1.366,0.946l-0.004,0.003
				c-0.026,0.054-6.545,14.153-6.545,14.153h5.518l1.097-2.405h5.283l0.729,1.619c0.354,0.615,0.826,0.786,1.465,0.786h4.524
				L177.656,35.302z M174.27,44.015l1.001-3.38l0.989,3.38H174.27z"/>
		</g>
		<g>
			<path fill="#FFFFFF" d="M160.118,40.649c-2.229-0.467-2.407-0.714-2.407-1.006c0-1.896,6.258,0.74,6.258,0.74l2.071-2.95
				c0,0-2.658-2.702-7.097-2.702c-4.062,0-6.79,2.126-6.79,5.342c0,3.532,3.087,4.36,6.522,5.085
				c2.067,0.439,2.344,0.589,2.344,1.096c0,0.385-0.7,0.509-1.353,0.522c-3.346,0.087-5.337-1.968-5.337-1.968l-3.169,3.485
				c0,0,2.61,2.937,8.343,2.937c4.297,0,7.07-2.112,7.07-5.423C166.574,42.408,163.473,41.321,160.118,40.649"/>
		</g>
		<g>
			<path fill="#FFFFFF" d="M87.957,43.012c0,4.548-3.686,8.237-8.229,8.237c-4.549,0-8.237-3.689-8.237-8.237
				c0-4.551,3.688-8.24,8.237-8.24C84.271,34.771,87.957,38.461,87.957,43.012 M81.856,40.878c-1.179-1.18-3.088-1.18-4.264,0
				c-1.18,1.176-1.18,3.092,0,4.269c1.176,1.172,3.085,1.172,4.264-0.001C83.032,43.97,83.036,42.054,81.856,40.878"/>
		</g>
		<g>
			<path fill="#FFFFFF" d="M151.427,43.012c0,4.548-3.688,8.237-8.234,8.237c-4.545,0-8.234-3.689-8.234-8.237
				c0-4.551,3.689-8.24,8.234-8.24C147.738,34.771,151.427,38.461,151.427,43.012 M145.326,40.878c-1.18-1.18-3.091-1.18-4.268,0
				c-1.179,1.176-1.179,3.092,0,4.269c1.177,1.172,3.088,1.172,4.268-0.001C146.502,43.97,146.502,42.054,145.326,40.878"/>
		</g>
		<path fill="#FFFFFF" d="M119.852,50.403h5.253v-4.25h1.142l2.586,3.59h0.016c0.298,0.413,0.785,0.659,1.328,0.659h5.241
			l-3.862-5.177c1.869-0.922,2.891-2.516,2.891-4.568c0-1.511-0.511-2.739-1.507-3.636c-1.17-1.102-3.019-1.72-5.374-1.72h-7.713
			L119.852,50.403L119.852,50.403z M128.583,41.001c0,0.853-0.729,1.361-1.954,1.361h-1.537v-2.78h1.516
			C127.505,39.582,128.583,39.818,128.583,41.001"/>
	</g>
</g>
</svg>
