<?xml version="1.0" encoding="utf-8"?>
<!-- Generator: Adobe Illustrator 19.0.0, SVG Export Plug-In . SVG Version: 6.00 Build 0)  -->
<svg version="1.1" id="Capa_1" xmlns="http://www.w3.org/2000/svg" xmlns:xlink="http://www.w3.org/1999/xlink" x="0px" y="0px"
	 viewBox="0 0 252.2 69.1" style="enable-background:new 0 0 252.2 69.1;" xml:space="preserve">
<style type="text/css">
	.st0{fill:#746458;}
	.st1{fill:#D9A500;}
</style>
<g>
	<path class="st0" d="M186.6,16.3c0,9-7.3,16.3-16.3,16.3c-9,0-16.3-7.3-16.3-16.3c0-9,7.3-16.3,16.3-16.3
		C179.4,0,186.6,7.3,186.6,16.3"/>
	<path class="st1" d="M174.6,12.1c-2.3-2.3-6.1-2.3-8.4,0c-2.3,2.3-2.3,6.1,0,8.4c2.3,2.3,6.1,2.3,8.4,0
		C176.9,18.2,176.9,14.4,174.6,12.1"/>
	<path class="st1" d="M75.7,58.7h-2.5V46.9h2.5c4.6,0,7.4,2.3,7.4,6.2C83.1,56.9,80.3,58.7,75.7,58.7 M75.6,37.6H63v29.8h12.4
		c10.9,0,18.2-6,18.2-15C93.6,43.5,86.5,37.6,75.6,37.6"/>
	<path class="st1" d="M105.9,59v-2.6h11.5c2.2,0,3-1.5,3-3.2v-4.8h-14.5v-2.4h13c1.7-0.1,3.2-1.4,3.2-3.1v-5.4H95.7v29.8H119
		c1.8,0,3.2-1.4,3.2-3.2V59H105.9z"/>
	<path class="st1" d="M13.3,51.6h-3v-5.5h3c1.8,0,3.9,0.5,3.9,2.8C17.2,50.5,15.7,51.6,13.3,51.6 M13.9,37.6H0v29.8h7
		c1.7,0,3.1-1.3,3.2-3v-4.9h3.2c8.6,0,14-4.2,14-11.1C27.4,41.8,22.3,37.6,13.9,37.6"/>
	<path class="st1" d="M231.8,54.8l2-6.7l2,6.7H231.8z M238.4,37.6h-7.4l0,0c-1.2,0.1-2.2,0.9-2.7,1.9v0c-0.1,0.1-12.9,28-12.9,28
		h10.9l2.2-4.8h10.4l1.4,3.2c0.7,1.2,1.6,1.6,2.9,1.6h8.9L238.4,37.6z"/>
	<path class="st1" d="M203.8,48.1c-4.4-0.9-4.8-1.4-4.8-2c0-3.7,12.4,1.5,12.4,1.5l4.1-5.8c0,0-5.3-5.3-14-5.3
		c-8,0-13.4,4.2-13.4,10.5c0,7,6.1,8.6,12.9,10c4.1,0.9,4.6,1.2,4.6,2.2c0,0.8-1.4,1-2.7,1c-6.6,0.2-10.5-3.9-10.5-3.9l-6.3,6.9
		c0,0,5.2,5.8,16.5,5.8c8.5,0,14-4.2,14-10.7C216.6,51.6,210.4,49.5,203.8,48.1"/>
	<path class="st1" d="M49.1,48.6c-2.3-2.3-6.1-2.3-8.4,0c-2.3,2.3-2.3,6.1,0,8.4c2.3,2.3,6.1,2.3,8.4,0
		C51.5,54.7,51.5,50.9,49.1,48.6 M61.2,52.8c0,9-7.3,16.3-16.3,16.3c-9,0-16.3-7.3-16.3-16.3c0-9,7.3-16.3,16.3-16.3
		C53.9,36.5,61.2,43.8,61.2,52.8"/>
	<path class="st1" d="M174.6,48.6c-2.3-2.3-6.1-2.3-8.4,0c-2.3,2.3-2.3,6.1,0,8.4c2.3,2.3,6.1,2.3,8.4,0
		C176.9,54.7,176.9,50.9,174.6,48.6 M186.6,52.8c0,9-7.3,16.3-16.3,16.3c-9,0-16.3-7.3-16.3-16.3c0-9,7.3-16.3,16.3-16.3
		C179.3,36.5,186.6,43.8,186.6,52.8"/>
	<path class="st1" d="M141.5,48.8c0,1.7-1.4,2.7-3.9,2.7h-3V46h3C139.3,46,141.5,46.5,141.5,48.8 M124.2,67.4h10.4V59h2.3l5.1,7.1h0
		c0.6,0.8,1.5,1.3,2.6,1.3H155l-7.6-10.2c3.7-1.8,5.7-5,5.7-9c0-3-1-5.4-3-7.2c-2.3-2.2-6-3.4-10.6-3.4h-15.2V67.4z"/>
</g>
</svg>
