<?xml version="1.0" encoding="utf-8"?>
<!-- Generator: Adobe Illustrator 19.0.0, SVG Export Plug-In . SVG Version: 6.00 Build 0)  -->
<svg version="1.1" id="Capa_1" xmlns="http://www.w3.org/2000/svg" xmlns:xlink="http://www.w3.org/1999/xlink" x="0px" y="0px"
	 viewBox="0 0 220.6 60.5" style="enable-background:new 0 0 220.6 60.5;" xml:space="preserve">
<style type="text/css">
	.st0{fill:#4A4A42;}
	.st1{fill:#D8A505;}
</style>
<g>
	<g>
		<path class="st0" d="M163.3,14.2c0,7.9-6.4,14.2-14.2,14.2c-7.9,0-14.2-6.4-14.2-14.2C134.8,6.4,141.2,0,149,0
			C156.9,0,163.3,6.4,163.3,14.2"/>
	</g>
	<g>
		<path class="st1" d="M152.7,10.6c-2-2-5.3-2-7.4,0c-2,2-2,5.3,0,7.4c2,2,5.3,2,7.4,0C154.8,15.9,154.8,12.6,152.7,10.6"/>
	</g>
	<g>
		<path class="st1" d="M66.1,32.9h-11V59H66c9.5,0,15.9-5.2,15.9-13.1C81.9,38,75.7,32.9,66.1,32.9 M66.2,51.4h-2.2V41h2.2
			c4.1,0,6.5,2,6.5,5.4C72.7,49.8,70.3,51.4,66.2,51.4"/>
	</g>
	<g>
		<path class="st1" d="M92.7,51.6v-2.2h10.1c1.9,0,2.6-1.3,2.6-2.8v-4.2H92.7v-2.1h11.4c1.5-0.1,2.8-1.3,2.8-2.8v-4.7H83.8V59h20.3
			c1.6,0,2.8-1.2,2.8-2.8v-4.6H92.7z"/>
	</g>
	<g>
		<path class="st1" d="M12.2,32.9H0V59h6.2c1.5,0,2.7-1.2,2.8-2.7v-4.3h2.8c7.5,0,12.2-3.7,12.2-9.7C24,36.6,19.5,32.9,12.2,32.9
			 M11.6,45.1H9v-4.8h2.6c1.6,0,3.4,0.4,3.4,2.5C15,44.2,13.8,45.1,11.6,45.1"/>
	</g>
	<g>
		<path class="st1" d="M208.6,32.9h-6.5l0,0c-1,0.1-1.9,0.8-2.4,1.6l0,0c0,0.1-11.3,24.5-11.3,24.5h9.5l1.9-4.2h9.1l1.3,2.8
			c0.6,1.1,1.4,1.4,2.5,1.4h7.8L208.6,32.9z M202.8,47.9l1.7-5.8l1.7,5.8H202.8z"/>
	</g>
	<g>
		<path class="st1" d="M178.3,42.1c-3.9-0.8-4.2-1.2-4.2-1.7c0-3.3,10.8,1.3,10.8,1.3l3.6-5.1c0,0-4.6-4.7-12.3-4.7
			c-7,0-11.7,3.7-11.7,9.2c0,6.1,5.3,7.5,11.3,8.8c3.6,0.8,4,1,4,1.9c0,0.7-1.2,0.9-2.3,0.9c-5.8,0.2-9.2-3.4-9.2-3.4l-5.5,6
			c0,0,4.5,5.1,14.4,5.1c7.4,0,12.2-3.7,12.2-9.4C189.5,45.2,184.1,43.3,178.3,42.1"/>
	</g>
	<g>
		<path class="st1" d="M53.5,46.2c0,7.9-6.4,14.2-14.2,14.2c-7.9,0-14.2-6.4-14.2-14.2c0-7.9,6.4-14.2,14.2-14.2
			C47.1,32,53.5,38.3,53.5,46.2 M43,42.5c-2-2-5.3-2-7.4,0c-2,2-2,5.3,0,7.4c2,2,5.3,2,7.4,0C45,47.9,45,44.6,43,42.5"/>
	</g>
	<g>
		<path class="st1" d="M163.3,46.2c0,7.9-6.4,14.2-14.2,14.2c-7.9,0-14.2-6.4-14.2-14.2c0-7.9,6.4-14.2,14.2-14.2
			C156.9,32,163.3,38.3,163.3,46.2 M152.7,42.5c-2-2-5.3-2-7.4,0c-2,2-2,5.3,0,7.4c2,2,5.3,2,7.4,0
			C154.7,47.9,154.7,44.6,152.7,42.5"/>
	</g>
	<g>
		<path class="st1" d="M108.7,59h9.1v-7.3h2l4.5,6.2h0c0.5,0.7,1.4,1.1,2.3,1.1h9.1l-6.7-8.9c3.2-1.6,5-4.3,5-7.9
			c0-2.6-0.9-4.7-2.6-6.3c-2-1.9-5.2-3-9.3-3h-13.3V59L108.7,59z M123.8,42.7c0,1.5-1.3,2.4-3.4,2.4h-2.7v-4.8h2.6
			C121.9,40.3,123.8,40.7,123.8,42.7"/>
	</g>
</g>
</svg>
