<?xml version="1.0" encoding="utf-8"?>
<!-- Generator: Adobe Illustrator 19.0.0, SVG Export Plug-In . SVG Version: 6.00 Build 0)  -->
<svg version="1.1" id="Capa_1" xmlns="http://www.w3.org/2000/svg" xmlns:xlink="http://www.w3.org/1999/xlink" x="0px" y="0px"
	 viewBox="0 0 34.8 34.8" style="enable-background:new 0 0 34.8 34.8;" xml:space="preserve">
<style type="text/css">
	.st0{opacity:0.7;}
	.st1{fill:#FFFFFF;}
</style>
<g class="st0">
	<path class="st1" d="M34,30.2L26.8,23c1.7-2.5,2.6-5.3,2.6-8.3c0-2-0.4-3.9-1.2-5.7c-0.8-1.8-1.8-3.4-3.1-4.7
		c-1.3-1.3-2.9-2.4-4.7-3.1C18.6,0.4,16.7,0,14.7,0S10.8,0.4,9,1.2C7.2,1.9,5.6,3,4.3,4.3C3,5.6,1.9,7.2,1.2,9
		C0.4,10.8,0,12.7,0,14.7c0,2,0.4,3.9,1.2,5.7c0.8,1.8,1.8,3.4,3.1,4.7c1.3,1.3,2.9,2.4,4.7,3.1c1.8,0.8,3.7,1.2,5.7,1.2
		c3.1,0,5.8-0.9,8.3-2.6l7.2,7.1c0.5,0.5,1.1,0.8,1.9,0.8c0.7,0,1.4-0.3,1.9-0.8c0.5-0.5,0.8-1.2,0.8-1.9
		C34.8,31.4,34.5,30.7,34,30.2L34,30.2z M21.3,21.3c-1.8,1.8-4,2.7-6.6,2.7c-2.6,0-4.8-0.9-6.6-2.7c-1.8-1.8-2.7-4-2.7-6.6
		s0.9-4.8,2.7-6.6c1.8-1.8,4-2.7,6.6-2.7c2.6,0,4.8,0.9,6.6,2.7c1.8,1.8,2.7,4,2.7,6.6S23.2,19.5,21.3,21.3L21.3,21.3z M21.3,21.3"
		/>
	<path class="st1" d="M20.7,13.4H16V8.7c0-0.2-0.1-0.3-0.2-0.5C15.7,8.1,15.6,8,15.4,8H14c-0.2,0-0.3,0.1-0.5,0.2
		c-0.1,0.1-0.2,0.3-0.2,0.5v4.7H8.7c-0.2,0-0.3,0.1-0.5,0.2C8.1,13.7,8,13.9,8,14v1.3c0,0.2,0.1,0.3,0.2,0.5C8.4,16,8.5,16,8.7,16
		h4.7v4.7c0,0.2,0.1,0.3,0.2,0.5c0.1,0.1,0.3,0.2,0.5,0.2h1.3c0.2,0,0.3-0.1,0.5-0.2c0.1-0.1,0.2-0.3,0.2-0.5V16h4.7
		c0.2,0,0.3-0.1,0.5-0.2c0.1-0.1,0.2-0.3,0.2-0.5V14c0-0.2-0.1-0.3-0.2-0.5C21.1,13.4,20.9,13.4,20.7,13.4L20.7,13.4z M20.7,13.4"/>
</g>
</svg>
