<?xml version="1.0" encoding="utf-8"?>
<!-- Generator: Adobe Illustrator 19.0.0, SVG Export Plug-In . SVG Version: 6.00 Build 0)  -->
<svg version="1.1" id="Capa_1" xmlns="http://www.w3.org/2000/svg" xmlns:xlink="http://www.w3.org/1999/xlink" x="0px" y="0px"
	 viewBox="0 0 124.1 116.7" style="enable-background:new 0 0 124.1 116.7;" xml:space="preserve">
<style type="text/css">
	.st0{fill:#D9A500;}
</style>
<g>
	<g>
		<path class="st0" d="M92.9,65.2c-1.7,3.3-3.4,6.2-4.9,8.7c16.8,3.5,26.4,10.1,26.4,15.3c0,7.4-19.9,17.8-52.4,17.8
			S9.7,96.6,9.7,89.2c0-5.1,9.5-11.6,26-15.2c-1.5-2.4-3.2-5.4-4.9-8.7C13.3,69.6,0,77.7,0,89.2c0,17.8,32,27.5,62,27.5
			s62-9.6,62-27.5C124.1,77.6,110.6,69.5,92.9,65.2L92.9,65.2z M92.9,65.2"/>
		<path class="st0" d="M61.8,90.6c6.4,0,31.7-33.3,31.7-55.9C93.5,18.9,86,0,61.8,0C37.5,0,30.1,18.9,30.1,34.7
			C30.1,57.6,55.7,90.6,61.8,90.6L61.8,90.6z M47.1,31.2c0-8.1,6.6-14.7,14.7-14.7c8.1,0,14.7,6.6,14.7,14.7
			c0,8.1-6.6,14.7-14.7,14.7C53.7,45.9,47.1,39.3,47.1,31.2L47.1,31.2z M47.1,31.2"/>
	</g>
</g>
</svg>
