<?xml version="1.0" encoding="utf-8"?>
<!-- Generator: Adobe Illustrator 19.0.0, SVG Export Plug-In . SVG Version: 6.00 Build 0)  -->
<svg version="1.1" id="Capa_1" xmlns="http://www.w3.org/2000/svg" xmlns:xlink="http://www.w3.org/1999/xlink" x="0px" y="0px"
	 viewBox="0 0 25.6 41" style="enable-background:new 0 0 25.6 41;" xml:space="preserve">
<style type="text/css">
	.st0{fill:#010202;}
</style>
<g id="XMLID_110_">
	<path id="XMLID_111_" class="st0" d="M597.5,595.4l-1.3-2.2c5-2.6,8.2-4.8,9.8-6.7c1.1-1.3,1.7-2.6,1.7-3.9c0-1.3-1-2.8-2.9-4.5
		c-2.7-2.4-4-4.7-4-7.1c0-2.3,0.8-4.3,2.5-6.1c1.7-1.7,3.7-2.6,6-2.6c2.3,0,4.4,0.9,6.2,2.8c1.8,1.9,2.7,4.2,2.7,6.9
		c0,4.3-1.5,8.2-4.4,11.9C610,588.6,604.6,592.5,597.5,595.4z M620.4,595.5l-1.2-2.1c4.8-2.6,8.1-4.8,9.8-6.9
		c1.1-1.4,1.7-2.6,1.7-3.8s-0.9-2.7-2.6-4.3c-1.8-1.7-3-3.1-3.6-4.3c-0.5-0.9-0.7-1.9-0.7-3.1c0-2.3,0.8-4.3,2.5-6
		c1.7-1.7,3.7-2.5,6.1-2.5c2.4,0,4.5,0.9,6.1,2.7c1.7,1.8,2.5,4.1,2.5,6.9c0,4.3-1.3,8.1-4,11.5
		C633.4,588.1,627.9,592.1,620.4,595.5z"/>
</g>
<polygon id="XMLID_41_" class="st0" points="21.5,16.5 5,0 0,5 15.5,20.6 0.2,35.9 5.2,41 25.6,20.6 "/>
</svg>
