<?xml version="1.0" encoding="utf-8"?>
<!-- Generator: Adobe Illustrator 16.0.0, SVG Export Plug-In . SVG Version: 6.00 Build 0)  -->
<!DOCTYPE svg PUBLIC "-//W3C//DTD SVG 1.1//EN" "http://www.w3.org/Graphics/SVG/1.1/DTD/svg11.dtd">
<svg version="1.1" xmlns="http://www.w3.org/2000/svg" xmlns:xlink="http://www.w3.org/1999/xlink" x="0px" y="0px" width="160px"
	 height="160px" viewBox="0 0 160 160" enable-background="new 0 0 160 160" xml:space="preserve">
<g id="Capa_4">
	<g>
		<defs>
			<rect id="SVGID_19_" x="-244.936" y="-2320.069" width="1597.639" height="3581.729"/>
		</defs>
		<clipPath id="SVGID_2_">
			<use xlink:href="#SVGID_19_"  overflow="visible"/>
		</clipPath>
		<g clip-path="url(#SVGID_2_)">
		</g>
	</g>
</g>
<g id="Capa_1">
	<g>
		<circle fill="#D8A400" cx="80" cy="80" r="80"/>
		<path fill="#FFFFFF" d="M114.07,127.625c-0.198,0-0.39-0.041-0.569-0.121l-16.466-7.331l-16.463,7.33
			c-0.182,0.081-0.374,0.122-0.571,0.122c-0.198,0-0.391-0.041-0.571-0.122l-16.465-7.33l-16.463,7.33
			c-0.182,0.081-0.373,0.122-0.571,0.122c-0.376,0-0.742-0.154-1.006-0.423c-0.407-0.418-0.515-1.053-0.264-1.582l12.818-27.117
			c0.144-0.304,0.392-0.546,0.697-0.682l5.581-2.485l1.46,2.425l-5.421,2.414l-10.979,23.222l13.576-6.044
			c0.182-0.08,0.373-0.121,0.571-0.121s0.39,0.041,0.571,0.121L80,124.683l16.464-7.33c0.181-0.081,0.373-0.121,0.571-0.121
			s0.39,0.041,0.571,0.121l13.574,6.044l-10.978-23.221l-5.479-2.44c0,0,1.388-2.459,1.388-2.46l5.672,2.528
			c0.334,0.142,0.59,0.387,0.736,0.698l12.819,27.117c0.251,0.529,0.144,1.165-0.264,1.582
			C114.812,127.471,114.446,127.625,114.07,127.625z"/>
		<g>
			<path fill="#494941" d="M80,112.713c-2.205,0-4.197-1.131-5.328-3.025l-20.68-34.661c-2.166-4.222-3.272-8.889-3.245-13.575
				c0.045-7.668,3.067-14.912,8.51-20.398c5.442-5.487,12.662-8.567,20.328-8.674l0.425-0.003c7.73,0,15.021,2.992,20.53,8.425
				c5.619,5.542,8.713,12.938,8.713,20.829c0,4.69-1.077,9.171-3.201,13.319l-20.725,34.74
				C84.196,111.582,82.204,112.713,80,112.713z M79.625,35.188c-14.289,0.198-25.984,11.987-26.068,26.281
				c-0.025,4.271,0.936,8.351,2.856,12.128l20.673,34.652c0.891,1.494,2.335,1.655,2.914,1.655s2.022-0.161,2.915-1.655
				l20.64-34.593c1.928-3.785,2.889-7.811,2.889-12.026c0-7.133-2.797-13.82-7.875-18.829c-4.979-4.911-11.576-7.615-18.574-7.615
				L79.625,35.188z"/>
			<path fill="#494941" d="M80.001,71.584c-5.489,0-9.955-4.466-9.955-9.955c0-5.489,4.466-9.956,9.955-9.956
				s9.955,4.466,9.955,9.956c0,2.655-1.036,5.154-2.919,7.036S82.656,71.584,80.001,71.584L80.001,71.584z M80.001,54.482
				c-3.941,0-7.147,3.206-7.147,7.146S76.06,68.776,80,68.776c3.941,0,7.147-3.206,7.147-7.147S83.941,54.482,80.001,54.482z"/>
		</g>
	</g>
</g>
<g id="Guias" display="none">
</g>
<g id="bootstrap" display="none">
</g>
</svg>
