<?xml version="1.0" encoding="utf-8"?>
<!-- Generator: Adobe Illustrator 19.0.0, SVG Export Plug-In . SVG Version: 6.00 Build 0)  -->
<svg version="1.1" id="Capa_1" xmlns="http://www.w3.org/2000/svg" xmlns:xlink="http://www.w3.org/1999/xlink" x="0px" y="0px"
	 viewBox="-262 385.9 70 70" style="enable-background:new -262 385.9 70 70;" xml:space="preserve">
<style type="text/css">
	.st0{fill:#666666;}
</style>
<g>
	<path class="st0" d="M-192.3,420.9c0,9.3-3.6,18-10.2,24.5c-13.5,13.5-35.5,13.5-49,0c-6.5-6.5-10.1-15.3-10.1-24.5
		c0-9.3,3.6-18,10.2-24.5c13.5-13.5,35.5-13.5,49,0C-195.9,402.9-192.3,411.6-192.3,420.9z M-257.7,420.9c0,8.2,3.2,15.9,9,21.7
		c12,11.9,31.4,11.9,43.4,0c5.8-5.8,9-13.5,9-21.7s-3.2-15.9-9-21.7c-12-11.9-31.4-11.9-43.4,0C-254.5,405-257.7,412.7-257.7,420.9z
		"/>
	<g>
		<path class="st0" d="M-213.4,420.9c0,0.6-0.3,1.2-0.7,1.7l-17.7,16.6c-0.9,0.9-2.4,0.8-3.2-0.1c-0.9-0.9-0.8-2.4,0.1-3.2
			l15.9-14.9L-235,406c-0.9-0.9-1-2.3-0.1-3.2c0.9-0.9,2.3-1,3.2-0.1l17.7,16.6C-213.7,419.6-213.4,420.3-213.4,420.9z"/>
	</g>
</g>
</svg>
