<?xml version="1.0" encoding="utf-8"?>
<!-- Generator: Adobe Illustrator 19.0.0, SVG Export Plug-In . SVG Version: 6.00 Build 0)  -->
<svg version="1.1" id="Capa_1" xmlns="http://www.w3.org/2000/svg" xmlns:xlink="http://www.w3.org/1999/xlink" x="0px" y="0px"
	 viewBox="-265 389 64.9 64.9" style="enable-background:new -265 389 64.9 64.9;" xml:space="preserve">
<style type="text/css">
	.st0{fill:#666666;}
</style>
<g>
	<path class="st0" d="M-232.5,453.9c-8.7,0-16.9-3.4-23-9.5c-12.7-12.7-12.7-33.3,0-46c6.1-6.1,14.3-9.5,23-9.5s16.9,3.4,23,9.5
		c12.7,12.7,12.7,33.3,0,46C-215.7,450.6-223.9,453.9-232.5,453.9z M-232.5,392.7c-7.7,0-14.9,3-20.3,8.4
		c-11.2,11.2-11.2,29.4,0,40.7c5.4,5.4,12.7,8.4,20.3,8.4c7.7,0,14.9-3,20.3-8.4c11.2-11.2,11.2-29.4,0-40.7
		C-217.6,395.7-224.9,392.7-232.5,392.7z"/>
	<g>
		<g>
			<g>
				<path class="st0" d="M-230.6,432.8c0,1.4-0.9,2.5-2,2.5s-2-1.1-2-2.5v-22.6c0-1.4,0.9-2.5,2-2.5s2,1.1,2,2.5V432.8z"/>
			</g>
			<g>
				<path class="st0" d="M-243.9,423.4c-1.4,0-2.5-0.9-2.5-2s1.1-2,2.5-2h22.6c1.4,0,2.5,0.9,2.5,2s-1.1,2-2.5,2H-243.9z"/>
			</g>
		</g>
	</g>
</g>
</svg>
