<?xml version="1.0" encoding="utf-8"?>
<!-- Generator: Adobe Illustrator 19.0.0, SVG Export Plug-In . SVG Version: 6.00 Build 0)  -->
<svg version="1.1" id="Capa_1" xmlns="http://www.w3.org/2000/svg" xmlns:xlink="http://www.w3.org/1999/xlink" x="0px" y="0px"
	 viewBox="-265 389 64.9 64.9" style="enable-background:new -265 389 64.9 64.9;" xml:space="preserve">
<style type="text/css">
	.st0{fill:#666666;}
</style>
<g>
	<path id="XMLID_7_" class="st0" d="M-232.5,453.9c-8.7,0-16.9-3.4-23-9.5c-12.7-12.7-12.7-33.3,0-46c6.1-6.1,14.3-9.5,23-9.5
		s16.9,3.4,23,9.5c12.7,12.7,12.7,33.3,0,46C-215.7,450.5-223.9,453.9-232.5,453.9z M-232.6,392.6c-7.7,0-14.9,3-20.3,8.4
		c-11.2,11.2-11.2,29.5,0,40.7c5.4,5.4,12.7,8.4,20.3,8.4c7.7,0,14.9-3,20.3-8.4c11.2-11.2,11.2-29.5,0-40.7
		C-217.6,395.6-224.9,392.6-232.6,392.6z"/>
	<g id="XMLID_4_">
		<path id="XMLID_6_" class="st0" d="M-232.6,430.6c-0.5,0-1-0.2-1.4-0.6l-13.6-14.5c-0.7-0.8-0.7-1.9,0.1-2.7
			c0.8-0.7,1.9-0.7,2.7,0.1l12.2,13l12.2-13c0.7-0.8,1.9-0.8,2.7-0.1c0.8,0.7,0.8,1.9,0.1,2.7l-13.6,14.5
			C-231.5,430.3-232,430.6-232.6,430.6z"/>
		<path id="XMLID_5_" class="st0" d="M-232.6,429c-1,0-1.9-0.8-1.9-1.9v-23.8c0-1,0.8-1.9,1.9-1.9c1,0,1.9,0.8,1.9,1.9v23.8
			C-230.7,428.1-231.5,429-232.6,429z"/>
	</g>
	<path id="XMLID_3_" class="st0" d="M-218.8,438.9h-27.5c-1,0-1.9-0.8-1.9-1.9c0-1,0.8-1.9,1.9-1.9h27.5c1,0,1.9,0.8,1.9,1.9
		C-216.9,438-217.7,438.9-218.8,438.9z"/>
</g>
</svg>
