<?xml version="1.0" encoding="utf-8"?>
<!-- Generator: Adobe Illustrator 19.0.0, SVG Export Plug-In . SVG Version: 6.00 Build 0)  -->
<svg version="1.1" id="Capa_1" xmlns="http://www.w3.org/2000/svg" xmlns:xlink="http://www.w3.org/1999/xlink" x="0px" y="0px"
	 viewBox="0 0 39.5 39.5" style="enable-background:new 0 0 39.5 39.5;" xml:space="preserve">
<style type="text/css">
	.st0{fill:#D8A502;}
	.st1{fill:#494941;}
</style>
<g id="XMLID_8_">
	<circle id="XMLID_14_" class="st0" cx="19.7" cy="19.7" r="19.7"/>
	<g id="XMLID_9_">
		<path id="XMLID_10_" class="st1" d="M18.8,21.6c-2.9-2-5.2-3.2-5.2-7.4c0-2.6,1.4-5.1,5.1-5.6V6.8h2v1.9c3.3,0.4,4.8,2.1,4.9,4.1
			c0,0.6,0.1,1.3,0.1,1.9h-3.5c0-1.6-0.2-2.6-1.6-3v6c3.1,1.6,5.6,3.8,5.6,6.9c0.1,4.1-1.5,6.2-5.5,6.7v3.3h-2v-3.2
			c-4.2-0.4-5.6-3.3-5.4-7.2h3.6c0,1.9-0.1,3.6,1.9,4.1V21.6z M18.8,11.7c-1,0.2-1.6,1.1-1.6,2.2c0,1.5,0.8,2.3,1.6,3.1V11.7z
			 M20.6,28.3c1-0.3,1.8-1.2,1.8-2.8c0-1.5-1-2.8-1.8-3.2V28.3z"/>
	</g>
</g>
</svg>
