<?xml version="1.0" encoding="utf-8"?>
<!-- Generator: Adobe Illustrator 26.2.1, SVG Export Plug-In . SVG Version: 6.00 Build 0)  -->
<svg version="1.1" id="Capa_1" xmlns="http://www.w3.org/2000/svg" xmlns:xlink="http://www.w3.org/1999/xlink" x="0px" y="0px"
	 width="40px" height="40px" viewBox="0 0 40 40" enable-background="new 0 0 40 40" xml:space="preserve">
<g>
	<g>
		<path fill="#D8A400" d="M20,1C9.507,1,1,9.507,1,20s8.507,19,19,19s19-8.507,19-19S30.493,1,20,1z M4.009,25.169
			c-0.012,0.074-0.066,0.128-0.132,0.128c-0.07,0-0.124-0.054-0.132-0.128l-0.24-1.799l0.24-1.834
			c0.008-0.078,0.062-0.128,0.132-0.128c0.066,0,0.12,0.054,0.132,0.128l0.287,1.834L4.009,25.169z M5.234,26.266
			c-0.012,0.078-0.07,0.132-0.136,0.132c-0.07,0-0.128-0.054-0.136-0.132L4.637,23.37l0.326-2.962
			c0.008-0.078,0.066-0.132,0.136-0.132s0.124,0.054,0.136,0.132l0.368,2.962L5.234,26.266z M6.557,26.755
			c-0.012,0.093-0.081,0.163-0.167,0.163c-0.085,0-0.155-0.066-0.167-0.163L5.917,23.37l0.306-3.517
			C6.231,19.76,6.301,19.69,6.39,19.69c0.085,0,0.155,0.07,0.167,0.163l0.349,3.517L6.557,26.755z M7.894,26.863
			c-0.008,0.109-0.093,0.19-0.194,0.19c-0.101,0-0.186-0.081-0.194-0.19L7.216,23.37l0.291-3.614c0.008-0.109,0.093-0.19,0.194-0.19
			c0.101,0,0.182,0.081,0.194,0.19l0.33,3.614L7.894,26.863z M9.24,26.89c-0.008,0.124-0.105,0.217-0.221,0.217
			c-0.12,0-0.213-0.093-0.221-0.217l-0.275-3.525l0.275-3.35c0.008-0.124,0.105-0.217,0.221-0.217c0.116,0,0.213,0.093,0.221,0.217
			l0.31,3.354L9.24,26.89z M10.597,26.894L10.597,26.894c-0.008,0.136-0.116,0.244-0.248,0.244c-0.132,0-0.244-0.109-0.252-0.248
			l-0.256-3.525l0.256-5.452c0.008-0.14,0.116-0.248,0.252-0.248c0.132,0,0.24,0.109,0.248,0.248l0.291,5.452L10.597,26.894z
			 M11.942,26.89L11.942,26.89c-0.008,0.151-0.128,0.271-0.279,0.271c-0.147,0-0.271-0.12-0.275-0.275l-0.24-3.501l0.24-6.697
			c0.008-0.155,0.128-0.275,0.279-0.275c0.147,0,0.271,0.12,0.279,0.275l0.271,6.697L11.942,26.89z M13.338,26.836L13.338,26.836
			c-0.008,0.167-0.14,0.302-0.306,0.302c-0.167,0-0.299-0.132-0.306-0.302l-0.225-3.467c0,0,0.225-7.255,0.225-7.259
			c0.008-0.171,0.14-0.302,0.306-0.302c0.167,0,0.299,0.132,0.306,0.302l0.252,7.259L13.338,26.836z M14.727,26.813
			c-0.004,0.186-0.151,0.333-0.333,0.333s-0.33-0.147-0.333-0.33l-0.209-3.443l0.209-7.503c0.008-0.186,0.151-0.333,0.333-0.333
			s0.33,0.147,0.333,0.333l0.233,7.503L14.727,26.813z M16.126,26.782L16.126,26.782c-0.004,0.198-0.163,0.357-0.361,0.357
			s-0.357-0.159-0.361-0.361l-0.19-3.412l0.19-7.309c0.004-0.202,0.163-0.361,0.364-0.361c0.198,0,0.357,0.159,0.361,0.361
			l0.217,7.313L16.126,26.782z M17.534,26.762L17.534,26.762c-0.004,0.217-0.174,0.388-0.392,0.388
			c-0.213,0-0.388-0.171-0.392-0.388l-0.174-3.389l0.174-7.046c0.004-0.217,0.178-0.388,0.392-0.388s0.388,0.171,0.392,0.388
			l0.194,7.046L17.534,26.762z M18.972,26.406l-0.019,0.333c-0.004,0.116-0.05,0.217-0.124,0.295
			c-0.078,0.074-0.178,0.12-0.291,0.12c-0.128,0-0.244-0.058-0.322-0.151c-0.058-0.07-0.093-0.155-0.097-0.248
			c0-0.004,0-0.008,0-0.016c0,0-0.159-3.366-0.159-3.37l0.159-8.302V14.99c0.004-0.147,0.078-0.275,0.194-0.349
			c0.066-0.043,0.143-0.07,0.225-0.07c0.085,0,0.167,0.027,0.233,0.07c0.112,0.074,0.186,0.202,0.186,0.345l0.174,8.383
			L18.972,26.406z M20.368,26.693L20.368,26.693v-0.004c-0.004,0.244-0.206,0.446-0.446,0.446c-0.244,0-0.446-0.202-0.446-0.442
			l-0.089-1.636l-0.093-1.683l0.182-9.097V14.23c0-0.14,0.066-0.264,0.167-0.345c0.078-0.062,0.174-0.101,0.283-0.101
			c0.081,0,0.163,0.023,0.229,0.066c0.128,0.078,0.217,0.221,0.221,0.38l0.198,9.143L20.368,26.693z M32.439,27.142
			c0,0-11.237,0-11.249,0c-0.244-0.023-0.434-0.217-0.438-0.465V13.796c0.004-0.237,0.085-0.357,0.392-0.477
			c0.787-0.306,1.679-0.485,2.594-0.485c3.742,0,6.809,2.869,7.131,6.526c0.485-0.202,1.012-0.314,1.57-0.314
			c2.241,0,4.056,1.819,4.056,4.06C36.495,25.347,34.68,27.142,32.439,27.142z"/>
	</g>
</g>
</svg>
