<?xml version="1.0" encoding="utf-8"?>
<!-- Generator: Adobe Illustrator 26.2.1, SVG Export Plug-In . SVG Version: 6.00 Build 0)  -->
<svg version="1.1" id="Capa_1" xmlns="http://www.w3.org/2000/svg" xmlns:xlink="http://www.w3.org/1999/xlink" x="0px" y="0px"
	 width="40px" height="40px" viewBox="0 0 40 40" style="enable-background:new 0 0 40 40;" xml:space="preserve">
<style type="text/css">
	.st0{fill:#FFFFFF;}
</style>
<g>
	<path class="st0" d="M22,17.7L22,17.7C22,17.7,22,17.7,22,17.7L22,17.7z"/>
	<path class="st0" d="M20,1C9.5,1,1,9.5,1,20s8.5,19,19,19s19-8.5,19-19S30.5,1,20,1z M15,29.4h-4.5V15.7H15V29.4z M12.7,13.8
		L12.7,13.8c-1.6,0-2.5-1-2.5-2.4c0-1.3,1-2.4,2.6-2.4s2.5,1,2.5,2.4C15.3,12.8,14.3,13.8,12.7,13.8z M31.4,29.4h-4.5v-7.3
		c0-1.8-0.7-3.1-2.3-3.1c-1.3,0-2,0.8-2.3,1.7c-0.1,0.3-0.1,0.7-0.1,1.1v7.6h-4.5c0,0,0.1-12.4,0-13.7H22v1.9
		c0.6-0.9,1.7-2.3,4.1-2.3c3,0,5.2,2,5.2,6.1L31.4,29.4L31.4,29.4z"/>
</g>
</svg>
