<?xml version="1.0" encoding="utf-8"?>
<!-- Generator: Adobe Illustrator 26.2.1, SVG Export Plug-In . SVG Version: 6.00 Build 0)  -->
<svg version="1.1" id="Capa_1" xmlns="http://www.w3.org/2000/svg" xmlns:xlink="http://www.w3.org/1999/xlink" x="0px" y="0px"
	 width="40px" height="40px" viewBox="0 0 40 40" style="enable-background:new 0 0 40 40;" xml:space="preserve">
<style type="text/css">
	.st0{fill:#FFFFFF;}
</style>
<path class="st0" d="M20,1C9.5,1,1,9.5,1,20c0,9.4,7,17.4,16,18.8V25.5h-4.8v-5.4H17v-4.3c0-4.7,2.9-7.4,7.2-7.4
	c2.1,0,4.2,0.4,4.2,0.4v4.7h-2.4c-2.4,0-3.1,1.4-3.1,3v3.6h5.2l-0.8,5.4H23v13.2c9-1.4,16-9.2,16-18.8C39,9.5,30.5,1,20,1z"/>
</svg>
