<?xml version="1.0" encoding="utf-8"?>
<!-- Generator: Adobe Illustrator 26.2.1, SVG Export Plug-In . SVG Version: 6.00 Build 0)  -->
<svg version="1.1" id="Capa_1" xmlns="http://www.w3.org/2000/svg" xmlns:xlink="http://www.w3.org/1999/xlink" x="0px" y="0px"
	 width="40px" height="40px" viewBox="0 0 40 40" style="enable-background:new 0 0 40 40;" xml:space="preserve">
<style type="text/css">
	.st0{fill:#FFFFFF;}
</style>
<g>
	<path class="st0" d="M20,0.5C9.5,0.5,1,9,1,19.5s8.5,19,19,19s19-8.5,19-19S30.5,0.5,20,0.5z M31.6,25.4c-0.3,1-1.1,1.8-2.2,2.2
		c-3,0.7-16.2,0.6-19,0c-1-0.3-1.8-1.1-2.2-2.2c-0.6-2.9-0.6-8.9,0-11.7c0.3-1,1.1-1.8,2.2-2.2c3.9-0.8,17.6-0.5,19,0
		c1,0.3,1.8,1.1,2.2,2.2C32.3,16.6,32.3,22.3,31.6,25.4z"/>
	<path class="st0" d="M24,19.5l-6.4-3.6v7.3L24,19.5z"/>
</g>
</svg>
