<?xml version="1.0" encoding="utf-8"?>
<!-- Generator: Adobe Illustrator 26.2.1, SVG Export Plug-In . SVG Version: 6.00 Build 0)  -->
<svg version="1.1" id="Capa_1" xmlns="http://www.w3.org/2000/svg" xmlns:xlink="http://www.w3.org/1999/xlink" x="0px" y="0px"
	 width="40px" height="40px" viewBox="0 0 40 40" style="enable-background:new 0 0 40 40;" xml:space="preserve">
<style type="text/css">
	.st0{fill:#FFFFFF;}
</style>
<g>
	<path class="st0" d="M20.1,16.5c-2,0-3.5,1.5-3.5,3.5s1.5,3.5,3.5,3.5s3.5-1.5,3.5-3.5S22.1,16.5,20.1,16.5z"/>
	<path class="st0" d="M24.4,11h-8.9c-2.6,0-4.6,2.1-4.6,4.6v8.9c0,2.6,2.1,4.6,4.6,4.6h8.9c2.6,0,4.6-2.1,4.6-4.6v-8.9
		C29,13,27,11,24.4,11z M20.1,25.4c-3,0-5.4-2.5-5.4-5.4s2.5-5.4,5.4-5.4s5.4,2.5,5.4,5.4C25.5,23,23.1,25.4,20.1,25.4z M25.9,15.4
		c-0.7,0-1.3-0.6-1.3-1.3s0.6-1.3,1.3-1.3c0.7,0,1.3,0.6,1.3,1.3C27.2,14.9,26.6,15.4,25.9,15.4z"/>
	<path class="st0" d="M20,1C9.5,1,1,9.5,1,20s8.5,19,19,19s19-8.5,19-19S30.5,1,20,1z M31.1,24.4c0,3.7-3,6.7-6.7,6.7h-8.9
		c-3.7,0-6.7-3-6.7-6.7v-8.9c0-3.7,3-6.7,6.7-6.7h8.9c3.7,0,6.7,3,6.7,6.7V24.4z"/>
</g>
</svg>
