<?xml version="1.0" encoding="utf-8"?>
<!-- Generator: Adobe Illustrator 26.2.1, SVG Export Plug-In . SVG Version: 6.00 Build 0)  -->
<svg version="1.1" id="Capa_1" xmlns="http://www.w3.org/2000/svg" xmlns:xlink="http://www.w3.org/1999/xlink" x="0px" y="0px"
	 width="40px" height="40px" viewBox="0 0 40 40" enable-background="new 0 0 40 40" xml:space="preserve">
<g>
	<path fill="#D8A400" d="M22.031,17.683v-0.045c-0.009,0.015-0.022,0.03-0.03,0.045H22.031z"/>
	<path fill="#D8A400" d="M20,1C9.507,1,1,9.507,1,20s8.507,19,19,19c10.493,0,19-8.507,19-19S30.493,1,20,1z M14.978,29.362h-4.54
		V15.703h4.54V29.362z M12.708,13.839h-0.029c-1.523,0-2.51-1.049-2.51-2.361c0-1.34,1.016-2.36,2.57-2.36
		c1.554,0,2.509,1.02,2.539,2.36C15.277,12.79,14.292,13.839,12.708,13.839z M31.352,29.362h-4.542v-7.308
		c0-1.835-0.656-3.088-2.3-3.088c-1.255,0-2,0.844-2.33,1.661c-0.12,0.292-0.15,0.697-0.15,1.107v7.629h-4.542
		c0,0,0.061-12.378,0-13.659h4.542v1.936c0.604-0.929,1.68-2.256,4.093-2.256c2.988,0,5.228,1.952,5.228,6.147V29.362z"/>
</g>
</svg>
