<?xml version="1.0" encoding="utf-8"?>
<!-- Generator: Adobe Illustrator 26.2.1, SVG Export Plug-In . SVG Version: 6.00 Build 0)  -->
<svg version="1.1" id="Capa_1" xmlns="http://www.w3.org/2000/svg" xmlns:xlink="http://www.w3.org/1999/xlink" x="0px" y="0px"
	 width="40px" height="40px" viewBox="0 0 40 40" style="enable-background:new 0 0 40 40;" xml:space="preserve">
<style type="text/css">
	.st0{fill:#FFFFFF;}
</style>
<g>
	<g>
		<path class="st0" d="M20,1C9.5,1,1,9.5,1,20s8.5,19,19,19s19-8.5,19-19S30.5,1,20,1z M4,25.2c0,0.1-0.1,0.1-0.1,0.1
			c-0.1,0-0.1-0.1-0.1-0.1l-0.2-1.8l0.2-1.8c0-0.1,0.1-0.1,0.1-0.1c0.1,0,0.1,0.1,0.1,0.1l0.3,1.8L4,25.2z M5.2,26.3
			c0,0.1-0.1,0.1-0.1,0.1C5,26.4,5,26.3,5,26.3l-0.3-2.9l0.3-3c0-0.1,0.1-0.1,0.1-0.1s0.1,0.1,0.1,0.1l0.4,3L5.2,26.3z M6.6,26.8
			c0,0.1-0.1,0.2-0.2,0.2c-0.1,0-0.2-0.1-0.2-0.2l-0.3-3.4l0.3-3.5c0-0.1,0.1-0.2,0.2-0.2c0.1,0,0.2,0.1,0.2,0.2l0.3,3.5L6.6,26.8z
			 M7.9,26.9c0,0.1-0.1,0.2-0.2,0.2c-0.1,0-0.2-0.1-0.2-0.2l-0.3-3.5l0.3-3.6c0-0.1,0.1-0.2,0.2-0.2c0.1,0,0.2,0.1,0.2,0.2l0.3,3.6
			L7.9,26.9z M9.2,26.9c0,0.1-0.1,0.2-0.2,0.2c-0.1,0-0.2-0.1-0.2-0.2l-0.3-3.5L8.8,20c0-0.1,0.1-0.2,0.2-0.2s0.2,0.1,0.2,0.2
			l0.3,3.4L9.2,26.9z M10.6,26.9L10.6,26.9c0,0.1-0.1,0.2-0.2,0.2s-0.2-0.1-0.3-0.2l-0.3-3.5l0.3-5.5c0-0.1,0.1-0.2,0.3-0.2
			c0.1,0,0.2,0.1,0.2,0.2l0.3,5.5L10.6,26.9z M11.9,26.9L11.9,26.9c0,0.2-0.1,0.3-0.3,0.3c-0.1,0-0.3-0.1-0.3-0.3l-0.2-3.5l0.2-6.7
			c0-0.2,0.1-0.3,0.3-0.3c0.1,0,0.3,0.1,0.3,0.3l0.3,6.7L11.9,26.9z M13.3,26.8L13.3,26.8c0,0.2-0.1,0.3-0.3,0.3
			c-0.2,0-0.3-0.1-0.3-0.3l-0.2-3.5c0,0,0.2-7.3,0.2-7.3c0-0.2,0.1-0.3,0.3-0.3c0.2,0,0.3,0.1,0.3,0.3l0.3,7.3L13.3,26.8z
			 M14.7,26.8c0,0.2-0.2,0.3-0.3,0.3s-0.3-0.1-0.3-0.3l-0.2-3.4l0.2-7.5c0-0.2,0.2-0.3,0.3-0.3s0.3,0.1,0.3,0.3l0.2,7.5L14.7,26.8z
			 M16.1,26.8L16.1,26.8c0,0.2-0.2,0.4-0.4,0.4s-0.4-0.2-0.4-0.4l-0.2-3.4l0.2-7.3c0-0.2,0.2-0.4,0.4-0.4c0.2,0,0.4,0.2,0.4,0.4
			l0.2,7.3L16.1,26.8z M17.5,26.8L17.5,26.8c0,0.2-0.2,0.4-0.4,0.4c-0.2,0-0.4-0.2-0.4-0.4l-0.2-3.4l0.2-7c0-0.2,0.2-0.4,0.4-0.4
			s0.4,0.2,0.4,0.4l0.2,7L17.5,26.8z M19,26.4l0,0.3c0,0.1,0,0.2-0.1,0.3c-0.1,0.1-0.2,0.1-0.3,0.1c-0.1,0-0.2-0.1-0.3-0.2
			c-0.1-0.1-0.1-0.2-0.1-0.2c0,0,0,0,0,0c0,0-0.2-3.4-0.2-3.4l0.2-8.3V15c0-0.1,0.1-0.3,0.2-0.3c0.1,0,0.1-0.1,0.2-0.1
			c0.1,0,0.2,0,0.2,0.1c0.1,0.1,0.2,0.2,0.2,0.3l0.2,8.4L19,26.4z M20.4,26.7L20.4,26.7L20.4,26.7c0,0.2-0.2,0.4-0.4,0.4
			c-0.2,0-0.4-0.2-0.4-0.4l-0.1-1.6l-0.1-1.7l0.2-9.1v0c0-0.1,0.1-0.3,0.2-0.3c0.1-0.1,0.2-0.1,0.3-0.1c0.1,0,0.2,0,0.2,0.1
			c0.1,0.1,0.2,0.2,0.2,0.4l0.2,9.1L20.4,26.7z M32.4,27.1c0,0-11.2,0-11.2,0c-0.2,0-0.4-0.2-0.4-0.5V13.8c0-0.2,0.1-0.4,0.4-0.5
			c0.8-0.3,1.7-0.5,2.6-0.5c3.7,0,6.8,2.9,7.1,6.5c0.5-0.2,1-0.3,1.6-0.3c2.2,0,4.1,1.8,4.1,4.1S34.7,27.1,32.4,27.1z"/>
	</g>
</g>
</svg>
