<?xml version="1.0" encoding="utf-8"?>
<!-- Generator: Adobe Illustrator 26.2.1, SVG Export Plug-In . SVG Version: 6.00 Build 0)  -->
<svg version="1.1" id="Capa_1" xmlns="http://www.w3.org/2000/svg" xmlns:xlink="http://www.w3.org/1999/xlink" x="0px" y="0px"
	 width="40px" height="40px" viewBox="0 0 40 40" style="enable-background:new 0 0 40 40;" xml:space="preserve">
<style type="text/css">
	.st0{fill:#D8A400;}
</style>
<g>
	<path class="st0" d="M20,1C9.5,1,1,9.5,1,20s8.5,19,19,19s19-8.5,19-19S30.5,1,20,1z M31.6,25.8c-0.3,1-1.1,1.9-2.1,2.1
		c-3,0.7-16.2,0.6-19,0c-1-0.3-1.9-1.1-2.1-2.1C7.7,23,7.7,17,8.3,14.2c0.3-1,1.1-1.9,2.1-2.1c4-0.8,17.6-0.6,19,0
		c1,0.3,1.9,1.1,2.1,2.1C32.4,17.1,32.3,22.8,31.6,25.8z"/>
	<path class="st0" d="M24,20l-6.3-3.6v7.3L24,20z"/>
</g>
</svg>
