<?xml version="1.0" encoding="utf-8"?>
<!-- Generator: Adobe Illustrator 16.0.0, SVG Export Plug-In . SVG Version: 6.00 Build 0)  -->
<!DOCTYPE svg PUBLIC "-//W3C//DTD SVG 1.1//EN" "http://www.w3.org/Graphics/SVG/1.1/DTD/svg11.dtd">
<svg version="1.1" id="Capa_1" xmlns="http://www.w3.org/2000/svg" xmlns:xlink="http://www.w3.org/1999/xlink" x="0px" y="0px"
	 width="242px" height="67.5px" viewBox="0 0 242 67.5" enable-background="new 0 0 242 67.5" xml:space="preserve">
<g>
	<defs>
		<rect id="SVGID_1_" width="242" height="67.5"/>
	</defs>
	<clipPath id="SVGID_2_">
		<use xlink:href="#SVGID_1_"  overflow="visible"/>
	</clipPath>
	<path clip-path="url(#SVGID_2_)" fill="#494941" d="M178.071,16.446c0,8.529-6.915,15.446-15.442,15.446
		c-8.524,0-15.437-6.917-15.437-15.446C147.192,7.921,154.104,1,162.629,1C171.156,1,178.071,7.921,178.071,16.446"/>
	<path clip-path="url(#SVGID_2_)" fill="#D8A400" d="M166.627,12.45c-2.209-2.218-5.784-2.218-8.001,0
		c-2.203,2.205-2.203,5.792,0,8.001c2.217,2.203,5.792,2.203,8.001-0.005C168.836,18.242,168.836,14.655,166.627,12.45"/>
	<path clip-path="url(#SVGID_2_)" fill="#D8A400" d="M72.692,36.659h-11.97v28.312h11.804c10.327,0,17.262-5.665,17.262-14.218
		C89.788,42.257,83.073,36.659,72.692,36.659 M72.813,56.736h-2.348V45.482h2.348c4.399,0,7.019,2.171,7.019,5.88
		C79.832,54.998,77.212,56.736,72.813,56.736"/>
	<path clip-path="url(#SVGID_2_)" fill="#D8A400" d="M101.505,56.997v-2.423h10.953c2.073,0,2.824-1.431,2.824-3.039v-4.513h-13.777
		v-2.283h12.358c1.6-0.092,3.041-1.367,3.06-2.986V36.66H91.847v28.312h22.013c1.737,0,3.063-1.322,3.063-3.01v-4.965H101.505z"/>
	<path clip-path="url(#SVGID_2_)" fill="#D8A400" d="M14.195,36.659H1v28.312h6.674c1.637,0,2.954-1.277,3.045-2.887v-4.627h3.072
		c8.163,0,13.237-3.99,13.237-10.493C27.028,40.68,22.115,36.659,14.195,36.659 M13.627,49.933H10.74V44.72h2.844
		c1.685,0,3.699,0.449,3.699,2.66C17.283,48.982,15.92,49.933,13.627,49.933"/>
	<path clip-path="url(#SVGID_2_)" fill="#D8A400" d="M227.23,36.66h-7.004l-0.016,0.017c-1.124,0.055-2.078,0.824-2.562,1.775
		l-0.008,0.006c-0.048,0.1-12.27,26.537-12.27,26.537h10.345l2.057-4.51h9.905l1.367,3.036c0.663,1.154,1.548,1.474,2.745,1.474
		h8.484L227.23,36.66z M220.88,52.997l1.877-6.339l1.855,6.339H220.88z"/>
	<path clip-path="url(#SVGID_2_)" fill="#D8A400" d="M194.345,46.686c-4.176-0.876-4.512-1.339-4.512-1.886
		c0-3.554,11.733,1.387,11.733,1.387l3.884-5.53c0,0-4.984-5.067-13.306-5.067c-7.617,0-12.732,3.987-12.732,10.016
		c0,6.623,5.788,8.175,12.23,9.534c3.876,0.824,4.394,1.104,4.394,2.055c0,0.722-1.312,0.953-2.535,0.979
		c-6.275,0.164-10.008-3.689-10.008-3.689l-5.94,6.535c0,0,4.894,5.506,15.643,5.506c8.055,0,13.256-3.962,13.256-10.168
		C206.451,49.984,200.637,47.945,194.345,46.686"/>
	<path clip-path="url(#SVGID_2_)" fill="#D8A400" d="M59.044,51.115c0,8.527-6.911,15.445-15.43,15.445
		c-8.53,0-15.444-6.918-15.444-15.445c0-8.532,6.914-15.45,15.444-15.45C52.133,35.665,59.044,42.583,59.044,51.115 M47.606,47.115
		c-2.211-2.212-5.79-2.212-7.995,0c-2.212,2.205-2.212,5.796,0,8.004c2.205,2.197,5.784,2.197,7.995-0.003
		C49.809,52.911,49.818,49.32,47.606,47.115"/>
	<path clip-path="url(#SVGID_2_)" fill="#D8A400" d="M178.05,51.115c0,8.527-6.915,15.445-15.438,15.445s-15.44-6.918-15.44-15.445
		c0-8.532,6.917-15.45,15.44-15.45S178.05,42.583,178.05,51.115 M166.612,47.115c-2.211-2.212-5.796-2.212-8.002,0
		c-2.209,2.205-2.209,5.796,0,8.004c2.206,2.197,5.791,2.197,8.002-0.003C168.817,52.911,168.817,49.32,166.612,47.115"/>
	<path clip-path="url(#SVGID_2_)" fill="#D8A400" d="M118.847,64.974h9.85v-7.967h2.141l4.849,6.73h0.03
		c0.559,0.774,1.47,1.236,2.489,1.236h9.828l-7.242-9.706c3.504-1.728,5.419-4.716,5.419-8.567c0-2.831-0.957-5.136-2.825-6.815
		c-2.192-2.066-5.66-3.225-10.075-3.225h-14.463V64.974z M135.218,47.345c0,1.599-1.369,2.553-3.664,2.553h-2.882v-5.212h2.842
		C133.198,44.686,135.218,45.129,135.218,47.345"/>
</g>
</svg>
