<?xml version="1.0" encoding="utf-8"?>
<!-- Generator: Adobe Illustrator 19.0.0, SVG Export Plug-In . SVG Version: 6.00 Build 0)  -->
<svg version="1.1" id="Capa_1" xmlns="http://www.w3.org/2000/svg" xmlns:xlink="http://www.w3.org/1999/xlink" x="0px" y="0px"
	 viewBox="-242 365.9 110.9 111" style="enable-background:new -242 365.9 110.9 111;" xml:space="preserve">
<style type="text/css">
	.st0{fill:#FFFFFF;}
</style>
<g>
	<path class="st0" d="M-212.7,395.3c-9.4,9.4-9.4,24.5,0,33.9c9.4,9.4,24.5,9.4,33.9,0c9.4-9.4,9.4-24.5,0-33.9
		C-188.1,386-203.3,386-212.7,395.3z M-181.6,426.4c-7.8,7.8-20.5,7.8-28.3,0c-7.8-7.8-7.8-20.5,0-28.3c7.8-7.8,20.5-7.8,28.3,0
		C-173.7,405.9-173.7,418.6-181.6,426.4z"/>
	
		<rect x="-171.4" y="429.1" transform="matrix(-0.707 0.7072 -0.7072 -0.707 25.2271 870.1658)" class="st0" width="7.6" height="22.4"/>
	<path class="st0" d="M-186.5,476.9c-14.8,0-28.8-5.8-39.2-16.3c-21.6-21.6-21.6-56.9,0-78.5c10.5-10.5,24.4-16.3,39.2-16.3
		c14.8,0,28.8,5.8,39.2,16.3c21.6,21.6,21.6,56.9,0,78.5C-157.8,471.1-171.7,476.9-186.5,476.9z M-186.5,369.8
		c-13.8,0-26.7,5.4-36.5,15.1c-20.1,20.1-20.1,52.9,0,73c9.7,9.7,22.7,15.1,36.5,15.1c13.8,0,26.7-5.4,36.5-15.1
		c20.1-20.1,20.1-52.9,0-73C-159.8,375.2-172.7,369.8-186.5,369.8z"/>
</g>
</svg>
