<?xml version="1.0" encoding="utf-8"?>
<!-- Generator: Adobe Illustrator 27.9.0, SVG Export Plug-In . SVG Version: 6.00 Build 0)  -->
<svg version="1.1" xmlns="http://www.w3.org/2000/svg" xmlns:xlink="http://www.w3.org/1999/xlink" x="0px" y="0px" width="450px"
	 height="450px" viewBox="0 0 450 450" enable-background="new 0 0 450 450" xml:space="preserve">
<g id="Capa_4">
</g>
<g id="Capa_1">
	<g>
		<g>
			<g>
				<path fill="#D8A400" d="M349.744,192.573l-8.604-52.018L383.692,98l8.605,52.018L349.744,192.573z M347.562,142.618
					l6.196,37.455l32.118-32.117l-6.197-37.455L347.562,142.618z"/>
				<path fill="#D8A400" d="M397.519,196.934l-52.018-8.604l42.555-42.554l52.018,8.605L397.519,196.934z M358.001,184.316
					l37.455,6.196l32.117-32.117l-37.455-6.197L358.001,184.316z"/>
				<path fill="#FFFFFF" d="M241.063,300.01c-0.768,0-1.535-0.293-2.121-0.879c-1.172-1.171-1.172-3.071,0-4.242l158.736-158.736
					c1.172-1.172,3.07-1.172,4.242,0c1.172,1.171,1.172,3.071,0,4.242L243.185,299.131
					C242.599,299.717,241.831,300.01,241.063,300.01z"/>
			</g>
			<path fill="#D8A400" d="M338.648,214.416c18.905,22.302,30.326,51.137,30.326,82.594c0,70.531-57.381,127.912-127.911,127.912
				c-70.531,0-127.912-57.381-127.912-127.912c0-70.53,57.381-127.911,127.912-127.911c31.817,0,60.956,11.68,83.36,30.974
				l4.255-4.255c-23.501-20.375-54.143-32.719-87.615-32.719c-73.84,0-133.912,60.072-133.912,133.911
				c0,73.84,60.072,133.912,133.912,133.912c73.839,0,133.911-60.072,133.911-133.912c0-33.112-12.086-63.45-32.071-86.85
				L338.648,214.416z"/>
			<path fill="#FFFFFF" d="M317.184,235.88c13.476,16.747,21.555,38.011,21.555,61.13c0,53.859-43.817,97.677-97.676,97.677
				c-53.859,0-97.677-43.817-97.677-97.677c0-53.858,43.817-97.676,97.677-97.676c23.479,0,45.049,8.329,61.913,22.186l4.259-4.259
				c-17.967-14.934-41.038-23.927-66.173-23.927c-57.168,0-103.677,46.509-103.677,103.676c0,57.168,46.509,103.677,103.677,103.677
				c57.167,0,103.676-46.509,103.676-103.677c0-24.774-8.739-47.542-23.29-65.395L317.184,235.88z"/>
			<path fill="#D8A400" d="M296.161,256.903c8.222,11.264,13.091,25.125,13.091,40.107c0,37.6-30.589,68.189-68.188,68.189
				s-68.189-30.59-68.189-68.189s30.59-68.188,68.189-68.188c15.345,0,29.52,5.098,40.927,13.685l4.27-4.27
				c-12.525-9.654-28.196-15.416-45.196-15.416c-40.908,0-74.189,33.281-74.189,74.188c0,40.908,33.281,74.189,74.189,74.189
				c40.907,0,74.188-33.281,74.188-74.189c0-16.639-5.507-32.016-14.793-44.405L296.161,256.903z"/>
			<path fill="#FFFFFF" d="M273.646,279.418c2.989,5.362,4.7,11.53,4.7,18.092c0,20.558-16.725,37.282-37.282,37.282
				s-37.282-16.725-37.282-37.282s16.725-37.282,37.282-37.282c6.671,0,12.932,1.77,18.355,4.851l4.379-4.379
				c-6.612-4.098-14.399-6.472-22.734-6.472c-23.866,0-43.282,19.416-43.282,43.282s19.416,43.282,43.282,43.282
				s43.282-19.416,43.282-43.282c0-8.227-2.309-15.925-6.31-22.481L273.646,279.418z"/>
		</g>
		<g>
			<polygon fill="#FFFFFF" points="80.473,308.422 9.927,308.422 9.927,35.004 73.255,35.004 73.255,41.004 15.927,41.004 
				15.927,302.422 80.473,302.422 			"/>
			<polygon fill="#FFFFFF" points="213.369,145.287 207.369,145.287 207.369,41.004 150.04,41.004 150.04,35.004 213.369,35.004 			
				"/>
			<path fill="#FFFFFF" d="M73.533,126.807H31.117V84.391h42.416V126.807z M37.117,120.807h30.416V90.391H37.117V120.807z"/>
			<path fill="#FFFFFF" d="M73.533,196.005H31.117v-42.416h42.416V196.005z M37.117,190.005h30.416v-30.416H37.117V190.005z"/>
			<path fill="#FFFFFF" d="M73.533,265.204H31.117v-42.416h42.416V265.204z M37.117,259.204h30.416v-30.416H37.117V259.204z"/>
			<polygon fill="#D8A400" points="51.908,115.862 40.152,100.195 44.951,96.593 52.719,106.946 86.864,75.408 90.935,79.816 			"/>
			<polygon fill="#D8A400" points="51.908,185.432 40.152,169.766 44.951,166.165 52.719,176.516 86.864,144.979 90.935,149.387 			
				"/>
			<path fill="#D8A400" d="M153.04,54.333H70.255V19.078h82.785V54.333z M76.255,48.333h70.785V25.078H76.255V48.333z"/>
			<rect x="100.578" y="101.25" fill="#FFFFFF" width="69.225" height="6"/>
			<rect x="100.578" y="120.807" fill="#FFFFFF" width="69.225" height="6"/>
			<rect x="100.578" y="168.197" fill="#FFFFFF" width="56.691" height="6"/>
			<rect x="100.578" y="187.752" fill="#FFFFFF" width="34.612" height="6"/>
		</g>
	</g>
</g>
<g id="Guias" display="none">
</g>
<g id="bootstrap">
</g>
</svg>
