<?xml version="1.0" encoding="utf-8"?>
<!-- Generator: Adobe Illustrator 19.0.0, SVG Export Plug-In . SVG Version: 6.00 Build 0)  -->
<svg version="1.1" id="Capa_1" xmlns="http://www.w3.org/2000/svg" xmlns:xlink="http://www.w3.org/1999/xlink" x="0px" y="0px"
	 viewBox="-443 247.4 72.5 67.6" style="enable-background:new -443 247.4 72.5 67.6;" xml:space="preserve">
<style type="text/css">
	.st0{fill:#BC9D56;}
</style>
<g id="Capa_1_1_">
	<g>
		<path class="st0" d="M-373.4,312.1h-31.9c0-0.1-0.1-0.2,0-0.5l3.6-15.5c0.2-0.7,0.8-1.2,1-1.2h9.9h12.7c0.3,0,0.8,0.5,1,1.2
			l3.6,15.5C-373.3,311.9-373.3,312.1-373.4,312.1 M-408.2,312.1h-31.9c0-0.1-0.1-0.2,0-0.5l3.6-15.5c0.2-0.7,0.8-1.2,1-1.2h12.7
			h9.9c0.3,0,0.8,0.5,1,1.2l3.6,15.5C-408.1,311.9-408.2,312.1-408.2,312.1 M-406.7,305.4l-2.3-9.9c0-0.2-0.1-0.3-0.2-0.5h4.9
			c-0.1,0.2-0.1,0.3-0.1,0.5L-406.7,305.4z M-422.7,291.6l3.6-15.6c0.2-0.7,0.8-1.1,1-1.1h22.7c0.3,0,0.8,0.5,1,1.1l3.6,15.6
			c0.1,0.3,0,0.4,0,0.5h-31.9C-422.7,292-422.8,291.9-422.7,291.6 M-370.6,311l-3.6-15.6c-0.4-1.9-2.1-3.3-3.8-3.3h-9.9
			c0-0.4,0-0.8-0.1-1.2l-3.6-15.5c-0.4-1.9-2.1-3.4-3.8-3.4h-22.7c-1.7,0-3.3,1.5-3.8,3.4l-3.6,15.5c-0.1,0.4-0.1,0.8-0.1,1.2h-9.9
			c-1.7,0-3.3,1.5-3.8,3.3l-3.6,15.6c-0.3,1.1,0,2.2,0.6,3c0.5,0.7,1.3,1,2.2,1h32c0.5,0,1-0.1,1.4-0.4c0.4,0.3,0.9,0.4,1.4,0.4h32
			c0.9,0,1.6-0.4,2.2-1C-370.5,313.2-370.3,312.1-370.6,311"/>
		<path class="st0" d="M-431.3,277.9c-0.2,0-0.3,0-0.5-0.1l-10-3.8c-0.7-0.3-1.1-1.1-0.8-1.8c0.3-0.7,1.1-1.1,1.8-0.8l10,3.8
			c0.7,0.3,1.1,1.1,0.8,1.8C-430.2,277.5-430.7,277.9-431.3,277.9"/>
		<path class="st0" d="M-421.2,265.2c-0.5,0-0.9-0.2-1.2-0.6l-5.9-9c-0.4-0.7-0.3-1.5,0.4-2c0.7-0.4,1.5-0.3,2,0.4l5.9,9
			c0.4,0.7,0.3,1.5-0.4,2C-420.7,265.1-421,265.2-421.2,265.2"/>
		<path class="st0" d="M-406.7,260.9c-0.8,0-1.4-0.6-1.4-1.4v-10.7c0-0.8,0.6-1.4,1.4-1.4c0.8,0,1.4,0.6,1.4,1.4v10.7
			C-405.3,260.3-406,260.9-406.7,260.9"/>
		<path class="st0" d="M-392.3,265.2c-0.3,0-0.5-0.1-0.8-0.2c-0.7-0.4-0.8-1.3-0.4-2l5.9-9c0.4-0.7,1.3-0.8,2-0.4
			c0.7,0.4,0.8,1.3,0.4,2l-5.9,9C-391.3,264.9-391.8,265.2-392.3,265.2"/>
		<path class="st0" d="M-382.2,277.9c-0.6,0-1.1-0.4-1.3-0.9c-0.3-0.7,0.1-1.6,0.8-1.8l10-3.8c0.7-0.3,1.6,0.1,1.8,0.8
			c0.3,0.7-0.1,1.6-0.8,1.8l-10,3.8C-381.9,277.8-382,277.9-382.2,277.9"/>
	</g>
</g>
</svg>
