<?xml version="1.0" encoding="utf-8"?>
<!-- Generator: Adobe Illustrator 19.0.0, SVG Export Plug-In . SVG Version: 6.00 Build 0)  -->
<svg version="1.1" id="Capa_1" xmlns="http://www.w3.org/2000/svg" xmlns:xlink="http://www.w3.org/1999/xlink" x="0px" y="0px"
	 viewBox="0 0 75 75" style="enable-background:new 0 0 75 75;" xml:space="preserve">
<style type="text/css">
	.st0{fill:#FFFFFF;}
</style>
<path id="XMLID_2_" class="st0" d="M48.1,55.8c-4.3,0-7.9-3.5-7.9-7.9s3.5-7.9,7.9-7.9s7.9,3.5,7.9,7.9S52.4,55.8,48.1,55.8
	 M60.2,32.7h-5v-5.1c0-0.4-0.4-0.8-0.8-0.8h-5.6c-0.4,0-0.8,0.4-0.8,0.8c0,0.4,0.4,0.8,0.8,0.8h4.9v4.4h-5.9c-0.4,0-0.8,0.4-0.8,0.8
	c0,0.4,0.4,0.8,0.8,0.8h11.7v12.9h-1.9c-0.4-4.8-4.5-8.6-9.4-8.6c-4.9,0-9,3.8-9.4,8.6H36c-0.4,0-0.8,0.4-0.8,0.8
	c0,0.4,0.4,0.8,0.8,0.8h2.7c0.4,4.8,4.5,8.6,9.4,8.6c4.9,0,9-3.8,9.4-8.6h2.7c0.4,0,0.8-0.4,0.8-0.8V33.5C61,33,60.6,32.7,60.2,32.7
	 M34.8,38.5l-18.9-9.3l2.6-4.3h19.7c0.2,0,0.4-0.1,0.6-0.3l4.7-5.4h10.2v2.4h-8c-0.3,0-0.6,0.2-0.7,0.5l-5.3,13.6
	c-0.6,1.6-1.4,2.6-2.4,2.9C36,39.1,34.8,38.5,34.8,38.5C34.8,38.5,34.8,38.5,34.8,38.5 M37.7,40.2c1.5-0.5,2.6-1.8,3.4-3.8l5.1-13.1
	h8.3c0.4,0,0.8-0.4,0.8-0.8v-4c0-0.4-0.4-0.8-0.8-0.8H43.1c-0.2,0-0.4,0.1-0.6,0.3l-4.7,5.4H18c-0.3,0-0.5,0.1-0.7,0.4l-3.2,5.5
	c-0.1,0.2-0.1,0.4-0.1,0.6c0.1,0.2,0.2,0.4,0.4,0.5l19.6,9.6c0.2,0.1,1.1,0.5,2.2,0.5C36.7,40.4,37.2,40.4,37.7,40.2 M48.1,50.2
	c-1.2,0-2.3-1-2.3-2.3c0-1.2,1-2.3,2.3-2.3c1.2,0,2.3,1,2.3,2.3C50.4,49.2,49.4,50.2,48.1,50.2 M48.1,44.1c-2.1,0-3.8,1.7-3.8,3.8
	c0,2.1,1.7,3.8,3.8,3.8c2.1,0,3.8-1.7,3.8-3.8C51.9,45.8,50.2,44.1,48.1,44.1 M36.6,28.5c0-0.4-0.4-0.8-0.8-0.8H25
	c-0.4,0-0.8,0.4-0.8,0.8c0,0.4,0.4,0.8,0.8,0.8h10.8C36.3,29.3,36.6,29,36.6,28.5 M23.4,55.7c-4.3,0-7.9-3.5-7.9-7.9
	s3.5-7.9,7.9-7.9c4.3,0,7.9,3.5,7.9,7.9S27.8,55.7,23.4,55.7 M23.4,38.4c-5.2,0-9.4,4.2-9.4,9.4s4.2,9.4,9.4,9.4
	c5.2,0,9.4-4.2,9.4-9.4S28.6,38.4,23.4,38.4 M23.4,50.1c-1.2,0-2.3-1-2.3-2.3c0-1.2,1-2.3,2.3-2.3c1.2,0,2.3,1,2.3,2.3
	C25.7,49.1,24.7,50.1,23.4,50.1 M23.4,44c-2.1,0-3.8,1.7-3.8,3.8c0,2.1,1.7,3.8,3.8,3.8c2.1,0,3.8-1.7,3.8-3.8
	C27.3,45.7,25.5,44,23.4,44"/>
</svg>
