<?xml version="1.0" encoding="utf-8"?>
<!-- Generator: Adobe Illustrator 19.0.0, SVG Export Plug-In . SVG Version: 6.00 Build 0)  -->
<svg version="1.1" id="Capa_1" xmlns="http://www.w3.org/2000/svg" xmlns:xlink="http://www.w3.org/1999/xlink" x="0px" y="0px"
	 viewBox="-442 243 75 75" style="enable-background:new -442 243 75 75;" xml:space="preserve">
<style type="text/css">
	.st0{fill:#FFFFFF;}
</style>
<path class="st0" d="M-406.3,298.6h-14.1c-1.7,0-3.2-1.4-3.2-3.2v-31.8c0-1.7,1.4-3.2,3.2-3.2h24.3c1.7,0,3.2,1.4,3.2,3.2v23.3
	c0,0.5-0.4,0.9-0.9,0.9s-0.9-0.4-0.9-0.9v-23.3c0-0.8-0.6-1.4-1.4-1.4h-24.3c-0.8,0-1.4,0.6-1.4,1.4v31.8c0,0.8,0.6,1.4,1.4,1.4
	h14.1c0.5,0,0.9,0.4,0.9,0.9S-405.8,298.6-406.3,298.6 M-417.2,266.8h5.5v7.5h-5.5V266.8z M-410.9,276c0.5,0,0.9-0.4,0.9-0.9v-9.2
	c0-0.5-0.4-0.9-0.9-0.9h-7.2c-0.5,0-0.9,0.4-0.9,0.9v9.2c0,0.5,0.4,0.9,0.9,0.9H-410.9 M-389.7,298.3c0.2,0,0.4-0.1,0.6-0.3l3.4-3.4
	c0.3-0.3,0.3-0.9,0-1.2l-3.4-3.4c-0.3-0.3-0.9-0.3-1.2,0c-0.3,0.3-0.3,0.9,0,1.2l2.8,2.8l-2.8,2.8c-0.3,0.3-0.3,0.9,0,1.2
	C-390.1,298.3-389.9,298.3-389.7,298.3 M-396.1,298.3c0.2,0,0.4-0.1,0.6-0.3l3.4-3.4c0.3-0.3,0.3-0.9,0-1.2l-3.4-3.4
	c-0.3-0.3-0.9-0.3-1.2,0c-0.3,0.3-0.3,0.9,0,1.2l2.8,2.8l-2.8,2.8c-0.3,0.3-0.3,0.9,0,1.2C-396.5,298.3-396.3,298.3-396.1,298.3
	 M-402.5,298.3c0.2,0,0.4-0.1,0.6-0.3l3.4-3.4c0.2-0.2,0.3-0.4,0.3-0.6s-0.1-0.4-0.3-0.6l-3.4-3.4c-0.3-0.3-0.9-0.3-1.2,0
	c-0.3,0.3-0.3,0.9,0,1.2l2.8,2.8l-2.8,2.8c-0.3,0.3-0.3,0.9,0,1.2C-402.9,298.3-402.7,298.3-402.5,298.3 M-398.4,266.8
	c0.5,0,0.9-0.4,0.9-0.9s-0.4-0.9-0.9-0.9h-7.9c-0.5,0-0.9,0.4-0.9,0.9s0.4,0.9,0.9,0.9H-398.4 M-398.4,271.4c0.5,0,0.9-0.4,0.9-0.9
	s-0.4-0.9-0.9-0.9h-7.9c-0.5,0-0.9,0.4-0.9,0.9s0.4,0.9,0.9,0.9H-398.4 M-398.4,276c0.5,0,0.9-0.4,0.9-0.9s-0.4-0.9-0.9-0.9h-7.9
	c-0.5,0-0.9,0.4-0.9,0.9s0.4,0.9,0.9,0.9H-398.4 M-398.4,280.6c0.5,0,0.9-0.4,0.9-0.9s-0.4-0.9-0.9-0.9h-19.7
	c-0.5,0-0.9,0.4-0.9,0.9s0.4,0.9,0.9,0.9H-398.4 M-410.9,285.1c0.5,0,0.9-0.4,0.9-0.9s-0.4-0.9-0.9-0.9h-7.2c-0.5,0-0.9,0.4-0.9,0.9
	s0.4,0.9,0.9,0.9H-410.9"/>
</svg>
