<?xml version="1.0" encoding="utf-8"?>
<!-- Generator: Adobe Illustrator 19.0.0, SVG Export Plug-In . SVG Version: 6.00 Build 0)  -->
<svg version="1.1" id="Capa_1" xmlns="http://www.w3.org/2000/svg" xmlns:xlink="http://www.w3.org/1999/xlink" x="0px" y="0px"
	 viewBox="-442 243 75 75" style="enable-background:new -442 243 75 75;" xml:space="preserve">
<style type="text/css">
	.st0{fill:#FFFFFF;}
</style>
<path class="st0" d="M-384.7,298.3h-7.5v-3.1c0-0.5-0.4-0.8-0.8-0.8c-0.5,0-0.8,0.4-0.8,0.8v3.1h-21.3v-3.1c0-0.5-0.4-0.8-0.8-0.8
	c-0.5,0-0.8,0.4-0.8,0.8v3.1h-7.5v-5.6c0-4.1,2.7-5.8,7-7.4c0.7-0.3,1.6-0.6,2.6-0.9c2.3,3.2,6,5.3,10.2,5.3c4.2,0,8-2.1,10.2-5.3
	c1,0.3,1.8,0.6,2.6,0.9c4.4,1.6,7,3.3,7,7.4v5.6H-384.7z M-409.9,258.7h10.7c3,0,5.4,2.4,5.4,5.4v3.5c-4.3-0.2-6.7-2.3-6.7-2.3
	c-0.2-0.2-0.6-0.3-0.9-0.2c-0.3,0.1-0.5,0.4-0.5,0.8c0,0,0,0.8,0,1.7c-4-0.2-5.5-2.2-5.5-2.2c-0.2-0.3-0.6-0.4-0.9-0.3
	c-0.3,0.1-0.7,0.3-0.7,0.7c0,0,0,0.9,0,1.7c-3.5-0.4-5.6-3.4-6.2-4.3C-414.8,260.6-412.5,258.7-409.9,258.7 M-415.3,265.9
	c1.4,1.5,3.8,3.3,7,3.3h0.1c0.5,0,0.8-0.4,0.8-0.8c0-0.2,0-0.5,0-0.7c1.2,0.8,3.2,1.6,6.3,1.6c0.5,0,0.8-0.4,0.8-0.8
	c0-0.3,0-0.6,0-0.9c1.3,0.8,3.5,1.7,6.4,1.8v8c0,5.9-4.8,10.8-10.8,10.8c-5.9,0-10.8-4.8-10.8-10.8v-11.5H-415.3z M-391.2,283.7
	c-0.6-0.2-1.4-0.5-2.2-0.8c0.9-1.7,1.4-3.6,1.4-5.6v-13.2c0-3.9-3.2-7.1-7.1-7.1h-10.8c-3.9,0-7.1,3.2-7.1,7.1v13.2
	c0,2,0.5,3.9,1.4,5.6c-0.8,0.3-1.6,0.5-2.2,0.8c-4.2,1.5-8.2,3.7-8.2,9v6.5c0,0.5,0.4,0.8,0.8,0.8h41.3c0.5,0,0.8-0.4,0.8-0.8v-6.5
	C-383,287.3-386.9,285.2-391.2,283.7 M-409.2,275.1c0.7,0,1.3-0.6,1.3-1.3c0-0.7-0.6-1.3-1.3-1.3c-0.7,0-1.3,0.6-1.3,1.3
	C-410.5,274.6-409.9,275.1-409.2,275.1 M-399.8,275.1c0.7,0,1.3-0.6,1.3-1.3c0-0.7-0.6-1.3-1.3-1.3c-0.7,0-1.3,0.6-1.3,1.3
	C-401.1,274.6-400.5,275.1-399.8,275.1 M-408.8,282.1c-0.3,0.4-0.2,0.9,0.2,1.2c1.2,0.8,2.6,1.2,4,1.2s2.8-0.4,4-1.2
	c0.4-0.3,0.5-0.8,0.2-1.2c-0.3-0.4-0.8-0.5-1.2-0.2c-0.9,0.6-2,1-3.1,1c-1.1,0-2.2-0.3-3.1-0.9C-408,281.6-408.5,281.7-408.8,282.1"
	/>
</svg>
