<?xml version="1.0" encoding="utf-8"?>
<!-- Generator: Adobe Illustrator 19.0.0, SVG Export Plug-In . SVG Version: 6.00 Build 0)  -->
<svg version="1.1" id="Capa_1" xmlns="http://www.w3.org/2000/svg" xmlns:xlink="http://www.w3.org/1999/xlink" x="0px" y="0px"
	 viewBox="-442 243 75 75" style="enable-background:new -442 243 75 75;" xml:space="preserve">
<style type="text/css">
	.st0{fill:#FFFFFF;}
</style>
<path class="st0" d="M-398.1,287.4c-0.2,1.3-2.6,3.6-5.5,4v-2.9l4.6-2.9L-398.1,287.4z M-400.3,282.6v1.7l-4.2,2.6l-4.2-2.6v-1.7
	c1.1,0.6,3,1.1,4.2,1.1C-403.2,283.8-401.4,283.3-400.3,282.6 M-405.4,288.5v2.9c-2.9-0.4-5.3-2.6-5.5-4l0.9-1.8L-405.4,288.5z
	 M-392.2,288.4c-1.4-0.5-3-1.1-4.4-1.8l-1.3-2.7c-0.1-0.2-0.3-0.4-0.6-0.5h-0.1v-2.2c1.1-1,2.4-2.9,2.9-6l0.8-0.8v-2.7h-1.8v2
	l-0.7,0.7v0.3c-0.6,4.5-3.1,5.8-3.2,5.9l-0.1,0.1l-0.1,0.1c-0.5,0.5-2.5,1.2-3.8,1.2c-1.3,0-3.2-0.7-3.8-1.2l-0.2-0.1
	c-0.1-0.1-2.5-1.4-3.2-5.9v-0.3l-0.7-0.7v-2h-1.8v2.7l0.8,0.8c0.5,3.1,1.8,5,2.9,6v2.2h-0.1c-0.2,0.1-0.4,0.2-0.6,0.5l-1.3,2.7
	c-1.4,0.7-3,1.3-4.4,1.8c-4.4,1.6-9,3.2-9,9.1v4.4h2v-4.5c0-4.6,3.6-5.9,7.8-7.4c1.3-0.5,2.6-0.9,3.8-1.5c1,2.5,4.7,4.7,7.9,4.7
	s6.9-2.2,7.9-4.7c1.2,0.6,2.6,1.1,3.8,1.5c4.2,1.5,7.8,2.8,7.8,7.4v4.5h1.8v-4.5C-383.2,291.6-387.8,290-392.2,288.4 M-405.1,260.9
	v-4.1h1.1v4.1c-0.2,0-0.4,0-0.6,0C-404.7,260.8-404.9,260.9-405.1,260.9 M-406.8,261.7c-0.9,0.7-1.5,1.8-1.5,3
	c0,2.1,1.7,3.8,3.8,3.8s3.8-1.7,3.8-3.8c0-1.2-0.5-2.3-1.5-3v-3.1c4.1,1.1,7,4.8,7,9v2h-18.6v-2c0-4.2,2.9-8,7-9V261.7z
	 M-404.5,266.7c-1.1,0-2-0.9-2-2c0-1.1,0.9-2,2-2s2,0.9,2,2C-402.5,265.8-403.4,266.7-404.5,266.7 M-391.9,269.6h-1.5v-2
	c0-5.2-3.7-9.7-8.8-10.8V255h-4.7v1.7c-5.1,1.1-8.8,5.6-8.8,10.8v2h-1.5v1.8h25.1v-1.7H-391.9z M-383.2,300.1h-42.6v1.9h42.6V300.1z
	"/>
</svg>
