<?xml version="1.0" encoding="utf-8"?>
<!-- Generator: Adobe Illustrator 19.0.0, SVG Export Plug-In . SVG Version: 6.00 Build 0)  -->
<svg version="1.1" id="Capa_1" xmlns="http://www.w3.org/2000/svg" xmlns:xlink="http://www.w3.org/1999/xlink" x="0px" y="0px"
	 viewBox="0 0 75 75" style="enable-background:new 0 0 75 75;" xml:space="preserve">
<style type="text/css">
	.st0{fill:#FFFFFF;}
</style>
<path class="st0" d="M52.7,46.6c3,0,5.5,2.5,5.5,5.5c0,0.4-0.3,0.8-0.7,0.8c0,0-27.6,3.4-27.6,3.4c0,0-2,0.2-2.8,1.4
	c-0.2,0.2-0.4,0.4-0.7,0.4c-0.2,0-0.3,0-0.5-0.1c-0.4-0.3-0.5-0.8-0.3-1.2c1.2-1.9,3.8-2.2,4.1-2.2l26.7-3.3
	c-0.3-1.7-1.9-3.1-3.7-3.1l-10.8,0c-0.2,0.4-0.4,0.8-0.8,1.1c-0.7,0.7-1.7,1.1-2.7,1.1h0l-8.4,0c-0.5,0-0.8-0.4-0.8-0.8
	c0-0.5,0.4-0.8,0.8-0.8l8.4,0h0c0.6,0,1.1-0.2,1.5-0.6c0.4-0.4,0.6-0.9,0.6-1.5c0-0.6-0.2-1.1-0.6-1.5c-0.4-0.4-0.9-0.6-1.5-0.6
	l-12.9,0h0c-2.2,0-3.6,1.4-5.2,3.9c0,0-2,3.2-2.1,3.3c-0.2,0.2-0.4,0.3-0.6,0.3c-0.2,0-0.4-0.1-0.5-0.2c-0.4-0.3-0.4-0.8-0.1-1.3
	c0.1-0.1,2-3,2-3c1.5-2.2,3.3-4.6,6.6-4.6h0l12.9,0c1,0,2,0.4,2.7,1.1c0.7,0.7,1.1,1.6,1.1,2.6L52.7,46.6 M21.2,22.6
	c0,2.2,0.9,4.3,2.4,5.9c1.6,1.6,3.6,2.4,5.9,2.4h3l-5-5c-0.3-0.3-0.3-0.9,0-1.2c0.3-0.3,0.9-0.3,1.2,0l5,5v-3c0-4.6-3.7-8.3-8.3-8.3
	h-4.1V22.6z M49.7,18.5c-4.6,0-8.3,3.7-8.3,8.3v3l5-5c0.3-0.3,0.9-0.3,1.2,0c0.3,0.3,0.3,0.9,0,1.2l-5,5h3c4.6,0,8.3-3.7,8.3-8.3
	v-4.1H49.7 M29.4,32.6c-2.7,0-5.2-1-7-2.9c-1.9-1.9-2.9-4.4-2.9-7v-5c0-0.5,0.4-0.8,0.8-0.8h5c5.5,0,10,4.5,10,10v4.6
	c0.5,0.5,1.5,1.6,2.2,3.3c0.7-1.8,1.7-2.8,2.2-3.3v-4.6c0-5.5,4.5-10,10-10h5c0.5,0,0.8,0.4,0.8,0.8v5c0,5.5-4.5,10-10,10h-4.7
	c-0.6,0.6-2.5,2.6-2.5,6.6v0c0,0.5-0.4,0.8-0.8,0.8c-0.5,0-0.8-0.4-0.8-0.8c0-4-1.9-6.1-2.5-6.6H29.4"/>
</svg>
