<?xml version="1.0" encoding="utf-8"?>
<!-- Generator: Adobe Illustrator 19.0.0, SVG Export Plug-In . SVG Version: 6.00 Build 0)  -->
<svg version="1.1" id="Capa_1" xmlns="http://www.w3.org/2000/svg" xmlns:xlink="http://www.w3.org/1999/xlink" x="0px" y="0px"
	 viewBox="0 0 194.5 53.3" style="enable-background:new 0 0 194.5 53.3;" xml:space="preserve">
<style type="text/css">
	.st0{fill:#61544C;}
	.st1{fill:#BC9D56;}
</style>
<g>
	<path class="st0" d="M58.3,29h-9.7v23h9.6c8.4,0,14-4.6,14-11.5C72.2,33.5,66.7,29,58.3,29 M58.4,45.3h-1.9v-9.1h1.9
		c3.6,0,5.7,1.8,5.7,4.8C64.1,43.9,62,45.3,58.4,45.3"/>
	<path class="st0" d="M81.7,45.5v-2h8.9c1.7,0,2.3-1.2,2.3-2.5v-3.7H81.7v-1.8h10.1c1.3-0.1,2.5-1.1,2.5-2.4V29H73.8v23h17.9
		c1.4,0,2.5-1.1,2.5-2.4v-4H81.7z"/>
	<path class="st0" d="M10.7,29H0v23h5.4c1.3,0,2.4-1,2.5-2.3v-3.8h2.5c6.6,0,10.8-3.2,10.8-8.5C21.2,32.2,17.2,29,10.7,29
		 M10.3,39.8H7.9v-4.2h2.3c1.4,0,3,0.4,3,2.2C13.2,39,12.1,39.8,10.3,39.8"/>
	<path class="st0" d="M183.9,29h-5.7l0,0c-0.9,0-1.7,0.7-2.1,1.4l0,0l-10,21.6h8.4l1.7-3.7h8.1l1.1,2.5c0.5,0.9,1.3,1.2,2.2,1.2h6.9
		L183.9,29z M178.7,42.2l1.5-5.1l1.5,5.1H178.7z"/>
	<path class="st0" d="M157.2,37.1c-3.4-0.7-3.7-1.1-3.7-1.5c0-2.9,9.5,1.1,9.5,1.1l3.2-4.5c0,0-4.1-4.1-10.8-4.1
		c-6.2,0-10.4,3.2-10.4,8.1c0,5.4,4.7,6.6,9.9,7.7c3.1,0.7,3.6,0.9,3.6,1.7c0,0.6-1.1,0.8-2.1,0.8c-5.1,0.1-8.1-3-8.1-3l-4.8,5.3
		c0,0,4,4.5,12.7,4.5c6.5,0,10.8-3.2,10.8-8.3C167,39.8,162.3,38.1,157.2,37.1"/>
	<path class="st0" d="M47.2,40.7c0,6.9-5.6,12.5-12.5,12.5c-6.9,0-12.6-5.6-12.6-12.5c0-6.9,5.6-12.6,12.6-12.6
		C41.6,28.2,47.2,33.8,47.2,40.7 M37.9,37.5c-1.8-1.8-4.7-1.8-6.5,0c-1.8,1.8-1.8,4.7,0,6.5c1.8,1.8,4.7,1.8,6.5,0
		C39.7,42.2,39.7,39.3,37.9,37.5"/>
	<path class="st0" d="M143.9,40.7c0,6.9-5.6,12.5-12.5,12.5c-6.9,0-12.6-5.6-12.6-12.5c0-6.9,5.6-12.6,12.6-12.6
		C138.3,28.2,143.9,33.8,143.9,40.7 M134.6,37.5c-1.8-1.8-4.7-1.8-6.5,0c-1.8,1.8-1.8,4.7,0,6.5c1.8,1.8,4.7,1.8,6.5,0
		C136.4,42.2,136.4,39.3,134.6,37.5"/>
	<path class="st0" d="M143.9,12.5c0,6.9-5.6,12.5-12.5,12.5c-6.9,0-12.5-5.6-12.5-12.5c0-6.9,5.6-12.5,12.5-12.5
		C138.3,0,143.9,5.6,143.9,12.5"/>
	<path class="st1" d="M134.6,9.3c-1.8-1.8-4.7-1.8-6.5,0c-1.8,1.8-1.8,4.7,0,6.5c1.8,1.8,4.7,1.8,6.5,0
		C136.4,14,136.4,11.1,134.6,9.3"/>
	<path class="st0" d="M113.6,44.1c2.9-1.4,4.4-3.8,4.4-7c0-2.3-0.8-4.2-2.3-5.5c-1.8-1.7-4.6-2.6-8.2-2.6H95.8v23h8v-6.5h1.7
		l3.9,5.5h0c0.5,0.6,1.2,1,2,1h8L113.6,44.1z M106.1,39.7h-2.3v-4.2h2.3c1.4,0,3,0.4,3,2.2C109.1,38.9,108,39.7,106.1,39.7"/>
</g>
</svg>
