<?xml version="1.0" encoding="utf-8"?>
<!-- Generator: Adobe Illustrator 23.0.5, SVG Export Plug-In . SVG Version: 6.00 Build 0)  -->
<svg version="1.1" xmlns="http://www.w3.org/2000/svg" xmlns:xlink="http://www.w3.org/1999/xlink" x="0px" y="0px"
	 viewBox="0 0 82.52 90.99" style="enable-background:new 0 0 82.52 90.99;" xml:space="preserve">
<style type="text/css">
	.st0{clip-path:url(#SVGID_2_);fill:#EA660A;}
	.st1{clip-path:url(#SVGID_2_);fill:#FFFFFF;}
	.st2{clip-path:url(#SVGID_2_);fill:#75B52D;}
	.st3{clip-path:url(#SVGID_2_);}
	.st4{clip-path:url(#SVGID_6_);fill:#EA660A;}
	.st5{clip-path:url(#SVGID_6_);fill:#FFFFFF;}
	.st6{clip-path:url(#SVGID_6_);fill:#75B52D;}
	.st7{clip-path:url(#SVGID_6_);}
	.st8{clip-path:url(#SVGID_10_);fill:#EA660A;}
	.st9{clip-path:url(#SVGID_10_);fill:#FFFFFF;}
	.st10{clip-path:url(#SVGID_10_);fill:#75B52D;}
	.st11{clip-path:url(#SVGID_10_);}
	.st12{clip-path:url(#SVGID_14_);fill:#EA660A;}
	.st13{clip-path:url(#SVGID_14_);}
	.st14{clip-path:url(#SVGID_14_);fill:#FFFFFF;}
	.st15{clip-path:url(#SVGID_14_);fill:#75B52D;}
	.st16{clip-path:url(#SVGID_18_);fill:#EA660A;}
	.st17{clip-path:url(#SVGID_18_);}
	.st18{clip-path:url(#SVGID_18_);fill:#FFFFFF;}
	.st19{clip-path:url(#SVGID_18_);fill:#75B52D;}
	.st20{clip-path:url(#SVGID_26_);}
	.st21{fill:#FFFFFF;}
	.st22{fill:url(#);}
	.st23{fill:#61544C;}
	.st24{fill:none;stroke:#61544C;stroke-width:5.3208;stroke-miterlimit:10;}
	.st25{fill:#199AD7;}
	.st26{fill:#D8A400;}
	.st27{fill:#A29D96;}
	.st28{fill:none;stroke:#FFFFFF;stroke-width:14.6911;}
	.st29{clip-path:url(#SVGID_32_);}
	.st30{clip-path:url(#SVGID_34_);}
	.st31{fill:#BC9D56;}
	.st32{fill-rule:evenodd;clip-rule:evenodd;fill:#61544C;}
	.st33{clip-path:url(#SVGID_42_);}
	.st34{fill:none;stroke:#75B52D;stroke-width:2.9115;stroke-miterlimit:10;}
	.st35{fill:#75B52D;}
	.st36{clip-path:url(#SVGID_46_);}
	.st37{clip-path:url(#SVGID_50_);}
	.st38{clip-path:url(#SVGID_52_);}
	.st39{clip-path:url(#SVGID_56_);}
	.st40{clip-path:url(#SVGID_60_);fill:#75B52F;}
	.st41{clip-path:url(#SVGID_62_);}
	.st42{clip-path:url(#SVGID_66_);fill:#F9B711;}
	.st43{clip-path:url(#SVGID_68_);}
	.st44{clip-path:url(#SVGID_72_);fill:#E96610;}
	.st45{clip-path:url(#SVGID_74_);}
	.st46{clip-path:url(#SVGID_80_);}
	.st47{clip-path:url(#SVGID_82_);}
	.st48{clip-path:url(#SVGID_86_);}
	.st49{clip-path:url(#SVGID_90_);fill:#FFFFFF;}
	.st50{clip-path:url(#SVGID_92_);fill:#199AD7;}
	.st51{clip-path:url(#SVGID_92_);fill:#61544C;}
	.st52{clip-path:url(#SVGID_92_);}
	.st53{fill:none;}
	.st54{opacity:0.85;}
	.st55{clip-path:url(#SVGID_102_);}
	.st56{clip-path:url(#SVGID_106_);}
	.st57{clip-path:url(#SVGID_110_);}
	.st58{clip-path:url(#SVGID_112_);}
	.st59{clip-path:url(#SVGID_116_);}
	.st60{clip-path:url(#SVGID_118_);}
	.st61{clip-path:url(#SVGID_122_);}
	.st62{clip-path:url(#SVGID_126_);}
	.st63{clip-path:url(#SVGID_130_);}
	.st64{clip-path:url(#SVGID_134_);fill:#75B52F;}
	.st65{clip-path:url(#SVGID_136_);}
	.st66{clip-path:url(#SVGID_140_);fill:#F9B711;}
	.st67{clip-path:url(#SVGID_142_);}
	.st68{clip-path:url(#SVGID_146_);fill:#E96610;}
	.st69{clip-path:url(#SVGID_148_);}
	.st70{clip-path:url(#SVGID_154_);fill:#FFFFFF;}
	.st71{clip-path:url(#SVGID_156_);fill:#199AD7;}
	.st72{clip-path:url(#SVGID_156_);fill:#61544C;}
	.st73{clip-path:url(#SVGID_156_);}
	.st74{clip-path:url(#SVGID_158_);fill:#75B52F;}
	.st75{clip-path:url(#SVGID_160_);}
	.st76{clip-path:url(#SVGID_164_);fill:#F9B711;}
	.st77{clip-path:url(#SVGID_166_);}
	.st78{clip-path:url(#SVGID_170_);fill:#E96610;}
	.st79{clip-path:url(#SVGID_172_);}
	.st80{clip-path:url(#SVGID_178_);fill:#FFFFFF;}
	.st81{clip-path:url(#SVGID_180_);fill:#199AD7;}
	.st82{clip-path:url(#SVGID_180_);fill:#61544C;}
	.st83{clip-path:url(#SVGID_180_);}
	.st84{clip-path:url(#SVGID_182_);}
	.st85{clip-path:url(#SVGID_184_);}
	.st86{clip-path:url(#SVGID_188_);}
	.st87{fill:none;stroke:#BC9D56;stroke-width:3.1487;}
	.st88{fill:#EA660A;}
	.st89{clip-path:url(#SVGID_196_);}
	.st90{clip-path:url(#SVGID_198_);}
	.st91{clip-path:url(#SVGID_206_);}
	.st92{clip-path:url(#SVGID_210_);}
	.st93{clip-path:url(#SVGID_214_);}
	.st94{clip-path:url(#SVGID_216_);}
	.st95{clip-path:url(#SVGID_220_);}
	.st96{clip-path:url(#SVGID_224_);fill:#75B52F;}
	.st97{clip-path:url(#SVGID_226_);}
	.st98{clip-path:url(#SVGID_230_);fill:#F9B711;}
	.st99{clip-path:url(#SVGID_232_);}
	.st100{clip-path:url(#SVGID_236_);fill:#E96610;}
	.st101{clip-path:url(#SVGID_238_);}
	.st102{clip-path:url(#SVGID_244_);}
	.st103{clip-path:url(#SVGID_246_);}
	.st104{clip-path:url(#SVGID_250_);}
	.st105{clip-path:url(#SVGID_254_);fill:#FFFFFF;}
	.st106{clip-path:url(#SVGID_256_);fill:#199AD7;}
	.st107{clip-path:url(#SVGID_256_);fill:#61544C;}
	.st108{clip-path:url(#SVGID_256_);}
	.st109{opacity:0.7;fill:#D8A400;}
	.st110{clip-path:url(#SVGID_264_);}
	.st111{clip-path:url(#SVGID_268_);}
	.st112{clip-path:url(#SVGID_272_);}
	.st113{clip-path:url(#SVGID_274_);}
	.st114{clip-path:url(#SVGID_278_);}
	.st115{clip-path:url(#SVGID_280_);}
	.st116{clip-path:url(#SVGID_284_);}
	.st117{clip-path:url(#SVGID_288_);}
	.st118{clip-path:url(#SVGID_292_);}
	.st119{clip-path:url(#SVGID_296_);fill:#75B52F;}
	.st120{clip-path:url(#SVGID_298_);}
	.st121{clip-path:url(#SVGID_302_);fill:#F9B711;}
	.st122{clip-path:url(#SVGID_304_);}
	.st123{clip-path:url(#SVGID_308_);fill:#E96610;}
	.st124{clip-path:url(#SVGID_310_);}
	.st125{clip-path:url(#SVGID_316_);fill:#FFFFFF;}
	.st126{clip-path:url(#SVGID_318_);fill:#199AD7;}
	.st127{clip-path:url(#SVGID_318_);fill:#61544C;}
	.st128{clip-path:url(#SVGID_318_);}
	.st129{clip-path:url(#SVGID_320_);}
	.st130{clip-path:url(#SVGID_322_);}
	.st131{clip-path:url(#SVGID_326_);}
	.st132{clip-path:url(#SVGID_338_);}
	.st133{clip-path:url(#SVGID_344_);}
	.st134{clip-path:url(#SVGID_348_);}
</style>
<g id="FONDO">
	<g>
		<defs>
			<rect id="SVGID_17_" x="2105.94" y="-416.22" width="575" height="11276"/>
		</defs>
		<clipPath id="SVGID_2_">
			<use xlink:href="#SVGID_17_"  style="overflow:visible;"/>
		</clipPath>
		<g class="st3">
			<defs>
				<circle id="SVGID_19_" cx="2392.94" cy="-2437.17" r="2825.14"/>
			</defs>
			<clipPath id="SVGID_4_">
				<use xlink:href="#SVGID_19_"  style="overflow:visible;"/>
			</clipPath>
		</g>
	</g>
</g>
<g id="Capa_1">
	<g>
		<g>
			<path class="st23" d="M53.63,62.77c-0.35,2.59-4.98,6.94-10.66,7.72v-5.69l8.9-5.56L53.63,62.77z M49.43,53.46v3.27l-8.17,5.11
				l-8.18-5.11v-3.27c2.2,1.25,5.73,2.22,8.18,2.22C43.71,55.68,47.24,54.71,49.43,53.46 M39.55,64.81v5.69
				c-5.68-0.78-10.31-5.13-10.66-7.72l1.76-3.53L39.55,64.81z M65.14,64.69c-2.74-0.97-5.84-2.07-8.47-3.5l-2.58-5.15
				c-0.22-0.43-0.61-0.75-1.07-0.88c-0.05-0.01-0.11-0.02-0.16-0.03v-4.22c2.09-2.01,4.56-5.59,5.55-11.64l1.52-1.52v-5.24H56.5
				v3.83l-1.31,1.31l-0.08,0.57c-1.26,8.8-5.94,11.32-6.13,11.42l-0.21,0.1l-0.24,0.22c-0.99,0.99-4.77,2.32-7.26,2.32
				c-2.5,0-6.27-1.33-7.3-2.35l-0.4-0.28c-0.2-0.1-4.89-2.63-6.15-11.43l-0.08-0.56l-1.31-1.31v-3.83H22.6v5.24l1.52,1.52
				c0.98,6.05,3.45,9.63,5.54,11.64v4.22c-0.06,0.01-0.11,0.02-0.16,0.03c-0.46,0.13-0.85,0.45-1.07,0.88l-2.58,5.15
				c-2.63,1.43-5.73,2.53-8.47,3.5C8.83,67.72,0,70.85,0,82.22v8.77h3.42v-8.77c0-8.95,7-11.43,15.1-14.3
				c2.48-0.88,5.04-1.78,7.44-2.93c2,4.86,9.04,9.06,15.3,9.06c6.26,0,13.3-4.2,15.3-9.06c2.39,1.14,4.96,2.05,7.44,2.93
				c8.1,2.87,15.1,5.35,15.1,14.3v8.77h3.43v-8.77C82.52,70.85,73.69,67.72,65.14,64.69"/>
			<path class="st23" d="M40.15,11.38V3.42h2.22v7.96c-0.37-0.06-0.74-0.09-1.11-0.09C40.89,11.3,40.52,11.33,40.15,11.38
				 M36.72,12.88c-1.8,1.41-2.82,3.51-2.82,5.78c0,4.06,3.3,7.36,7.36,7.36c4.06,0,7.36-3.3,7.36-7.36c0-2.28-1.03-4.37-2.82-5.78
				V6.83c7.86,2.04,13.52,9.33,13.52,17.48v3.94H23.2v-3.94c0-8.15,5.67-15.44,13.52-17.48V12.88z M41.26,22.6
				c-2.17,0-3.94-1.77-3.94-3.94s1.77-3.94,3.94-3.94c2.17,0,3.94,1.77,3.94,3.94S43.43,22.6,41.26,22.6 M65.57,28.25h-2.83v-3.94
				c0-10.07-7.11-18.86-16.95-20.98V0h-9.07v3.33c-9.84,2.12-16.95,10.91-16.95,20.98v3.94h-2.82v3.43h48.62V28.25z"/>
		</g>
	</g>
</g>
</svg>
