<?xml version="1.0" encoding="utf-8"?>
<!-- Generator: Adobe Illustrator 19.0.0, SVG Export Plug-In . SVG Version: 6.00 Build 0)  -->
<svg version="1.1" id="Capa_1" xmlns="http://www.w3.org/2000/svg" xmlns:xlink="http://www.w3.org/1999/xlink" x="0px" y="0px"
	 viewBox="-439 241 80 80" style="enable-background:new -439 241 80 80;" xml:space="preserve">
<style type="text/css">
	.st0{fill:#FFFFFF;}
</style>
<path id="Capa_1_1_" class="st0" d="M-382.4,318.6c-7,0-11.4-2.4-11.4-4v-2.9c2.7,1.7,7.1,2.7,11.4,2.7c4.3,0,8.7-0.9,11.4-2.7v2.9
	C-371,316.2-375.5,318.6-382.4,318.6 M-393.8,294.3c0-1.6,4.4-4,11.4-4c7,0,11.4,2.4,11.4,4v0c0,1.6-4.4,4-11.4,4
	C-389.4,298.3-393.8,296-393.8,294.3C-393.8,294.4-393.8,294.3-393.8,294.3z M-371,301.2c0,1.6-4.4,4-11.4,4c-7,0-11.4-2.4-11.4-4
	v-3c2.7,1.7,7.1,2.7,11.4,2.7c4.3,0,8.7-0.9,11.4-2.7V301.2z M-371,307.9c0,1.6-4.4,4-11.4,4c-7,0-11.4-2.4-11.4-4v-2.9
	c2.7,1.7,7.1,2.7,11.4,2.7c4.3,0,8.7-0.9,11.4-2.7V307.9z M-382.4,287.9c-6.7,0-13.9,2.3-13.9,6.4v20.3c0,4.2,7.1,6.4,13.9,6.4
	s13.9-2.3,13.9-6.4v-20.3C-368.6,290.1-375.7,287.9-382.4,287.9 M-391.3,279.6h-26.7v-9.5h26.7V279.6z M-388.8,280.8v-12
	c0-0.7-0.6-1.2-1.2-1.2h-29.1c-0.7,0-1.2,0.5-1.2,1.2v12c0,0.7,0.6,1.2,1.2,1.2h29.1C-389.4,282-388.8,281.5-388.8,280.8
	 M-401.5,288.9h-5.3c-0.7,0-1.2,0.5-1.2,1.2c0,0.7,0.6,1.2,1.2,1.2h5.3c0.7,0,1.2-0.5,1.2-1.2C-400.3,289.5-400.9,288.9-401.5,288.9
	 M-401.5,297.2h-5.3c-0.7,0-1.2,0.5-1.2,1.2c0,0.7,0.6,1.2,1.2,1.2h5.3c0.7,0,1.2-0.5,1.2-1.2S-400.9,297.2-401.5,297.2
	 M-401.5,305.5h-5.3c-0.7,0-1.2,0.5-1.2,1.2c0,0.7,0.6,1.2,1.2,1.2h5.3c0.7,0,1.2-0.5,1.2-1.2C-400.3,306-400.9,305.5-401.5,305.5
	 M-413.9,288.9h-5.3c-0.7,0-1.2,0.5-1.2,1.2c0,0.7,0.6,1.2,1.2,1.2h5.3c0.7,0,1.2-0.5,1.2-1.2C-412.7,289.5-413.2,288.9-413.9,288.9
	 M-413.9,297.2h-5.3c-0.7,0-1.2,0.5-1.2,1.2c0,0.7,0.6,1.2,1.2,1.2h5.3c0.7,0,1.2-0.5,1.2-1.2S-413.2,297.2-413.9,297.2
	 M-413.9,305.5h-5.3c-0.7,0-1.2,0.5-1.2,1.2c0,0.7,0.6,1.2,1.2,1.2h5.3c0.7,0,1.2-0.5,1.2-1.2C-412.7,306-413.2,305.5-413.9,305.5
	 M-400.4,317H-422c-2.7,0-4.9-2.2-4.9-4.9v-45.8c0-2.7,2.2-4.9,4.9-4.9h34.9c2.7,0,4.9,2.2,4.9,4.9V283c0,0.7,0.6,1.2,1.2,1.2
	c0.7,0,1.2-0.5,1.2-1.2v-16.7c0-4.1-3.3-7.4-7.4-7.4H-422c-4.1,0-7.4,3.3-7.4,7.4v45.8c0,4.1,3.3,7.4,7.4,7.4h21.7
	c0.7,0,1.2-0.5,1.2-1.2C-399.1,317.6-399.7,317-400.4,317"/>
</svg>
