<?xml version="1.0" encoding="utf-8"?>
<!-- Generator: Adobe Illustrator 19.0.0, SVG Export Plug-In . SVG Version: 6.00 Build 0)  -->
<svg version="1.1" id="Capa_1" xmlns="http://www.w3.org/2000/svg" xmlns:xlink="http://www.w3.org/1999/xlink" x="0px" y="0px"
	 viewBox="-439 241 80 80" style="enable-background:new -439 241 80 80;" xml:space="preserve">
<style type="text/css">
	.st0{fill:#FFFFFF;}
</style>
<path id="Capa_1_1_" class="st0" d="M-373.3,303c-1.5-0.9-3.3-1.5-5.3-1.5c-5.1,0-9.3,3.6-10,8.4h-20.8c-0.7-4.7-4.9-8.4-10-8.4
	c-1.9,0-3.7,0.5-5.3,1.5l-5.1-13.5h12.1c0.8,0,1.4-0.6,1.4-1.4s-0.6-1.4-1.4-1.4h-18.4v-6.5h74.3v6.5h-18.4c-0.8,0-1.4,0.6-1.4,1.4
	s0.6,1.4,1.4,1.4h12.1L-373.3,303z M-378.6,318.2c-4,0-7.2-3.1-7.2-7c0-3.8,3.2-7,7.2-7c4,0,7.2,3.1,7.2,7
	C-371.4,315.1-374.6,318.2-378.6,318.2 M-419.4,318.2c-4,0-7.2-3.1-7.2-7c0-3.8,3.2-7,7.2-7c4,0,7.2,3.1,7.2,7
	C-412.2,315.1-415.4,318.2-419.4,318.2 M-406.8,263.8c4.3-4.2,11.3-4.2,15.6,0l14,13.6h-43.7L-406.8,263.8z M-360.4,277.4h-12.7
	l-16.1-15.5c-5.4-5.3-14.3-5.3-19.7,0l-16.1,15.5h-12.7c-0.8,0-1.4,0.6-1.4,1.4v9.3c0,0.8,0.6,1.4,1.4,1.4h4.7l5.9,15.4
	c-1.5,1.7-2.5,3.9-2.5,6.4c0,5.4,4.5,9.7,10.1,9.7c5.1,0,9.3-3.6,10-8.4h20.8c0.7,4.7,4.9,8.4,10,8.4c5.6,0,10.1-4.4,10.1-9.7
	c0-2.4-0.9-4.7-2.5-6.4l5.9-15.4h4.7l0,0l0,0c0.8,0,1.4-0.6,1.4-1.4v-9.3C-359,278-359.6,277.4-360.4,277.4"/>
</svg>
