<?xml version="1.0" encoding="utf-8"?>
<!-- Generator: Adobe Illustrator 19.0.0, SVG Export Plug-In . SVG Version: 6.00 Build 0)  -->
<svg version="1.1" id="Capa_1" xmlns="http://www.w3.org/2000/svg" xmlns:xlink="http://www.w3.org/1999/xlink" x="0px" y="0px"
	 viewBox="-472 273 15 15" style="enable-background:new -472 273 15 15;" xml:space="preserve">
<style type="text/css">
	.st0{clip-path:url(#SVGID_2_);}
	.st1{fill:#FFFFFF;}
</style>
<g>
	<defs>
		<rect id="SVGID_1_" x="-472" y="273" width="15" height="15"/>
	</defs>
	<clipPath id="SVGID_2_">
		<use xlink:href="#SVGID_1_"  style="overflow:visible;"/>
	</clipPath>
	<g class="st0">
		
			<rect x="-593.5" y="202.6" transform="matrix(-0.7071 0.7071 -0.7071 -0.7071 -538.201 629.1335)" class="st1" width="388.2" height="1"/>
		
			<rect x="-591.1" y="205.2" transform="matrix(-0.7071 0.7071 -0.7071 -0.7071 -532.3172 631.8883)" class="st1" width="388.2" height="1"/>
		
			<rect x="-588.8" y="207.8" transform="matrix(-0.7071 0.7071 -0.7071 -0.7071 -526.4282 634.6453)" class="st1" width="388.2" height="1"/>
		
			<rect x="-586.5" y="210.5" transform="matrix(-0.7071 0.7071 -0.7071 -0.7071 -520.6163 637.5731)" class="st1" width="388.2" height="1"/>
		
			<rect x="-583.7" y="212.7" transform="matrix(-0.7071 0.7071 -0.7071 -0.7071 -514.3019 639.5106)" class="st1" width="388.2" height="1"/>
		
			<rect x="-581.3" y="215.3" transform="matrix(-0.7071 0.7071 -0.7071 -0.7071 -508.4156 642.2666)" class="st1" width="388.2" height="1"/>
	</g>
</g>
</svg>
