<?xml version="1.0" encoding="utf-8"?>
<!-- Generator: Adobe Illustrator 23.0.5, SVG Export Plug-In . SVG Version: 6.00 Build 0)  -->
<svg version="1.1" xmlns="http://www.w3.org/2000/svg" xmlns:xlink="http://www.w3.org/1999/xlink" x="0px" y="0px"
	 viewBox="0 0 85.03 85.04" style="enable-background:new 0 0 85.03 85.04;" xml:space="preserve">
<style type="text/css">
	.st0{clip-path:url(#SVGID_2_);fill:#EA660A;}
	.st1{clip-path:url(#SVGID_2_);fill:#FFFFFF;}
	.st2{clip-path:url(#SVGID_2_);fill:#75B52D;}
	.st3{clip-path:url(#SVGID_2_);}
	.st4{clip-path:url(#SVGID_6_);fill:#EA660A;}
	.st5{clip-path:url(#SVGID_6_);fill:#FFFFFF;}
	.st6{clip-path:url(#SVGID_6_);fill:#75B52D;}
	.st7{clip-path:url(#SVGID_6_);}
	.st8{clip-path:url(#SVGID_10_);fill:#EA660A;}
	.st9{clip-path:url(#SVGID_10_);fill:#FFFFFF;}
	.st10{clip-path:url(#SVGID_10_);fill:#75B52D;}
	.st11{clip-path:url(#SVGID_10_);}
	.st12{clip-path:url(#SVGID_14_);fill:#EA660A;}
	.st13{clip-path:url(#SVGID_14_);}
	.st14{clip-path:url(#SVGID_14_);fill:#FFFFFF;}
	.st15{clip-path:url(#SVGID_14_);fill:#75B52D;}
	.st16{clip-path:url(#SVGID_18_);fill:#EA660A;}
	.st17{clip-path:url(#SVGID_18_);}
	.st18{clip-path:url(#SVGID_18_);fill:#FFFFFF;}
	.st19{clip-path:url(#SVGID_18_);fill:#75B52D;}
	.st20{clip-path:url(#SVGID_26_);}
	.st21{fill:#FFFFFF;}
	.st22{fill:url(#);}
	.st23{fill:#61544C;}
	.st24{fill:none;stroke:#61544C;stroke-width:5.3208;stroke-miterlimit:10;}
	.st25{fill:#199AD7;}
	.st26{fill:#D8A400;}
	.st27{fill:#A29D96;}
	.st28{fill:none;stroke:#FFFFFF;stroke-width:14.6911;}
	.st29{clip-path:url(#SVGID_32_);}
	.st30{clip-path:url(#SVGID_34_);}
	.st31{fill:#BC9D56;}
	.st32{fill-rule:evenodd;clip-rule:evenodd;fill:#61544C;}
	.st33{clip-path:url(#SVGID_42_);}
	.st34{fill:none;stroke:#75B52D;stroke-width:2.9115;stroke-miterlimit:10;}
	.st35{fill:#75B52D;}
	.st36{clip-path:url(#SVGID_46_);}
	.st37{clip-path:url(#SVGID_50_);}
	.st38{clip-path:url(#SVGID_52_);}
	.st39{clip-path:url(#SVGID_56_);}
	.st40{clip-path:url(#SVGID_60_);fill:#75B52F;}
	.st41{clip-path:url(#SVGID_62_);}
	.st42{clip-path:url(#SVGID_66_);fill:#F9B711;}
	.st43{clip-path:url(#SVGID_68_);}
	.st44{clip-path:url(#SVGID_72_);fill:#E96610;}
	.st45{clip-path:url(#SVGID_74_);}
	.st46{clip-path:url(#SVGID_80_);}
	.st47{clip-path:url(#SVGID_82_);}
	.st48{clip-path:url(#SVGID_86_);}
	.st49{clip-path:url(#SVGID_90_);fill:#FFFFFF;}
	.st50{clip-path:url(#SVGID_92_);fill:#199AD7;}
	.st51{clip-path:url(#SVGID_92_);fill:#61544C;}
	.st52{clip-path:url(#SVGID_92_);}
	.st53{fill:none;}
	.st54{opacity:0.85;}
	.st55{clip-path:url(#SVGID_102_);}
	.st56{clip-path:url(#SVGID_106_);}
	.st57{clip-path:url(#SVGID_110_);}
	.st58{clip-path:url(#SVGID_112_);}
	.st59{clip-path:url(#SVGID_116_);}
	.st60{clip-path:url(#SVGID_118_);}
	.st61{clip-path:url(#SVGID_122_);}
	.st62{clip-path:url(#SVGID_126_);}
	.st63{clip-path:url(#SVGID_130_);}
	.st64{clip-path:url(#SVGID_134_);fill:#75B52F;}
	.st65{clip-path:url(#SVGID_136_);}
	.st66{clip-path:url(#SVGID_140_);fill:#F9B711;}
	.st67{clip-path:url(#SVGID_142_);}
	.st68{clip-path:url(#SVGID_146_);fill:#E96610;}
	.st69{clip-path:url(#SVGID_148_);}
	.st70{clip-path:url(#SVGID_154_);fill:#FFFFFF;}
	.st71{clip-path:url(#SVGID_156_);fill:#199AD7;}
	.st72{clip-path:url(#SVGID_156_);fill:#61544C;}
	.st73{clip-path:url(#SVGID_156_);}
	.st74{clip-path:url(#SVGID_158_);fill:#75B52F;}
	.st75{clip-path:url(#SVGID_160_);}
	.st76{clip-path:url(#SVGID_164_);fill:#F9B711;}
	.st77{clip-path:url(#SVGID_166_);}
	.st78{clip-path:url(#SVGID_170_);fill:#E96610;}
	.st79{clip-path:url(#SVGID_172_);}
	.st80{clip-path:url(#SVGID_178_);fill:#FFFFFF;}
	.st81{clip-path:url(#SVGID_180_);fill:#199AD7;}
	.st82{clip-path:url(#SVGID_180_);fill:#61544C;}
	.st83{clip-path:url(#SVGID_180_);}
	.st84{clip-path:url(#SVGID_182_);}
	.st85{clip-path:url(#SVGID_184_);}
	.st86{clip-path:url(#SVGID_188_);}
	.st87{fill:none;stroke:#BC9D56;stroke-width:3.1487;}
	.st88{fill:#EA660A;}
	.st89{clip-path:url(#SVGID_196_);}
	.st90{clip-path:url(#SVGID_198_);}
	.st91{clip-path:url(#SVGID_206_);}
	.st92{clip-path:url(#SVGID_210_);}
	.st93{clip-path:url(#SVGID_214_);}
	.st94{clip-path:url(#SVGID_216_);}
	.st95{clip-path:url(#SVGID_220_);}
	.st96{clip-path:url(#SVGID_224_);fill:#75B52F;}
	.st97{clip-path:url(#SVGID_226_);}
	.st98{clip-path:url(#SVGID_230_);fill:#F9B711;}
	.st99{clip-path:url(#SVGID_232_);}
	.st100{clip-path:url(#SVGID_236_);fill:#E96610;}
	.st101{clip-path:url(#SVGID_238_);}
	.st102{clip-path:url(#SVGID_244_);}
	.st103{clip-path:url(#SVGID_246_);}
	.st104{clip-path:url(#SVGID_250_);}
	.st105{clip-path:url(#SVGID_254_);fill:#FFFFFF;}
	.st106{clip-path:url(#SVGID_256_);fill:#199AD7;}
	.st107{clip-path:url(#SVGID_256_);fill:#61544C;}
	.st108{clip-path:url(#SVGID_256_);}
	.st109{opacity:0.7;fill:#D8A400;}
	.st110{clip-path:url(#SVGID_264_);}
	.st111{clip-path:url(#SVGID_268_);}
	.st112{clip-path:url(#SVGID_272_);}
	.st113{clip-path:url(#SVGID_274_);}
	.st114{clip-path:url(#SVGID_278_);}
	.st115{clip-path:url(#SVGID_280_);}
	.st116{clip-path:url(#SVGID_284_);}
	.st117{clip-path:url(#SVGID_288_);}
	.st118{clip-path:url(#SVGID_292_);}
	.st119{clip-path:url(#SVGID_296_);fill:#75B52F;}
	.st120{clip-path:url(#SVGID_298_);}
	.st121{clip-path:url(#SVGID_302_);fill:#F9B711;}
	.st122{clip-path:url(#SVGID_304_);}
	.st123{clip-path:url(#SVGID_308_);fill:#E96610;}
	.st124{clip-path:url(#SVGID_310_);}
	.st125{clip-path:url(#SVGID_316_);fill:#FFFFFF;}
	.st126{clip-path:url(#SVGID_318_);fill:#199AD7;}
	.st127{clip-path:url(#SVGID_318_);fill:#61544C;}
	.st128{clip-path:url(#SVGID_318_);}
	.st129{clip-path:url(#SVGID_320_);}
	.st130{clip-path:url(#SVGID_322_);}
	.st131{clip-path:url(#SVGID_326_);}
	.st132{clip-path:url(#SVGID_338_);}
	.st133{clip-path:url(#SVGID_344_);}
	.st134{clip-path:url(#SVGID_348_);}
</style>
<g id="FONDO">
	<g>
		<defs>
			<rect id="SVGID_17_" x="2372.6" y="-406.66" width="575" height="11276"/>
		</defs>
		<clipPath id="SVGID_2_">
			<use xlink:href="#SVGID_17_"  style="overflow:visible;"/>
		</clipPath>
		<g class="st3">
			<defs>
				<circle id="SVGID_19_" cx="2659.6" cy="-2427.61" r="2825.14"/>
			</defs>
			<clipPath id="SVGID_4_">
				<use xlink:href="#SVGID_19_"  style="overflow:visible;"/>
			</clipPath>
		</g>
	</g>
</g>
<g id="Capa_1">
	<g>
		<path class="st23" d="M73.8,61.29l-21.45-0.01c-0.06-2-0.85-3.87-2.27-5.29c-1.47-1.47-3.43-2.29-5.52-2.29L18.11,53.7H18.1
			c-6.75,0-10.55,4.88-13.58,9.46c0,0-3.83,5.81-4.02,6.11c-0.71,1.16-0.67,2.08,0.14,2.72c0.29,0.23,0.68,0.38,1.08,0.38
			c0.44,0,0.91-0.17,1.3-0.59c0.19-0.2,4.36-6.72,4.36-6.72c3.32-5.02,6.14-7.92,10.71-7.92h0.01l26.45,0.01
			c1.17,0,2.26,0.46,3.09,1.28c0.82,0.83,1.28,1.92,1.28,3.09c0,1.17-0.45,2.26-1.28,3.09c-0.82,0.82-1.92,1.28-3.09,1.28h0
			l-17.16-0.01c-0.95,0-1.72,0.77-1.72,1.72c0,0.95,0.77,1.72,1.72,1.72l17.16,0.01h0c2.08,0,4.04-0.81,5.51-2.28
			c0.68-0.68,1.21-1.46,1.59-2.31l22.13,0.01c3.79,0,6.95,2.72,7.65,6.31L26.5,77.87c-0.57,0.05-5.89,0.66-8.37,4.52
			c-0.51,0.8-0.28,1.86,0.51,2.38c0.29,0.18,0.61,0.27,0.93,0.27c0.57,0,1.12-0.28,1.45-0.79c1.65-2.55,5.77-2.95,5.81-2.96
			c0.02,0,56.7-7.05,56.7-7.05c0.86-0.11,1.51-0.84,1.51-1.7C85.03,66.34,79.99,61.3,73.8,61.29"/>
		<path class="st23" d="M8.94,3.44h8.52c9.39,0,17.03,7.64,17.03,17.03v6.1L24.14,16.21c-0.67-0.67-1.76-0.67-2.43,0
			c-0.67,0.67-0.67,1.76,0,2.43l10.36,10.36h-6.1c-4.55,0-8.83-1.77-12.04-4.99c-3.22-3.22-4.99-7.49-4.99-12.04V3.44z M67.56,3.44
			h8.52v8.52c0,9.39-7.64,17.03-17.03,17.03h-6.1l10.36-10.36c0.67-0.67,0.67-1.76,0-2.43c-0.67-0.67-1.76-0.67-2.43,0L50.53,26.56
			v-6.1C50.53,11.08,58.17,3.44,67.56,3.44 M25.97,32.43h9.62c1.29,1.17,5.2,5.4,5.2,13.6c0,0.95,0.77,1.72,1.72,1.72
			c0.95,0,1.72-0.77,1.72-1.72v0c0-8.22,3.92-12.44,5.2-13.6h9.62c11.29,0,20.47-9.18,20.47-20.47V1.72C79.52,0.77,78.75,0,77.8,0
			H67.56C56.27,0,47.09,9.18,47.09,20.47v9.45c-1.06,0.98-3.1,3.2-4.58,6.83c-1.47-3.63-3.52-5.85-4.58-6.83v-9.45
			C37.93,9.18,28.75,0,17.46,0H7.22C6.27,0,5.5,0.77,5.5,1.72v10.24c0,5.47,2.13,10.61,5.99,14.47
			C15.36,30.3,20.5,32.43,25.97,32.43"/>
	</g>
</g>
</svg>
