<svg xmlns="http://www.w3.org/2000/svg" viewBox="0 0 236.61 64.81"><defs><style>.cls-1{fill:#4a4a42;}.cls-2{fill:#d7a306;}</style></defs><title>Recurso 13</title><g id="Capa_2" data-name="Capa 2"><g id="Capa_1-2" data-name="Capa 1"><path class="cls-1" d="M175.23,15.24A15.24,15.24,0,1,1,159.88,0a15.23,15.23,0,0,1,15.35,15.24"/><path class="cls-2" d="M163.85,11.37a5.61,5.61,0,0,0-7.94,7.94,5.69,5.69,0,0,0,7.94,0,5.5,5.5,0,0,0,0-7.94"/><path class="cls-2" d="M70.93,35.3H59.12v28h11.7c10.19,0,17.06-5.58,17.06-14.06s-6.65-14-16.95-14M71,55.15H68.67V44H71c4.39,0,7,2.15,7,5.8s-2.57,5.36-7,5.36"/><path class="cls-2" d="M99.47,55.37V53h10.84c2,0,2.79-1.4,2.79-3V45.5H99.47V43.24H111.7a3.14,3.14,0,0,0,3-3v-5H89.92V63.31H111.7a2.94,2.94,0,0,0,3-3V55.37Z"/><path class="cls-2" d="M13.09,35.3H0v28H6.65a3.06,3.06,0,0,0,3-2.9V55.8h3c8.05,0,13.09-4,13.09-10.41,0-6.12-4.83-10.09-12.66-10.09m-.64,13.09H9.66V43.24h2.79c1.71,0,3.65.43,3.65,2.69,0,1.5-1.29,2.46-3.65,2.46"/><path class="cls-2" d="M223.84,35.3h-7A3.62,3.62,0,0,0,214.29,37c0,.11-12.13,26.29-12.13,26.29h10.2l2-4.51h9.77l1.39,3a2.69,2.69,0,0,0,2.69,1.5h8.37Zm-6.23,16.1,1.83-6.23,1.82,6.23Z"/><path class="cls-2" d="M191.32,45.17c-4.18-.85-4.5-1.28-4.5-1.82,0-3.54,11.59,1.4,11.59,1.4l3.86-5.48a19.56,19.56,0,0,0-13.2-5c-7.51,0-12.55,4-12.55,9.87,0,6.55,5.68,8,12.12,9.44,3.86.86,4.29,1.08,4.29,2,0,.75-1.28,1-2.46,1a13.66,13.66,0,0,1-9.88-3.65l-5.9,6.44s4.83,5.47,15.45,5.47c7.94,0,13.09-4,13.09-10.08s-5.68-8.27-11.91-9.56"/><path class="cls-2" d="M57.41,49.58A15.24,15.24,0,1,1,42.17,34.34,15.23,15.23,0,0,1,57.41,49.58m-11.27-4a5.62,5.62,0,1,0,0,7.95,5.71,5.71,0,0,0,0-7.95"/><path class="cls-2" d="M175.23,49.58A15.24,15.24,0,1,1,160,34.34a15.23,15.23,0,0,1,15.24,15.24m-11.38-4a5.62,5.62,0,1,0,0,7.95,5.71,5.71,0,0,0,0-7.95"/><path class="cls-2" d="M116.64,63.31h9.76V55.48h2.15l4.83,6.65a3.06,3.06,0,0,0,2.47,1.18h9.76l-7.19-9.55a9,9,0,0,0,5.37-8.48A8.91,8.91,0,0,0,141,38.52c-2.15-2-5.58-3.22-10-3.22H116.75v28Zm16.2-17.49c0,1.61-1.39,2.57-3.65,2.57H126.3V43.24h2.79c1.71,0,3.75.43,3.75,2.58"/></g></g></svg>