<?xml version="1.0" encoding="utf-8"?>
<!-- Generator: Adobe Illustrator 16.0.0, SVG Export Plug-In . SVG Version: 6.00 Build 0)  -->
<!DOCTYPE svg PUBLIC "-//W3C//DTD SVG 1.1//EN" "http://www.w3.org/Graphics/SVG/1.1/DTD/svg11.dtd">
<svg version="1.1" xmlns="http://www.w3.org/2000/svg" xmlns:xlink="http://www.w3.org/1999/xlink" x="0px" y="0px"
	 width="290.574px" height="290.574px" viewBox="0 0 290.574 290.574" enable-background="new 0 0 290.574 290.574"
	 xml:space="preserve">
<g id="Capa_1">
	<g>
		<circle fill="#D8A400" cx="145.287" cy="145.287" r="145.287"/>
		<g>
			<g>
				<path fill="none" stroke="#494941" stroke-width="5" stroke-miterlimit="10" d="M142.633,100.799
					c-32.233,0-62.877,16.469-80.904,43.706c19.763,25.638,48.671,39.962,80.904,39.962s61.142-14.324,80.904-39.962
					C206.096,118.803,174.866,100.799,142.633,100.799z"/>
				<g>
					<circle fill="#FFFFFF" cx="140.883" cy="140.875" r="34.374"/>
					<path fill="none" stroke="#494941" stroke-width="5" stroke-miterlimit="10" d="M152.114,140.875
						c0,6.205-5.028,11.233-11.231,11.233c-6.204,0-11.23-5.028-11.23-11.233c0-6.201,5.026-11.229,11.23-11.229
						C147.086,129.646,152.114,134.675,152.114,140.875z"/>
				</g>
			</g>
		</g>
	</g>
</g>
<g id="Guias" display="none">
</g>
<g id="bootstrap" display="none">
</g>
</svg>
